<svg version="1.1" id="Layer_1" xmlns="http://www.w3.org/2000/svg" xmlns:xlink="http://www.w3.org/1999/xlink" x="0px" y="0px"
	 width="100%" viewBox="0 0 500 500" enable-background="new 0 0 500 500" xml:space="preserve">
<path fill="#000000" opacity="1.000000" stroke="none" 
	d="
M278.000000,501.000000 
	C185.333359,501.000000 93.166710,501.000000 1.000049,501.000000 
	C1.000033,334.333405 1.000033,167.666794 1.000016,1.000139 
	C167.666565,1.000093 334.333130,1.000093 500.999756,1.000046 
	C500.999847,167.666519 500.999847,334.333038 500.999939,500.999786 
	C426.833344,501.000000 352.666656,501.000000 278.000000,501.000000 
M432.554840,395.945007 
	C432.762604,395.634216 432.970337,395.323456 433.790619,394.769653 
	C440.632568,388.611328 444.724304,380.585510 449.098511,372.690491 
	C452.032684,367.394623 456.396576,362.802551 458.797913,357.316559 
	C465.602203,341.772125 472.277222,326.031250 472.978088,308.733459 
	C473.464050,296.739990 473.443176,284.709839 473.154449,272.707947 
	C473.009888,266.699219 472.014313,260.671570 470.952667,254.733109 
	C469.173645,244.782059 467.033722,234.895538 464.958008,224.168457 
	C465.573364,222.031281 465.684845,219.546494 466.882233,217.810852 
	C478.527191,200.931091 480.859131,181.309875 482.647858,161.824265 
	C483.566132,151.821014 481.878265,141.534592 480.936890,131.416260 
	C479.882904,120.087524 478.320465,108.806557 477.016510,97.500511 
	C475.269928,82.357407 469.983734,68.295425 463.839783,54.511520 
	C462.002136,50.388783 456.813507,48.111629 452.499115,49.153584 
	C447.194061,50.434784 441.833923,51.523254 436.593414,53.028625 
	C426.631012,55.890388 416.559540,58.521160 406.887360,62.182938 
	C401.894501,64.073166 397.731232,68.084305 393.070404,70.936607 
	C383.498199,76.794518 373.853271,82.533920 364.216339,88.285362 
	C361.522125,89.893303 358.751312,91.372917 355.746887,92.274864 
	C354.921417,91.784851 354.079010,91.321053 353.273010,90.800850 
	C343.141083,84.261642 333.014404,77.714287 322.244263,70.760048 
	C316.502625,69.359383 310.819489,67.612885 305.007233,66.629692 
	C292.715546,64.550453 280.394592,62.522495 268.010010,61.162369 
	C261.109619,60.404541 254.032867,60.661819 247.079391,61.122536 
	C237.644470,61.747669 228.215118,62.750622 218.853592,64.084282 
	C212.823486,64.943336 206.902206,66.615410 200.962173,68.047691 
	C185.445206,71.789200 170.438232,76.818954 156.409210,86.038345 
	C155.903336,86.346527 155.397476,86.654709 154.967056,86.963211 
	C154.967056,86.963211 154.954987,86.888733 154.316895,87.171135 
	C152.837143,88.752983 151.357391,90.334831 149.129776,91.947647 
	C146.963745,90.947678 144.231461,90.477043 142.722519,88.862831 
	C131.983017,77.374046 117.022339,73.575623 103.559219,67.122444 
	C98.612602,64.751419 92.612625,64.425919 87.901596,61.746120 
	C77.026024,55.559711 65.382378,55.426468 53.616692,56.139668 
	C49.398800,56.395344 45.506557,58.258972 42.800331,62.394447 
	C34.798687,74.622002 29.068451,87.765991 24.866875,101.735046 
	C21.687956,112.304054 19.466991,122.928284 20.059874,133.974655 
	C20.508080,142.325500 20.851410,150.728912 22.092739,158.980865 
	C25.039984,178.573196 29.004354,197.923248 36.558289,216.422668 
	C39.128746,222.717636 41.194111,228.797028 39.474003,236.686569 
	C36.220028,251.611374 35.392288,267.103149 34.088818,282.404694 
	C32.752689,298.089600 34.629910,313.745331 38.609402,328.796448 
	C43.420563,346.993134 52.035542,363.725586 63.018997,379.850677 
	C65.786903,385.919525 69.471771,391.116394 74.740860,395.498993 
	C82.534271,401.981201 89.000244,409.823456 97.736160,415.480988 
	C113.532440,425.710938 129.830643,434.684967 147.606842,440.910889 
	C165.815186,447.288116 184.613159,450.353943 204.298889,451.764435 
	C208.886459,451.794952 213.474030,451.825470 218.395721,452.009277 
	C218.395721,452.009277 218.762589,451.985840 219.227203,452.765747 
	C225.155670,452.461334 231.084122,452.156891 237.376434,452.013000 
	C237.376434,452.013000 237.774048,452.004120 238.149200,452.703918 
	C239.438629,452.739563 240.728043,452.775238 242.939178,452.979309 
	C249.705841,452.986572 256.473969,453.076324 263.238373,452.955872 
	C265.562683,452.914520 267.877625,452.348175 270.612671,452.013397 
	C270.612671,452.013397 270.994873,451.849548 271.698059,452.152649 
	C273.128387,452.374817 274.558716,452.596954 276.902557,452.986572 
	C284.794922,452.670837 292.706573,452.596558 300.574036,451.968689 
	C307.854584,451.387726 315.126190,450.444366 322.332336,449.243958 
	C331.529114,447.711945 340.755402,446.152649 349.781158,443.864410 
	C356.669067,442.118164 363.264954,439.219849 370.540039,436.936035 
	C370.733002,436.632507 370.925964,436.328979 371.569366,435.975922 
	C371.569366,435.975922 371.998413,435.830261 372.638519,435.994446 
	C373.126892,435.683197 373.615265,435.371948 374.024750,435.041321 
	C374.024750,435.041321 374.056549,435.116089 374.757874,435.016266 
	C375.884277,434.355469 377.010712,433.694702 378.578033,432.980469 
	C378.578033,432.980469 378.996521,432.831787 379.738037,432.995972 
	C383.864838,430.675201 387.991638,428.354431 392.851776,426.005127 
	C395.566010,424.634033 398.280212,423.262970 401.688385,421.899780 
	C404.156006,419.963196 406.623627,418.026611 408.997284,416.006592 
	C408.997284,416.006592 409.087494,416.096436 409.804962,416.028900 
	C412.571136,414.050842 415.337341,412.072754 418.002441,410.004028 
	C418.002441,410.004028 418.092285,410.105957 418.680817,409.889282 
	C419.489532,408.944733 420.298279,408.000214 421.026337,407.036469 
	C421.026337,407.036469 421.015778,407.118683 421.562561,406.963837 
	C421.750488,406.648224 421.938385,406.332611 422.015656,406.015442 
	C422.015656,406.015442 422.018311,406.126099 422.561920,405.965179 
	C422.747803,405.649933 422.933685,405.334686 423.015686,405.025116 
	C423.015686,405.025116 423.026733,405.128601 423.575806,404.979919 
	C423.757874,404.662415 423.939941,404.344910 424.024231,404.025421 
	C424.024231,404.025421 424.029022,404.123138 424.577271,403.978821 
	C424.757141,403.661926 424.937012,403.345001 425.023529,403.029999 
	C425.023529,403.029999 425.032715,403.122864 425.581146,402.981201 
	C425.757660,402.663574 425.934143,402.345947 426.024933,402.026062 
	C426.024933,402.026062 426.029602,402.111694 426.580292,401.980560 
	C426.760223,401.664307 426.940155,401.348022 427.045837,401.052643 
	C427.045837,401.052643 427.081451,401.121033 427.693390,400.902222 
	C428.836517,399.622467 429.979645,398.342712 431.034027,397.039154 
	C431.034027,397.039154 431.019897,397.129974 431.562744,396.963257 
	C431.752136,396.648254 431.941559,396.333282 432.014740,396.013428 
	C432.014740,396.013428 432.013672,396.129730 432.554840,395.945007 
z"/>
<path fill="#CFA2FD" opacity="1.000000" stroke="none" 
	d="
M63.017563,379.123901 
	C52.035542,363.725586 43.420563,346.993134 38.609402,328.796448 
	C34.629910,313.745331 32.752689,298.089600 34.088818,282.404694 
	C35.392288,267.103149 36.220028,251.611374 39.474003,236.686569 
	C41.194111,228.797028 39.128746,222.717636 36.558289,216.422668 
	C29.004354,197.923248 25.039984,178.573196 22.092739,158.980865 
	C20.851410,150.728912 20.508080,142.325500 20.059874,133.974655 
	C19.466991,122.928284 21.687956,112.304054 24.866875,101.735046 
	C29.068451,87.765991 34.798687,74.622002 42.800331,62.394447 
	C45.506557,58.258972 49.398800,56.395344 53.616692,56.139668 
	C65.382378,55.426468 77.026024,55.559711 87.901596,61.746120 
	C92.612625,64.425919 98.612602,64.751419 103.559219,67.122444 
	C117.022339,73.575623 131.983017,77.374046 142.722519,88.862831 
	C144.231461,90.477043 146.963745,90.947678 149.692566,92.312363 
	C150.397614,101.901390 151.572937,111.265831 150.346954,120.304558 
	C149.409103,127.218872 145.605103,133.794678 142.762665,140.385956 
	C140.036942,146.706604 136.907730,152.853271 133.557602,159.060745 
	C129.100494,158.202423 125.069153,157.181366 120.977699,156.549530 
	C106.983582,154.388443 93.641411,157.023865 81.865273,164.491974 
	C77.304100,167.384537 72.378906,173.046722 71.665886,178.026520 
	C69.657852,192.050888 68.433662,206.466827 69.404816,220.555756 
	C70.283363,233.301224 74.763878,245.484283 83.955673,255.573776 
	C92.292580,264.724884 101.136421,272.617188 113.206566,276.291321 
	C114.910767,276.810028 116.426018,277.949493 118.061707,279.180725 
	C121.611626,287.528961 126.213539,295.209167 128.428177,303.525116 
	C133.648758,323.128296 135.149048,343.052887 128.644012,362.920166 
	C119.258636,360.847687 110.455055,362.444092 101.726410,364.302795 
	C93.363464,366.083588 84.871269,367.653564 76.846519,370.481476 
	C71.843025,372.244659 67.601204,376.169250 63.017563,379.123901 
z"/>
<path fill="#E5CAFE" opacity="1.000000" stroke="none" 
	d="
M356.015656,92.911407 
	C358.751312,91.372917 361.522125,89.893303 364.216339,88.285362 
	C373.853271,82.533920 383.498199,76.794518 393.070404,70.936607 
	C397.731232,68.084305 401.894501,64.073166 406.887360,62.182938 
	C416.559540,58.521160 426.631012,55.890388 436.593414,53.028625 
	C441.833923,51.523254 447.194061,50.434784 452.499115,49.153584 
	C456.813507,48.111629 462.002136,50.388783 463.839783,54.511520 
	C469.983734,68.295425 475.269928,82.357407 477.016510,97.500511 
	C478.320465,108.806557 479.882904,120.087524 480.936890,131.416260 
	C481.878265,141.534592 483.566132,151.821014 482.647858,161.824265 
	C480.859131,181.309875 478.527191,200.931091 466.882233,217.810852 
	C465.684845,219.546494 465.573364,222.031281 464.598572,224.549820 
	C457.455200,227.794327 450.222015,229.915787 443.990204,233.690460 
	C434.068848,239.699905 429.027313,249.963989 424.542389,260.189453 
	C420.306183,269.847809 418.738586,279.858459 423.114716,290.089935 
	C423.805969,291.706146 423.892395,293.646240 423.970490,295.449066 
	C424.564941,309.171783 417.556213,319.267273 407.717102,327.550293 
	C397.207489,336.397797 392.258820,347.508636 391.690826,361.144470 
	C376.517426,374.776672 361.215240,386.708557 338.974365,383.153290 
	C328.812347,381.528839 319.367676,378.430054 310.240753,374.006317 
	C309.249573,373.525909 308.745972,372.039551 308.423859,371.002991 
	C319.924744,369.366333 329.880768,364.973419 337.678558,357.001526 
	C342.929352,351.633545 346.949585,345.071075 351.603333,339.107758 
	C359.204254,329.367950 361.486145,317.583923 363.777435,305.993561 
	C365.632141,296.611603 365.819580,286.912506 367.274567,277.435150 
	C368.489288,269.523071 367.247650,262.337219 363.341492,255.418335 
	C362.515747,253.955750 362.596130,251.981613 362.465942,250.113922 
	C363.095398,249.768341 363.517914,249.552002 364.250488,249.533615 
	C366.023224,249.646179 367.599121,249.886307 368.930511,249.423264 
	C378.466339,246.106918 386.859772,241.024323 393.930786,233.663834 
	C398.979675,228.408264 404.461823,223.562164 409.847290,218.639069 
	C413.135956,215.632797 417.632111,213.439713 419.801483,209.813782 
	C425.855469,199.695175 433.521515,191.489914 443.809357,185.808624 
	C446.639404,184.245773 447.181793,182.628067 445.473755,179.884232 
	C440.780090,172.344147 436.953766,164.126205 431.419037,157.280243 
	C423.317413,147.259247 414.211700,138.017548 405.155273,128.816406 
	C401.359467,124.959946 396.682037,121.935814 392.253052,118.744781 
	C380.217438,110.073265 368.100403,101.514725 356.015656,92.911407 
z"/>
<path fill="#CFA2FD" opacity="1.000000" stroke="none" 
	d="
M308.016205,371.019806 
	C308.745972,372.039551 309.249573,373.525909 310.240753,374.006317 
	C319.367676,378.430054 328.812347,381.528839 338.974365,383.153290 
	C361.215240,386.708557 376.517426,374.776672 391.950653,361.387451 
	C396.534332,371.407318 399.574799,381.731415 406.680634,390.251678 
	C410.975250,395.401154 414.258881,401.393799 417.998108,407.395172 
	C418.030426,408.557159 418.061340,409.331543 418.092285,410.105957 
	C418.092285,410.105957 418.002441,410.004028 417.662048,410.027466 
	C413.433746,410.509064 410.197815,411.855164 409.087494,416.096436 
	C409.087494,416.096436 408.997284,416.006592 408.654663,416.028320 
	C404.408875,416.163544 401.926819,418.057159 400.994446,421.891907 
	C398.280212,423.262970 395.566010,424.634033 392.096313,426.018677 
	C387.226105,428.298767 383.111298,430.565277 378.996521,432.831787 
	C378.996521,432.831787 378.578033,432.980469 377.970520,432.995422 
	C376.260834,433.712250 375.158691,434.414185 374.056549,435.116089 
	C374.056549,435.116089 374.024750,435.041321 373.770142,435.047852 
	C373.009827,435.312988 372.504120,435.571625 371.998413,435.830261 
	C371.998413,435.830261 371.569366,435.975922 371.122009,436.083801 
	C370.384155,436.339294 370.156189,436.553406 369.990753,436.834045 
	C363.264954,439.219849 356.669067,442.118164 349.781158,443.864410 
	C340.755402,446.152649 331.529114,447.711945 322.332336,449.243958 
	C315.126190,450.444366 307.854584,451.387726 300.574036,451.968689 
	C292.706573,452.596558 284.794922,452.670837 276.354309,452.577209 
	C274.202332,452.061737 272.598602,451.955627 270.994873,451.849548 
	C270.994873,451.849548 270.612671,452.013397 269.922546,451.990723 
	C260.170593,451.975708 251.108749,451.983337 242.036591,451.565247 
	C240.794128,435.383789 233.965546,423.051331 220.135971,414.778534 
	C221.293686,412.749695 222.563446,411.140900 223.252975,409.313171 
	C228.368103,395.755188 238.895828,387.306427 250.502075,379.681305 
	C258.711761,374.287689 267.465088,370.370300 277.363434,368.073486 
	C287.697601,370.601227 297.722870,372.203827 308.016205,371.019806 
z"/>
<path fill="#CFA2FD" opacity="1.000000" stroke="none" 
	d="
M355.881287,92.593140 
	C368.100403,101.514725 380.217438,110.073265 392.253052,118.744781 
	C396.682037,121.935814 401.359467,124.959946 405.155273,128.816406 
	C414.211700,138.017548 423.317413,147.259247 431.419037,157.280243 
	C436.953766,164.126205 440.780090,172.344147 445.473755,179.884232 
	C447.181793,182.628067 446.639404,184.245773 443.809357,185.808624 
	C433.521515,191.489914 425.855469,199.695175 419.801483,209.813782 
	C417.632111,213.439713 413.135956,215.632797 409.847290,218.639069 
	C404.461823,223.562164 398.979675,228.408264 393.930786,233.663834 
	C386.859772,241.024323 378.466339,246.106918 368.930511,249.423264 
	C367.599121,249.886307 366.023224,249.646179 364.464233,249.238434 
	C366.500427,246.248459 369.311554,244.064514 370.634857,241.194550 
	C374.246765,233.361130 377.335907,225.278595 380.433594,217.218430 
	C383.408691,209.477249 387.595428,201.829254 388.633148,193.802048 
	C390.243195,181.347488 390.202301,168.588150 389.809082,155.990860 
	C389.390350,142.576096 379.281464,128.223816 363.047058,128.010315 
	C341.756683,127.730331 320.528992,127.432945 299.907440,134.223785 
	C281.449432,140.302155 262.591064,145.383530 249.134476,161.048508 
	C247.842285,162.552780 244.373138,162.187012 241.930328,162.240479 
	C241.957489,155.481079 241.836014,149.166809 242.013062,142.860931 
	C242.249802,134.429504 242.593231,125.996346 243.149277,117.581009 
	C243.366959,114.286652 244.284714,111.038551 244.988434,107.446404 
	C256.725311,99.145645 269.204468,94.225891 283.688904,95.929909 
	C288.076935,96.446144 292.613708,96.922920 296.952911,96.381027 
	C306.823090,95.148438 311.549927,86.660004 317.636597,80.323273 
	C320.000824,77.861908 321.171844,74.254417 322.886383,71.169014 
	C333.014404,77.714287 343.141083,84.261642 353.273010,90.800850 
	C354.079010,91.321053 354.921417,91.784851 355.881287,92.593140 
z"/>
<path fill="#B673FE" opacity="1.000000" stroke="none" 
	d="
M417.996704,407.007599 
	C414.258881,401.393799 410.975250,395.401154 406.680634,390.251678 
	C399.574799,381.731415 396.534332,371.407318 392.248901,361.238098 
	C392.258820,347.508636 397.207489,336.397797 407.717102,327.550293 
	C417.556213,319.267273 424.564941,309.171783 423.970490,295.449066 
	C423.892395,293.646240 423.805969,291.706146 423.114716,290.089935 
	C418.738586,279.858459 420.306183,269.847809 424.542389,260.189453 
	C429.027313,249.963989 434.068848,239.699905 443.990204,233.690460 
	C450.222015,229.915787 457.455200,227.794327 464.642426,224.956512 
	C467.033722,234.895538 469.173645,244.782059 470.952667,254.733109 
	C472.014313,260.671570 473.009888,266.699219 473.154449,272.707947 
	C473.443176,284.709839 473.464050,296.739990 472.978088,308.733459 
	C472.277222,326.031250 465.602203,341.772125 458.797913,357.316559 
	C456.396576,362.802551 452.032684,367.394623 449.098511,372.690491 
	C444.724304,380.585510 440.632568,388.611328 433.234436,395.013672 
	C432.456757,395.548370 432.235229,395.839050 432.013672,396.129761 
	C432.013672,396.129730 432.014740,396.013428 431.825745,396.132263 
	C431.431122,396.544067 431.225525,396.837036 431.019897,397.129974 
	C431.019897,397.129974 431.034027,397.039154 430.693970,397.035217 
	C429.263092,398.394531 428.172272,399.757782 427.081482,401.121033 
	C427.081451,401.121033 427.045837,401.052643 426.829437,401.138916 
	C426.418549,401.520691 426.224091,401.816193 426.029602,402.111694 
	C426.029602,402.111694 426.024933,402.026062 425.815125,402.126617 
	C425.414459,402.525726 425.223572,402.824310 425.032715,403.122864 
	C425.032715,403.122864 425.023529,403.029999 424.818726,403.131470 
	C424.418976,403.529694 424.223999,403.826416 424.029053,404.123138 
	C424.029022,404.123138 424.024231,404.025421 423.820068,404.129578 
	C423.419556,404.532043 423.223175,404.830353 423.026733,405.128601 
	C423.026733,405.128601 423.015686,405.025116 422.821716,405.136475 
	C422.424591,405.540588 422.221466,405.833344 422.018311,406.126099 
	C422.018311,406.126099 422.015656,406.015442 421.824402,406.130768 
	C421.427368,406.536957 421.221588,406.827820 421.015808,407.118713 
	C421.015778,407.118683 421.026337,407.036469 420.677826,407.026306 
	C419.551788,407.013275 418.774231,407.010437 417.996704,407.007599 
z"/>
<path fill="#B673FE" opacity="1.000000" stroke="none" 
	d="
M219.979309,415.097198 
	C233.965546,423.051331 240.794128,435.383789 242.021301,451.578796 
	C242.016373,452.018036 242.009506,452.057617 241.587555,452.025635 
	C240.035095,451.997131 238.904572,452.000641 237.774048,452.004120 
	C237.774048,452.004120 237.376434,452.013000 236.893463,451.698608 
	C230.527847,451.584747 224.645218,451.785309 218.762589,451.985840 
	C218.762589,451.985840 218.395721,452.009277 217.890686,451.686127 
	C212.872925,451.241791 208.360199,451.120636 203.847458,450.999481 
	C184.613159,450.353943 165.815186,447.288116 147.606842,440.910889 
	C129.830643,434.684967 113.532440,425.710938 97.736160,415.480988 
	C89.000244,409.823456 82.534271,401.981201 74.740860,395.498993 
	C69.471771,391.116394 65.786903,385.919525 63.018280,379.487305 
	C67.601204,376.169250 71.843025,372.244659 76.846519,370.481476 
	C84.871269,367.653564 93.363464,366.083588 101.726410,364.302795 
	C110.455055,362.444092 119.258636,360.847687 129.021301,363.015076 
	C135.050919,364.642395 140.332962,366.020874 145.495132,367.755951 
	C157.281204,371.717407 163.506302,382.140015 170.944519,390.812134 
	C183.993378,406.025635 200.918610,412.496460 219.979309,415.097198 
z"/>
<path fill="#B672FD" opacity="1.000000" stroke="none" 
	d="
M322.565308,70.964531 
	C321.171844,74.254417 320.000824,77.861908 317.636597,80.323273 
	C311.549927,86.660004 306.823090,95.148438 296.952911,96.381027 
	C292.613708,96.922920 288.076935,96.446144 283.688904,95.929909 
	C269.204468,94.225891 256.725311,99.145645 244.654572,107.555168 
	C241.355240,110.194443 237.928391,111.950340 235.739838,114.694008 
	C229.118057,122.995377 220.733932,128.229874 210.907013,132.058167 
	C198.439285,136.915237 187.508759,135.335953 177.847168,126.288277 
	C173.285538,122.016502 168.569611,117.597061 165.232529,112.403503 
	C160.257278,104.660408 155.351593,96.602455 154.954987,86.888733 
	C154.954987,86.888733 154.967056,86.963211 155.251709,86.957397 
	C156.036179,86.568962 156.535980,86.186340 157.035797,85.803726 
	C170.438232,76.818954 185.445206,71.789200 200.962173,68.047691 
	C206.902206,66.615410 212.823486,64.943336 218.853592,64.084282 
	C228.215118,62.750622 237.644470,61.747669 247.079391,61.122536 
	C254.032867,60.661819 261.109619,60.404541 268.010010,61.162369 
	C280.394592,62.522495 292.715546,64.550453 305.007233,66.629692 
	C310.819489,67.612885 316.502625,69.359383 322.565308,70.964531 
z"/>
<path fill="#E4C8FE" opacity="1.000000" stroke="none" 
	d="
M154.635941,87.029938 
	C155.351593,96.602455 160.257278,104.660408 165.232529,112.403503 
	C168.569611,117.597061 173.285538,122.016502 177.847168,126.288277 
	C187.508759,135.335953 198.439285,136.915237 210.907013,132.058167 
	C220.733932,128.229874 229.118057,122.995377 235.739838,114.694008 
	C237.928391,111.950340 241.355240,110.194443 244.549759,107.878151 
	C244.284714,111.038551 243.366959,114.286652 243.149277,117.581009 
	C242.593231,125.996346 242.249802,134.429504 242.013062,142.860931 
	C241.836014,149.166809 241.957489,155.481079 241.509674,162.295074 
	C235.365219,163.235199 229.463470,162.913696 224.000412,164.309357 
	C217.815536,165.889435 212.072495,169.140732 206.028702,171.371002 
	C204.456467,171.951172 202.433960,171.689240 200.696274,171.378220 
	C192.753326,169.956573 184.847305,168.329865 176.910919,166.869873 
	C162.598999,164.237015 148.274872,161.670578 133.955841,159.076416 
	C136.907730,152.853271 140.036942,146.706604 142.762665,140.385956 
	C145.605103,133.794678 149.409103,127.218872 150.346954,120.304558 
	C151.572937,111.265831 150.397614,101.901390 150.066498,92.296875 
	C151.357391,90.334831 152.837143,88.752983 154.635941,87.029938 
z"/>
<path fill="#E6CDFB" opacity="1.000000" stroke="none" 
	d="
M242.031647,452.004517 
	C251.108749,451.983337 260.170593,451.975708 269.714661,451.994873 
	C267.877625,452.348175 265.562683,452.914520 263.238373,452.955872 
	C256.473969,453.076324 249.705841,452.986572 242.480835,452.706726 
	C242.022476,452.434174 242.009506,452.057617 242.009506,452.057617 
	C242.009506,452.057617 242.016373,452.018036 242.031647,452.004517 
z"/>
<path fill="#D5B7F2" opacity="1.000000" stroke="none" 
	d="
M379.367279,432.913879 
	C383.111298,430.565277 387.226105,428.298767 391.729675,426.032959 
	C387.991638,428.354431 383.864838,430.675201 379.367279,432.913879 
z"/>
<path fill="#D5ADF8" opacity="1.000000" stroke="none" 
	d="
M218.994904,452.375793 
	C224.645218,451.785309 230.527847,451.584747 236.711533,451.618347 
	C231.084122,452.156891 225.155670,452.461334 218.994904,452.375793 
z"/>
<path fill="#C49CF1" opacity="1.000000" stroke="none" 
	d="
M409.446228,416.062683 
	C410.197815,411.855164 413.433746,410.509064 417.712585,410.072815 
	C415.337341,412.072754 412.571136,414.050842 409.446228,416.062683 
z"/>
<path fill="#C49CF1" opacity="1.000000" stroke="none" 
	d="
M401.341431,421.895844 
	C401.926819,418.057159 404.408875,416.163544 408.701630,416.070007 
	C406.623627,418.026611 404.156006,419.963196 401.341431,421.895844 
z"/>
<path fill="#D5ADF8" opacity="1.000000" stroke="none" 
	d="
M204.073181,451.381958 
	C208.360199,451.120636 212.872925,451.241791 217.723633,451.609497 
	C213.474030,451.825470 208.886459,451.794952 204.073181,451.381958 
z"/>
<path fill="#E6CDFB" opacity="1.000000" stroke="none" 
	d="
M271.346466,452.001099 
	C272.598602,451.955627 274.202332,452.061737 275.897552,452.493469 
	C274.558716,452.596954 273.128387,452.374817 271.346466,452.001099 
z"/>
<path fill="#C49CF1" opacity="1.000000" stroke="none" 
	d="
M427.387451,401.011658 
	C428.172272,399.757782 429.263092,398.394531 430.738342,397.047119 
	C429.979645,398.342712 428.836517,399.622467 427.387451,401.011658 
z"/>
<path fill="#D5B7F2" opacity="1.000000" stroke="none" 
	d="
M374.407227,435.066193 
	C375.158691,434.414185 376.260834,433.712250 377.750061,433.022125 
	C377.010712,433.694702 375.884277,434.355469 374.407227,435.066193 
z"/>
<path fill="#C49CF1" opacity="1.000000" stroke="none" 
	d="
M417.998108,407.395172 
	C418.774231,407.010437 419.551788,407.013275 420.718140,407.035889 
	C420.298279,408.000214 419.489532,408.944733 418.386536,409.997620 
	C418.061340,409.331543 418.030426,408.557159 417.998108,407.395172 
z"/>
<path fill="#D5ADF8" opacity="1.000000" stroke="none" 
	d="
M241.587555,452.025635 
	C242.009506,452.057617 242.022476,452.434174 242.019974,452.622559 
	C240.728043,452.775238 239.438629,452.739563 237.961624,452.354004 
	C238.904572,452.000641 240.035095,451.997131 241.587555,452.025635 
z"/>
<path fill="#D5B7F2" opacity="1.000000" stroke="none" 
	d="
M372.318481,435.912354 
	C372.504120,435.571625 373.009827,435.312988 373.809570,435.057556 
	C373.615265,435.371948 373.126892,435.683197 372.318481,435.912354 
z"/>
<path fill="#E4C8FE" opacity="1.000000" stroke="none" 
	d="
M156.722504,85.921036 
	C156.535980,86.186340 156.036179,86.568962 155.213989,86.957245 
	C155.397476,86.654709 155.903336,86.346527 156.722504,85.921036 
z"/>
<path fill="#C49CF1" opacity="1.000000" stroke="none" 
	d="
M421.289185,407.041260 
	C421.221588,406.827820 421.427368,406.536957 421.879700,406.131531 
	C421.938385,406.332611 421.750488,406.648224 421.289185,407.041260 
z"/>
<path fill="#C49CF1" opacity="1.000000" stroke="none" 
	d="
M422.290100,406.045654 
	C422.221466,405.833344 422.424591,405.540588 422.873657,405.133636 
	C422.933685,405.334686 422.747803,405.649933 422.290100,406.045654 
z"/>
<path fill="#C49CF1" opacity="1.000000" stroke="none" 
	d="
M423.301270,405.054260 
	C423.223175,404.830353 423.419556,404.532043 423.868988,404.130585 
	C423.939941,404.344910 423.757874,404.662415 423.301270,405.054260 
z"/>
<path fill="#D5B7F2" opacity="1.000000" stroke="none" 
	d="
M370.265381,436.885071 
	C370.156189,436.553406 370.384155,436.339294 370.896790,436.108582 
	C370.925964,436.328979 370.733002,436.632507 370.265381,436.885071 
z"/>
<path fill="#C49CF1" opacity="1.000000" stroke="none" 
	d="
M424.303162,404.050964 
	C424.223999,403.826416 424.418976,403.529694 424.865417,403.130524 
	C424.937012,403.345001 424.757141,403.661926 424.303162,404.050964 
z"/>
<path fill="#C49CF1" opacity="1.000000" stroke="none" 
	d="
M425.306946,403.052032 
	C425.223572,402.824310 425.414459,402.525726 425.857971,402.127747 
	C425.934143,402.345947 425.757660,402.663574 425.306946,403.052032 
z"/>
<path fill="#C49CF1" opacity="1.000000" stroke="none" 
	d="
M426.304962,402.046143 
	C426.224091,401.816193 426.418549,401.520691 426.866577,401.128479 
	C426.940155,401.348022 426.760223,401.664307 426.304962,402.046143 
z"/>
<path fill="#C49CF1" opacity="1.000000" stroke="none" 
	d="
M431.291321,397.046631 
	C431.225525,396.837036 431.431122,396.544067 431.883850,396.134705 
	C431.941559,396.333282 431.752136,396.648254 431.291321,397.046631 
z"/>
<path fill="#C49CF1" opacity="1.000000" stroke="none" 
	d="
M432.284271,396.037384 
	C432.235229,395.839050 432.456757,395.548370 432.928192,395.135193 
	C432.970337,395.323456 432.762604,395.634216 432.284271,396.037384 
z"/>
<path fill="#9E46FC" opacity="1.000000" stroke="none" 
	d="
M133.557617,159.060760 
	C148.274872,161.670578 162.598999,164.237015 176.910919,166.869873 
	C184.847305,168.329865 192.753326,169.956573 200.696274,171.378220 
	C202.433960,171.689240 204.456467,171.951172 206.028702,171.371002 
	C212.072495,169.140732 217.815536,165.889435 224.000412,164.309357 
	C229.463470,162.913696 235.365219,163.235199 241.493927,162.743958 
	C244.373138,162.187012 247.842285,162.552780 249.134476,161.048508 
	C262.591064,145.383530 281.449432,140.302155 299.907440,134.223785 
	C320.528992,127.432945 341.756683,127.730331 363.047058,128.010315 
	C379.281464,128.223816 389.390350,142.576096 389.809082,155.990860 
	C390.202301,168.588150 390.243195,181.347488 388.633148,193.802048 
	C387.595428,201.829254 383.408691,209.477249 380.433594,217.218430 
	C377.335907,225.278595 374.246765,233.361130 370.634857,241.194550 
	C369.311554,244.064514 366.500427,246.248459 364.154236,249.040497 
	C363.517914,249.552002 363.095398,249.768341 362.115601,249.997437 
	C355.355255,243.324600 349.152161,236.638977 343.120880,229.666443 
	C346.708038,225.828842 351.004791,222.780365 353.368988,218.630798 
	C359.775452,207.386414 361.983368,194.900345 362.230255,181.718658 
	C362.332825,178.283524 362.159424,175.142044 361.825684,171.617065 
	C361.093506,165.814270 360.815277,160.344025 359.885895,154.986725 
	C358.193237,145.229736 351.729309,140.935852 342.225403,142.724365 
	C340.604004,143.029480 338.878296,142.782272 337.258026,143.090836 
	C328.352417,144.786850 319.294159,145.996231 310.631561,148.541046 
	C305.013123,150.191559 300.116882,154.150528 294.657104,156.523087 
	C284.406525,160.977478 274.472717,166.053574 266.297729,173.670135 
	C259.162872,180.317642 250.636398,186.490036 250.997849,198.490326 
	C249.757019,213.578720 254.271469,226.820236 261.167755,239.349167 
	C267.940582,251.653763 276.960999,258.657684 291.993713,254.413696 
	C291.976624,259.180206 291.927277,263.512970 291.967010,267.844971 
	C291.994141,270.804688 291.103180,272.976898 287.386719,273.308838 
	C282.967133,272.308594 278.813812,271.743988 274.959717,270.351257 
	C261.041016,265.321503 245.510086,262.671417 238.038773,247.357285 
	C233.484436,238.022171 227.916901,228.962067 226.836548,218.381287 
	C226.034134,210.522476 226.176605,202.565857 225.938721,194.651581 
	C225.865967,192.230911 225.927444,189.806213 225.927444,187.385345 
	C216.359726,187.483215 215.248215,188.580185 215.200928,194.500473 
	C215.128311,203.590836 215.009415,212.748428 213.883179,221.748993 
	C211.362900,241.890335 204.910599,260.241394 187.526352,272.825531 
	C187.259735,273.018494 187.087021,273.362091 186.804718,273.509277 
	C183.213211,275.381683 179.609650,277.230957 176.001389,278.720947 
	C175.570175,275.350494 173.976212,275.659088 172.321671,277.243469 
	C170.425812,279.058960 168.753708,281.108093 166.590179,283.110260 
	C156.758423,285.644409 147.257111,285.938416 137.745377,283.737915 
	C131.145721,282.211121 124.599060,280.455200 118.028725,278.801666 
	C116.426018,277.949493 114.910767,276.810028 113.206566,276.291321 
	C101.136421,272.617188 92.292580,264.724884 83.955673,255.573776 
	C74.763878,245.484283 70.283363,233.301224 69.404816,220.555756 
	C68.433662,206.466827 69.657852,192.050888 71.665886,178.026520 
	C72.378906,173.046722 77.304100,167.384537 81.865273,164.491974 
	C93.641411,157.023865 106.983582,154.388443 120.977699,156.549530 
	C125.069153,157.181366 129.100494,158.202423 133.557617,159.060760 
M120.303329,177.681778 
	C114.559982,177.129761 108.746201,175.775497 103.094872,176.271622 
	C98.303398,176.692230 91.889473,176.204544 90.409775,183.279999 
	C88.024155,194.687347 86.457390,206.018997 89.975319,217.630646 
	C93.525970,229.350311 99.046425,239.590073 108.834274,248.040710 
	C111.055634,254.502396 117.455437,255.471069 122.440308,258.132538 
	C132.223083,263.355652 142.315262,264.102905 152.585403,259.212860 
	C154.801971,258.157471 157.249039,257.546783 159.633835,256.890900 
	C170.136246,254.002594 178.277802,248.288589 184.307144,238.901855 
	C191.056152,228.394684 191.414062,216.587418 192.634628,204.962723 
	C193.000397,201.479065 192.041641,196.726089 189.790085,194.369934 
	C186.626495,191.059387 181.943527,188.432419 177.459930,187.306137 
	C167.018692,184.683289 156.339035,182.943375 145.696930,181.207733 
	C137.518707,179.873917 129.250458,179.092239 120.303329,177.681778 
z"/>
<path fill="#E4C8FE" opacity="1.000000" stroke="none" 
	d="
M118.061707,279.180725 
	C124.599060,280.455200 131.145721,282.211121 137.745377,283.737915 
	C147.257111,285.938416 156.758423,285.644409 166.585022,283.484406 
	C165.916290,286.563934 164.773682,289.294708 163.814850,292.088593 
	C158.678192,307.055878 157.114670,322.527008 158.013565,338.214325 
	C158.385590,344.706818 160.253525,351.026489 165.249054,355.736115 
	C176.000061,365.871796 189.415726,370.496338 203.357208,374.156036 
	C210.865341,376.126984 217.292099,374.624878 222.548706,369.151764 
	C228.047577,363.426453 233.741074,357.757690 236.248352,349.833801 
	C236.696426,348.417786 237.838348,347.221344 238.265228,346.546997 
	C246.036621,351.328674 253.071808,355.946625 260.389069,360.063232 
	C265.722992,363.064026 271.428894,365.403625 276.968964,368.037994 
	C267.465088,370.370300 258.711761,374.287689 250.502075,379.681305 
	C238.895828,387.306427 228.368103,395.755188 223.252975,409.313171 
	C222.563446,411.140900 221.293686,412.749695 220.135971,414.778534 
	C200.918610,412.496460 183.993378,406.025635 170.944519,390.812134 
	C163.506302,382.140015 157.281204,371.717407 145.495132,367.755951 
	C140.332962,366.020874 135.050919,364.642395 129.446014,363.007080 
	C135.149048,343.052887 133.648758,323.128296 128.428177,303.525116 
	C126.213539,295.209167 121.611626,287.528961 118.061707,279.180725 
z"/>
<path fill="#B774FD" opacity="1.000000" stroke="none" 
	d="
M277.363434,368.073486 
	C271.428894,365.403625 265.722992,363.064026 260.389069,360.063232 
	C253.071808,355.946625 246.036621,351.328674 238.265228,346.546997 
	C237.838348,347.221344 236.696426,348.417786 236.248352,349.833801 
	C233.741074,357.757690 228.047577,363.426453 222.548706,369.151764 
	C217.292099,374.624878 210.865341,376.126984 203.357208,374.156036 
	C189.415726,370.496338 176.000061,365.871796 165.249054,355.736115 
	C160.253525,351.026489 158.385590,344.706818 158.013565,338.214325 
	C157.114670,322.527008 158.678192,307.055878 163.814850,292.088593 
	C164.773682,289.294708 165.916290,286.563934 166.979248,283.429871 
	C168.753708,281.108093 170.425812,279.058960 172.321671,277.243469 
	C173.976212,275.659088 175.570175,275.350494 175.940826,279.125183 
	C175.566681,284.190857 175.526810,288.530212 174.875687,292.775787 
	C171.911560,312.103394 174.296356,330.565948 183.573044,347.910370 
	C186.626953,353.620178 191.433533,357.474548 198.014435,358.034668 
	C204.512695,358.587769 207.322708,353.657837 209.588867,348.715027 
	C214.561386,337.869263 218.332901,326.755981 219.326889,314.632263 
	C219.657883,310.595093 223.371384,306.798309 225.730240,303.010986 
	C226.026306,302.535614 227.625000,302.463318 228.403549,302.764374 
	C232.785049,304.458588 236.991974,307.406097 241.465836,307.853790 
	C246.889465,308.396545 246.954132,312.272461 248.826248,315.456665 
	C253.436508,323.298065 257.868256,331.337158 263.377350,338.526123 
	C267.321350,343.672791 272.112244,348.524719 279.144409,350.089661 
	C289.836578,352.469055 299.825470,350.661835 309.456329,345.832153 
	C316.798126,342.150421 323.050598,337.187622 326.211029,329.444733 
	C329.448181,321.513855 333.055359,313.512146 334.648407,305.187042 
	C336.738586,294.263763 337.126617,283.001740 337.952484,271.863586 
	C338.076416,270.192291 336.599304,268.402344 335.895142,266.309479 
	C333.051025,260.270538 330.615417,254.291397 327.077515,249.057358 
	C325.695312,247.012482 321.363434,245.143967 319.204254,245.824844 
	C314.876984,247.189423 309.239990,249.049301 309.246033,254.853333 
	C309.251099,259.700073 310.545624,264.734924 312.306793,269.284790 
	C312.901581,270.821381 316.676636,271.126953 318.739929,272.258850 
	C317.081848,272.917480 315.682068,273.312378 314.325012,273.695251 
	C314.785522,279.352997 317.104401,281.779388 322.096039,282.035156 
	C330.037964,282.442078 329.843292,282.539124 327.418610,289.993286 
	C326.342926,293.300140 324.769135,294.092773 321.765411,293.990234 
	C317.791077,293.854553 313.809265,293.923553 309.830719,293.928619 
	C302.522278,293.937958 296.991364,291.266571 294.474091,283.910187 
	C293.832184,282.034332 293.279541,280.049103 292.220856,278.415466 
	C291.015686,276.555725 289.289795,275.033447 287.790222,273.364502 
	C291.103180,272.976898 291.994141,270.804688 291.967010,267.844971 
	C291.927277,263.512970 291.976624,259.180206 292.128174,254.072754 
	C295.549377,247.563385 298.830475,241.829010 302.396088,235.920349 
	C311.918274,226.198044 323.002930,224.107819 335.466034,227.655594 
	C337.975067,228.369812 340.455475,229.184830 342.949066,229.953369 
	C349.152161,236.638977 355.355255,243.324600 361.908691,250.126694 
	C362.596130,251.981613 362.515747,253.955750 363.341492,255.418335 
	C367.247650,262.337219 368.489288,269.523071 367.274567,277.435150 
	C365.819580,286.912506 365.632141,296.611603 363.777435,305.993561 
	C361.486145,317.583923 359.204254,329.367950 351.603333,339.107758 
	C346.949585,345.071075 342.929352,351.633545 337.678558,357.001526 
	C329.880768,364.973419 319.924744,369.366333 308.423859,371.002991 
	C297.722870,372.203827 287.697601,370.601227 277.363434,368.073486 
z"/>
<path fill="#E5C8FE" opacity="1.000000" stroke="none" 
	d="
M287.386719,273.308838 
	C289.289795,275.033447 291.015686,276.555725 292.220856,278.415466 
	C293.279541,280.049103 293.832184,282.034332 294.474091,283.910187 
	C296.991364,291.266571 302.522278,293.937958 309.830719,293.928619 
	C313.809265,293.923553 317.791077,293.854553 321.765411,293.990234 
	C324.769135,294.092773 326.342926,293.300140 327.418610,289.993286 
	C329.843292,282.539124 330.037964,282.442078 322.096039,282.035156 
	C317.104401,281.779388 314.785522,279.352997 314.325012,273.695251 
	C315.682068,273.312378 317.081848,272.917480 319.136963,272.261292 
	C323.539154,270.687775 327.286011,269.375519 331.281128,268.011841 
	C331.784973,267.745514 332.040527,267.530609 332.657227,267.274536 
	C333.966522,267.044678 334.914673,266.855988 335.862823,266.667267 
	C336.599304,268.402344 338.076416,270.192291 337.952484,271.863586 
	C337.126617,283.001740 336.738586,294.263763 334.648407,305.187042 
	C333.055359,313.512146 329.448181,321.513855 326.211029,329.444733 
	C323.050598,337.187622 316.798126,342.150421 309.456329,345.832153 
	C299.825470,350.661835 289.836578,352.469055 279.144409,350.089661 
	C272.112244,348.524719 267.321350,343.672791 263.377350,338.526123 
	C257.868256,331.337158 253.436508,323.298065 248.826248,315.456665 
	C246.954132,312.272461 246.889465,308.396545 241.465836,307.853790 
	C236.991974,307.406097 232.785049,304.458588 228.403549,302.764374 
	C227.625000,302.463318 226.026306,302.535614 225.730240,303.010986 
	C223.371384,306.798309 219.657883,310.595093 219.326889,314.632263 
	C218.332901,326.755981 214.561386,337.869263 209.588867,348.715027 
	C207.322708,353.657837 204.512695,358.587769 198.014435,358.034668 
	C191.433533,357.474548 186.626953,353.620178 183.573044,347.910370 
	C174.296356,330.565948 171.911560,312.103394 174.875687,292.775787 
	C175.526810,288.530212 175.566681,284.190857 175.948593,279.490417 
	C179.609650,277.230957 183.213211,275.381683 186.804718,273.509277 
	C187.087021,273.362091 187.259735,273.018494 187.526352,272.825531 
	C204.910599,260.241394 211.362900,241.890335 213.883179,221.748993 
	C215.009415,212.748428 215.128311,203.590836 215.200928,194.500473 
	C215.248215,188.580185 216.359726,187.483215 225.927444,187.385345 
	C225.927444,189.806213 225.865967,192.230911 225.938721,194.651581 
	C226.176605,202.565857 226.034134,210.522476 226.836548,218.381287 
	C227.916901,228.962067 233.484436,238.022171 238.038773,247.357285 
	C245.510086,262.671417 261.041016,265.321503 274.959717,270.351257 
	C278.813812,271.743988 282.967133,272.308594 287.386719,273.308838 
z"/>
<path fill="#E4C7FE" opacity="1.000000" stroke="none" 
	d="
M121.022232,178.065033 
	C129.250458,179.092239 137.518707,179.873917 145.696930,181.207733 
	C156.339035,182.943375 167.018692,184.683289 177.459930,187.306137 
	C181.943527,188.432419 186.626495,191.059387 189.790085,194.369934 
	C192.041641,196.726089 193.000397,201.479065 192.634628,204.962723 
	C191.414062,216.587418 191.056152,228.394684 184.307144,238.901855 
	C178.277802,248.288589 170.136246,254.002594 159.633835,256.890900 
	C157.249039,257.546783 154.801971,258.157471 152.585403,259.212860 
	C142.315262,264.102905 132.223083,263.355652 122.440308,258.132538 
	C117.455437,255.471069 111.055634,254.502396 108.857697,247.249542 
	C108.256317,235.974701 107.631516,225.491043 107.264481,214.755402 
	C108.628822,214.178558 109.801231,213.993347 110.832024,213.507599 
	C123.649040,207.467667 136.591187,209.562469 149.003387,214.081955 
	C158.270660,217.456345 166.753586,222.807831 173.290100,230.661819 
	C176.644852,234.692703 178.903656,234.406113 181.671524,229.978867 
	C184.395554,225.621811 183.508072,221.079224 178.721542,216.301254 
	C161.100143,198.711365 140.029465,190.797592 115.096474,193.456787 
	C117.063965,188.079086 119.043098,183.072067 121.022232,178.065033 
z"/>
<path fill="#CFA1FD" opacity="1.000000" stroke="none" 
	d="
M343.120880,229.666443 
	C340.455475,229.184830 337.975067,228.369812 335.466034,227.655594 
	C323.002930,224.107819 311.918274,226.198044 302.326965,235.568970 
	C300.993164,234.102173 300.244781,232.499298 298.994843,231.574005 
	C291.368317,225.928284 283.627899,220.436432 275.982971,214.545898 
	C276.466309,213.301529 276.689850,212.205185 277.348114,211.537354 
	C287.707794,201.027664 298.144806,190.462219 312.894043,186.295670 
	C322.217560,183.661850 331.640594,181.166611 341.610291,182.923294 
	C347.883453,184.028641 354.357849,186.117905 360.479858,182.063156 
	C360.829315,181.831741 361.456421,182.019577 361.954315,182.012299 
	C361.983368,194.900345 359.775452,207.386414 353.368988,218.630798 
	C351.004791,222.780365 346.708038,225.828842 343.120880,229.666443 
z"/>
<path fill="#B673FD" opacity="1.000000" stroke="none" 
	d="
M362.230255,181.718658 
	C361.456421,182.019577 360.829315,181.831741 360.479858,182.063156 
	C354.357849,186.117905 347.883453,184.028641 341.610291,182.923294 
	C331.640594,181.166611 322.217560,183.661850 312.894043,186.295670 
	C298.144806,190.462219 287.707794,201.027664 277.348114,211.537354 
	C276.689850,212.205185 276.466309,213.301529 275.695953,214.728134 
	C272.688873,218.147964 270.026337,221.038162 267.392365,223.897385 
	C261.203705,218.762970 256.831085,214.045074 260.843048,206.452164 
	C261.050201,206.060181 260.900116,205.479446 261.190002,204.793396 
	C269.996216,192.647781 278.911255,180.935684 292.411224,174.215561 
	C301.545258,169.668747 310.878418,164.990189 320.662262,162.446823 
	C328.673492,160.364258 337.482513,161.360367 345.936798,160.968552 
	C350.752411,160.745377 353.866943,162.979462 356.317596,167.089706 
	C357.533173,169.128464 360.055115,170.388306 361.986023,172.000549 
	C362.159424,175.142044 362.332825,178.283524 362.230255,181.718658 
z"/>
<path fill="#CE9FFD" opacity="1.000000" stroke="none" 
	d="
M361.825684,171.617065 
	C360.055115,170.388306 357.533173,169.128464 356.317596,167.089706 
	C353.866943,162.979462 350.752411,160.745377 345.936798,160.968552 
	C337.482513,161.360367 328.673492,160.364258 320.662262,162.446823 
	C310.878418,164.990189 301.545258,169.668747 292.411224,174.215561 
	C278.911255,180.935684 269.996216,192.647781 260.903687,204.637421 
	C257.247894,202.459442 254.151947,200.244217 251.056015,198.029007 
	C250.636398,186.490036 259.162872,180.317642 266.297729,173.670135 
	C274.472717,166.053574 284.406525,160.977478 294.657104,156.523087 
	C300.116882,154.150528 305.013123,150.191559 310.631561,148.541046 
	C319.294159,145.996231 328.352417,144.786850 337.258026,143.090836 
	C338.878296,142.782272 340.604004,143.029480 342.225403,142.724365 
	C351.729309,140.935852 358.193237,145.229736 359.885895,154.986725 
	C360.815277,160.344025 361.093506,165.814270 361.825684,171.617065 
z"/>
<path fill="#E4C7FE" opacity="1.000000" stroke="none" 
	d="
M250.997849,198.490326 
	C254.151947,200.244217 257.247894,202.459442 260.630096,204.830627 
	C260.900116,205.479446 261.050201,206.060181 260.843048,206.452164 
	C256.831085,214.045074 261.203705,218.762970 267.392365,223.897385 
	C270.026337,221.038162 272.688873,218.147964 275.638428,215.075531 
	C283.627899,220.436432 291.368317,225.928284 298.994843,231.574005 
	C300.244781,232.499298 300.993164,234.102173 302.042450,235.743271 
	C298.830475,241.829010 295.549377,247.563385 292.133850,253.638687 
	C276.960999,258.657684 267.940582,251.653763 261.167755,239.349167 
	C254.271469,226.820236 249.757019,213.578720 250.997849,198.490326 
z"/>
<path fill="#CFA0FD" opacity="1.000000" stroke="none" 
	d="
M120.662781,177.873413 
	C119.043098,183.072067 117.063965,188.079086 114.677803,193.519775 
	C113.448196,194.047165 112.625450,194.139572 111.803040,194.234833 
	C105.991005,194.908081 101.395699,196.903595 99.877869,203.436172 
	C99.462379,205.224365 97.366188,206.680923 95.903053,208.152206 
	C93.992729,210.073151 93.515678,212.378403 96.201042,213.281281 
	C99.610916,214.427750 103.387978,214.482117 107.006721,215.007370 
	C107.631516,225.491043 108.256317,235.974701 108.783188,246.910400 
	C99.046425,239.590073 93.525970,229.350311 89.975319,217.630646 
	C86.457390,206.018997 88.024155,194.687347 90.409775,183.279999 
	C91.889473,176.204544 98.303398,176.692230 103.094872,176.271622 
	C108.746201,175.775497 114.559982,177.129761 120.662781,177.873413 
z"/>
<path fill="#9F47FC" opacity="1.000000" stroke="none" 
	d="
M331.032837,268.063263 
	C327.286011,269.375519 323.539154,270.687775 319.395294,271.997559 
	C316.676636,271.126953 312.901581,270.821381 312.306793,269.284790 
	C310.545624,264.734924 309.251099,259.700073 309.246033,254.853333 
	C309.239990,249.049301 314.876984,247.189423 319.204254,245.824844 
	C321.363434,245.143967 325.695312,247.012482 327.077515,249.057358 
	C330.615417,254.291397 333.051025,260.270538 335.895142,266.309479 
	C334.914673,266.855988 333.966522,267.044678 332.387512,267.275940 
	C331.515381,267.566772 331.274109,267.815002 331.032837,268.063263 
z"/>
<path fill="#B774FD" opacity="1.000000" stroke="none" 
	d="
M331.281128,268.011841 
	C331.274109,267.815002 331.515381,267.566772 332.026367,267.317078 
	C332.040527,267.530609 331.784973,267.745514 331.281128,268.011841 
z"/>
<path fill="#B675FC" opacity="1.000000" stroke="none" 
	d="
M107.264481,214.755402 
	C103.387978,214.482117 99.610916,214.427750 96.201042,213.281281 
	C93.515678,212.378403 93.992729,210.073151 95.903053,208.152206 
	C97.366188,206.680923 99.462379,205.224365 99.877869,203.436172 
	C101.395699,196.903595 105.991005,194.908081 111.803040,194.234833 
	C112.625450,194.139572 113.448196,194.047165 114.689453,193.890457 
	C140.029465,190.797592 161.100143,198.711365 178.721542,216.301254 
	C183.508072,221.079224 184.395554,225.621811 181.671524,229.978867 
	C178.903656,234.406113 176.644852,234.692703 173.290100,230.661819 
	C166.753586,222.807831 158.270660,217.456345 149.003387,214.081955 
	C136.591187,209.562469 123.649040,207.467667 110.832024,213.507599 
	C109.801231,213.993347 108.628822,214.178558 107.264481,214.755402 
z"/>
</svg>