<svg version="1.1" id="Layer_1" xmlns="http://www.w3.org/2000/svg" xmlns:xlink="http://www.w3.org/1999/xlink" x="0px" y="0px"
	 width="100%" viewBox="0 0 999 250" enable-background="new 0 0 999 250" xml:space="preserve">
<path fill="#000000" opacity="1.000000" stroke="none" 
	d="
M655.000000,251.000000 
	C436.666656,251.000000 218.833328,251.000000 1.000000,251.000000 
	C1.000000,167.666672 1.000000,84.333336 1.000000,1.000000 
	C334.000000,1.000000 667.000000,1.000000 1000.000000,1.000000 
	C1000.000000,84.333336 1000.000000,167.666672 1000.000000,251.000000 
	C885.166687,251.000000 770.333313,251.000000 655.000000,251.000000 
M641.424011,122.033440 
	C641.230347,122.345612 641.036621,122.657784 640.217773,123.239288 
	C636.483582,127.960541 632.687134,132.634216 629.031677,137.415619 
	C624.882874,142.842270 619.433167,146.353043 613.023682,148.370728 
	C611.921875,148.717545 610.128723,148.353027 609.228638,147.616272 
	C603.117432,142.613846 604.206360,135.532120 605.514160,129.354721 
	C607.604675,119.480682 610.271790,109.545746 614.247375,100.304344 
	C618.363342,90.736656 623.468628,81.244873 633.391174,75.991142 
	C635.057861,75.108681 638.528931,74.199310 638.780945,74.646523 
	C640.235291,77.227448 642.664246,81.278587 641.658264,82.873833 
	C637.493591,89.478065 642.793274,90.033852 646.436646,91.781937 
	C647.503723,92.293907 648.783813,92.362137 650.038635,92.650383 
	C650.640381,91.635063 651.087585,90.561195 651.806213,89.718910 
	C657.008606,83.621658 653.194641,73.024208 646.146851,70.131683 
	C634.065430,65.173271 623.708008,67.697144 614.896851,77.694862 
	C604.824768,89.123375 598.036804,102.481903 593.678406,116.955650 
	C591.714111,123.478767 591.162170,130.427155 589.289795,137.249771 
	C587.130798,139.373947 585.161255,141.751068 582.759094,143.550613 
	C580.389954,145.325470 577.683350,147.300323 574.928345,147.653076 
	C573.401062,147.848602 570.346069,145.170471 569.910645,143.330612 
	C567.511597,133.194565 566.462097,123.138824 571.272095,113.053841 
	C575.288208,104.633690 578.367126,95.738754 581.434265,86.905884 
	C582.901123,82.681450 584.452087,77.792107 581.139648,73.871254 
	C579.024963,71.368141 575.861755,68.992767 572.766663,68.261314 
	C568.577026,67.271194 570.070557,71.874847 569.127686,73.942810 
	C563.286377,86.755051 560.197632,100.664711 551.565552,112.428139 
	C546.740723,119.003212 542.377014,125.483101 535.134705,129.595825 
	C535.134705,128.489349 535.157654,127.495834 535.130981,126.503654 
	C534.947876,119.696701 536.185791,112.441055 534.225098,106.189613 
	C531.360840,97.057587 526.199829,88.645569 522.013733,79.928658 
	C518.246521,72.084106 511.698669,67.120453 504.321045,63.106068 
	C501.177032,61.395302 498.597076,62.675224 497.123871,65.665115 
	C491.653168,76.767746 486.298706,87.927940 480.942108,99.086433 
	C477.279999,106.715042 473.686676,114.376671 469.571442,123.059853 
	C468.631104,120.926201 467.975983,120.172630 468.052368,119.502457 
	C469.092102,110.383377 465.566833,102.143440 462.942474,93.795425 
	C461.753265,90.012497 459.996887,86.062057 457.426514,83.125198 
	C450.257599,74.934006 441.139465,69.228302 431.262238,64.742317 
	C428.645386,63.553799 426.802155,63.381744 425.833984,67.044083 
	C425.027740,70.093971 423.622223,73.282242 421.599304,75.657288 
	C415.852417,82.404510 413.697479,90.624405 410.896027,98.678329 
	C409.160767,103.667030 407.056244,108.668137 404.236511,113.103638 
	C400.597321,118.828117 395.807648,123.809952 391.995544,129.438156 
	C384.729919,140.165192 376.444519,149.439499 363.411438,153.214981 
	C357.790680,154.843216 355.252441,154.053284 353.010468,148.686646 
	C348.110748,136.958115 349.306152,124.975349 352.120117,113.039536 
	C352.397278,111.864044 353.921173,110.433708 355.129669,110.112602 
	C365.668762,107.312317 373.215057,100.922127 379.593262,92.167778 
	C387.574524,81.213165 384.787598,68.092453 372.581879,63.233894 
	C367.409424,61.174980 359.670807,63.298866 357.069550,68.350594 
	C351.756775,78.667999 346.826355,89.193886 342.103058,99.796333 
	C340.630981,103.100723 339.305939,105.502045 335.361633,106.359512 
	C329.855469,107.556526 324.523682,109.555725 319.977020,110.948334 
	C319.977020,100.015388 320.074524,88.783852 319.934021,77.555283 
	C319.868256,72.298698 319.716553,66.992844 318.952423,61.805264 
	C317.047882,48.875835 309.441528,40.401737 297.260376,36.169258 
	C286.758118,32.520138 275.758850,34.390522 264.261108,33.967972 
	C254.984177,40.571606 250.583359,52.691818 253.552368,63.121109 
	C253.990555,64.660355 253.552750,66.463356 254.052994,67.967094 
	C254.759338,70.090385 255.962204,72.048500 256.989136,74.008438 
	C256.989136,74.008438 256.920074,74.044258 256.994080,74.761520 
	C259.362213,79.139938 263.184845,80.886993 268.659302,80.961845 
	C269.102600,80.913376 269.545929,80.864906 270.633118,80.823982 
	C271.362396,80.039421 272.091705,79.254868 273.136444,78.130951 
	C271.929443,77.655945 270.989685,77.286102 270.009094,76.988724 
	C270.009094,76.988724 270.080902,76.946762 269.772949,76.311913 
	C268.853973,76.269859 267.935028,76.227806 266.571564,76.034492 
	C266.571564,76.034492 266.106476,75.969994 265.937134,75.454094 
	C265.635681,75.273804 265.334229,75.093513 265.020081,74.983391 
	C265.020081,74.983391 265.090759,74.973938 265.011444,74.333603 
	C264.685669,73.853088 264.359894,73.372574 263.909576,72.436554 
	C263.729431,72.145027 263.468414,71.987312 263.035828,71.319321 
	C262.704376,70.835861 262.372955,70.352402 261.996857,68.949654 
	C261.997314,64.797043 262.002686,60.644428 261.997253,56.491829 
	C261.982910,45.532349 268.397125,38.975018 279.134796,38.980682 
	C280.463654,38.981384 281.793213,38.968109 283.121216,39.005447 
	C295.790466,39.361614 305.141388,46.559868 306.018707,59.277561 
	C306.379700,64.510269 306.777252,69.740463 306.995514,75.905136 
	C307.043457,83.946983 307.091370,91.988823 306.980377,100.376678 
	C306.980377,100.376678 307.000824,100.756897 306.278656,101.149261 
	C306.154175,102.766754 306.029694,104.384247 305.199310,106.373116 
	C304.554413,109.382538 303.449432,112.381828 303.382874,115.403992 
	C303.302368,119.058746 301.093109,120.076965 298.355591,120.897972 
	C291.552948,122.938164 284.692535,124.800278 277.952209,127.027176 
	C274.976074,128.010452 271.529785,129.056244 269.541290,131.218185 
	C265.965332,135.106049 262.946838,139.645370 260.367950,144.286224 
	C251.814224,159.679245 246.711731,176.231857 246.110046,193.853958 
	C245.620224,208.199753 257.961761,218.042358 271.980865,214.948654 
	C274.614960,214.367371 277.325378,212.817200 279.319275,210.976212 
	C281.915955,208.578705 284.392578,205.721359 285.945618,202.579788 
	C293.143188,188.020203 300.538330,173.516144 306.764343,158.535706 
	C310.007385,150.732590 310.814941,141.940506 313.052795,133.684647 
	C313.920105,130.484909 314.875977,126.085365 317.223511,124.750160 
	C323.213135,121.343430 330.008942,119.354050 336.939270,116.617088 
	C336.307800,120.441490 335.759430,123.279068 335.381836,126.139183 
	C334.176331,135.269836 334.600739,144.465881 339.878204,152.125290 
	C345.799377,160.718857 355.867218,162.762100 365.382812,163.796356 
	C374.010651,164.734131 380.810638,159.679947 386.915344,153.714325 
	C391.978577,148.766434 397.668304,144.459610 402.629395,140.251389 
	C405.967194,146.492081 422.717743,158.797226 431.791901,159.972031 
	C448.410034,162.123566 460.433990,154.159225 469.902802,143.179565 
	C474.845703,147.867722 479.314606,153.305496 484.903778,157.087845 
	C491.151947,161.316101 497.878876,165.158997 506.466278,162.368820 
	C517.425110,158.808151 526.752869,152.719223 535.737183,145.847855 
	C541.671021,141.309570 547.609131,136.776764 554.109314,131.810577 
	C553.254944,144.927841 561.404724,150.761093 570.549255,155.845718 
	C578.731750,160.395447 583.193237,160.110672 588.588135,154.903381 
	C589.971619,153.568024 591.516968,152.400391 593.632629,150.857956 
	C594.700806,151.019302 595.877075,150.946274 596.819275,151.380783 
	C602.174072,153.850021 607.242004,157.365585 612.846924,158.765091 
	C620.558411,160.690628 627.294067,156.631790 632.710388,151.582321 
	C639.252747,145.483078 645.036316,138.569992 652.029907,131.062881 
	C652.803528,147.807571 663.593689,155.112900 677.103699,158.355347 
	C693.163391,162.209717 701.194092,150.710327 708.719421,138.543503 
	C712.138428,148.006195 718.232971,154.116989 727.020569,157.507874 
	C734.150391,160.259109 747.630127,156.833954 751.519165,151.303207 
	C766.010010,163.763214 778.827087,163.172592 795.604919,149.317993 
	C798.892334,158.203369 807.797119,158.456055 814.729370,160.562790 
	C824.475830,163.524796 828.598083,153.668427 834.889832,148.982513 
	C843.356567,156.128357 852.848022,158.689621 863.296021,155.115128 
	C873.162659,151.739532 881.213745,145.511139 887.562866,136.514191 
	C888.206604,138.706268 888.316040,140.283997 889.076111,141.430344 
	C890.968933,144.285095 892.590149,148.039261 895.340210,149.464172 
	C902.127869,152.981201 909.380615,155.233414 917.463867,154.142334 
	C922.855835,153.414536 927.670044,152.114456 931.408997,148.130325 
	C938.599670,140.468140 943.367920,131.366211 947.028748,121.583549 
	C948.138550,118.617851 949.243958,115.052277 951.525085,113.233025 
	C958.967346,107.297554 965.825500,100.891342 970.734314,92.732513 
	C974.388977,86.658287 977.412598,80.204376 980.843994,73.678421 
	C978.371033,73.062584 977.071960,72.872078 975.873718,72.416435 
	C971.849243,70.886032 969.262512,71.600090 967.327637,75.993393 
	C965.061523,81.138535 962.142151,86.075150 958.929688,90.701897 
	C955.763306,95.262146 951.876099,99.321877 947.804321,104.201530 
	C945.437012,96.238312 940.797058,93.001099 932.884399,91.953941 
	C926.508362,91.110130 924.817139,95.913795 922.602844,99.954857 
	C918.568176,107.317810 920.705994,112.917023 928.581787,115.779449 
	C931.650452,116.894722 934.914124,117.473610 938.176941,118.319664 
	C936.943665,121.098602 936.025635,123.335342 934.974060,125.507446 
	C930.379761,134.997650 925.948669,144.480896 913.852539,146.747391 
	C907.816162,147.878448 902.618347,146.578781 901.089905,141.917175 
	C898.325256,133.485794 898.435181,124.756500 899.450134,116.070862 
	C900.555542,106.611504 904.919495,98.331100 909.373657,90.094604 
	C914.442078,80.722305 922.866333,75.444321 932.018250,70.925064 
	C934.856873,69.523354 935.985535,70.380951 936.002625,73.316971 
	C936.026794,77.482201 936.008667,81.647682 936.008667,85.677025 
	C937.231445,85.959373 938.087952,86.027901 938.834900,86.350166 
	C944.485474,88.788078 945.372437,88.261734 946.036255,82.128166 
	C946.138367,81.184921 946.991333,80.195663 946.817078,79.371361 
	C945.964539,75.337143 946.108215,69.969429 943.560791,67.708977 
	C940.574463,65.059113 935.234436,64.660149 930.812561,64.107979 
	C919.405396,62.683502 912.084656,70.680504 905.441345,77.552559 
	C895.641846,87.689423 888.793518,100.097443 885.953613,114.271820 
	C885.260132,117.733330 885.540955,121.699173 883.904602,124.606148 
	C878.444763,134.305573 871.132629,142.246338 860.262878,146.290695 
	C853.041931,148.977478 846.262939,145.222717 846.038818,137.833328 
	C845.826355,130.829269 845.938232,123.812912 846.014282,116.803123 
	C846.126343,106.476555 849.166382,96.827927 855.263062,88.722824 
	C860.607910,81.617233 867.666077,76.161987 878.621155,77.181511 
	C878.222656,80.313080 877.999939,83.197899 877.453918,86.020172 
	C876.951782,88.615494 879.514404,94.086632 881.746033,93.663338 
	C883.388000,93.351883 885.335449,90.825226 885.800415,88.951569 
	C886.695618,85.344765 887.048401,81.479546 886.852600,77.762245 
	C886.673889,74.369446 885.271179,71.778214 881.184021,70.442192 
	C866.736572,65.719490 850.118164,72.454903 841.926941,84.162369 
	C833.178406,96.666275 832.381226,111.356453 831.582581,125.482262 
	C830.997742,135.825348 829.110046,143.949875 820.461975,150.041183 
	C817.353027,152.231018 813.812927,154.569748 810.732239,152.552338 
	C808.318176,150.971497 806.142212,146.888275 806.242371,143.999390 
	C806.569641,134.558960 807.709900,125.116661 809.051514,115.748711 
	C810.909363,102.776382 814.896423,90.382233 820.202637,78.392342 
	C820.870972,76.882187 820.532898,74.926620 820.661133,73.177414 
	C818.109375,73.695457 814.035034,73.403152 813.256897,74.865158 
	C808.745422,83.341904 804.057007,91.940804 801.272827,101.061440 
	C798.322876,110.724808 796.012695,120.642456 794.481262,130.824677 
	C793.002319,140.657440 784.668335,146.862411 774.882202,149.970947 
	C768.127075,152.116699 761.633362,148.639236 760.073853,141.855209 
	C759.799866,140.663269 759.973450,139.112701 760.526001,138.025452 
	C767.218079,124.859222 774.239746,111.856583 780.741882,98.598656 
	C790.436279,78.831833 794.991089,57.883022 793.978760,35.818653 
	C793.447449,24.238611 785.882385,17.281996 774.518066,18.099094 
	C772.732361,18.227491 770.370667,19.015795 769.403809,20.329533 
	C765.684937,25.382265 761.756531,30.459740 759.117432,36.095161 
	C750.744507,53.973904 743.253845,72.140472 741.884644,92.285194 
	C740.923462,106.425751 739.372925,120.516327 744.047791,134.279221 
	C745.587708,138.812820 744.724548,142.433731 741.597961,145.815704 
	C738.947937,148.682068 732.994873,149.648529 731.707031,147.220932 
	C725.670227,135.840759 720.943237,123.834747 721.199158,110.872147 
	C721.435547,98.896271 724.998413,87.367256 729.252808,76.111702 
	C730.011414,74.104843 733.772949,70.889969 729.117188,69.085114 
	C723.257202,66.813492 721.456970,67.246658 719.736511,72.643951 
	C718.828735,75.491653 717.504089,78.206490 716.201965,81.385971 
	C715.002258,80.281158 713.840088,79.565071 713.167297,78.530693 
	C710.083130,73.788467 705.953674,70.206718 700.682373,68.399651 
	C695.781616,66.719612 690.580017,63.661137 685.516052,67.986748 
	C679.647827,72.999329 673.382812,77.715096 668.340942,83.478981 
	C663.516846,88.993912 660.040894,95.688148 655.430359,102.024612 
	C655.240417,102.337753 655.050537,102.650902 654.945618,102.959541 
	C654.945618,102.959541 654.928162,102.876259 654.347473,103.155876 
	C654.281006,103.770622 654.214600,104.385376 653.990356,105.396309 
	C653.990356,105.396309 653.966370,105.822083 653.404846,106.020866 
	C653.303833,106.366371 653.202820,106.711884 652.968140,107.421463 
	C652.968140,107.421463 652.962036,107.809227 652.341553,108.088562 
	C652.269958,108.731918 652.198425,109.375267 651.985413,110.411407 
	C651.985413,110.411407 651.964844,110.828377 651.427124,111.014748 
	C651.231384,111.328735 651.035645,111.642723 650.958130,111.957092 
	C650.958130,111.957092 650.946899,111.839447 650.410889,112.013542 
	C650.219604,112.325241 650.028381,112.636940 649.943298,112.949371 
	C649.943298,112.949371 649.929382,112.844170 649.383972,113.038658 
	C649.292297,113.375488 649.200623,113.712326 648.873047,114.599091 
	C648.236572,115.339165 647.600037,116.079247 646.437805,117.030968 
	C646.241760,117.343613 646.045776,117.656258 645.970398,117.972313 
	C645.970398,117.972313 645.966064,117.851662 645.429199,118.039696 
	C645.223328,118.348961 645.017517,118.658218 644.368164,119.050293 
	C644.077881,119.221794 643.942810,119.475822 643.436646,120.027664 
	C643.241028,120.341705 643.045410,120.655746 642.969299,120.972160 
	C642.969299,120.972160 642.963562,120.852844 642.431519,121.033829 
	C642.234253,121.342209 642.036987,121.650589 641.961853,121.963806 
	C641.961853,121.963806 641.956543,121.841721 641.424011,122.033440 
M77.593643,43.008373 
	C76.400696,44.070786 75.207748,45.133194 73.352821,45.884983 
	C72.009445,44.590500 70.889503,42.781925 69.286346,42.085144 
	C59.042778,37.632984 48.979149,32.412849 38.305061,29.395496 
	C25.187210,25.687344 23.479391,27.367828 18.693579,35.782829 
	C17.987450,37.024429 17.500160,38.389389 16.811157,39.642010 
	C10.356215,51.377281 8.437396,64.227783 10.325990,77.071060 
	C12.021732,88.602875 16.850912,99.658600 18.767300,111.178940 
	C19.952755,118.305290 17.997259,125.905945 17.956570,133.296448 
	C17.903645,142.909653 17.574600,152.625504 18.793888,162.113464 
	C20.120878,172.439514 25.259331,181.574341 31.323542,190.770355 
	C36.702850,196.460663 41.440563,203.020447 47.642040,207.596573 
	C53.834259,212.165878 61.731770,214.341003 68.455872,218.290649 
	C81.096275,225.715408 95.025360,226.179886 109.806229,226.995590 
	C112.644264,227.003204 115.485176,227.097610 118.319870,227.004028 
	C133.835526,226.491730 149.332123,227.701569 164.884857,225.228958 
	C179.417618,222.918518 192.254196,217.253174 204.561584,209.821716 
	C207.027359,208.332825 208.956818,205.955719 211.744843,203.750092 
	C214.605530,200.906189 217.837006,198.340790 220.234222,195.148819 
	C223.319061,191.041199 225.715378,186.419022 228.443008,182.040100 
	C234.281723,172.666687 237.136963,162.328384 237.932816,151.439209 
	C238.884293,138.420486 236.298569,125.725700 233.957901,112.259972 
	C234.062134,111.278534 233.845657,110.093803 234.319321,109.346550 
	C240.254562,99.983101 242.196777,89.573891 241.908310,78.763809 
	C241.699051,70.921387 241.152817,63.021206 239.876740,55.292088 
	C238.499588,46.950890 236.530640,38.643131 234.000839,30.577682 
	C232.117676,24.573917 229.824295,24.136042 223.877594,24.977274 
	C210.618118,26.852987 199.344116,33.127529 188.309616,40.139069 
	C185.017426,42.230995 181.442490,43.877972 177.685226,45.105583 
	C172.421066,42.130680 167.156921,39.155777 161.133774,36.015919 
	C154.330612,34.660187 147.553284,33.153877 140.718597,31.981995 
	C128.746704,29.929283 116.668091,30.166084 105.012436,33.250801 
	C95.899406,35.662605 87.231758,39.757320 77.593643,43.008373 
M834.996582,39.652046 
	C835.375427,35.262966 833.165344,32.014938 829.286316,31.052860 
	C824.938110,29.974388 819.250427,28.388256 815.955200,30.241201 
	C809.711609,33.752056 810.756226,42.965950 816.813721,47.325096 
	C821.493164,50.692593 826.869812,50.506725 831.555908,48.450691 
	C833.491150,47.601604 833.895996,43.264553 834.996582,39.652046 
M588.953491,44.415310 
	C587.485229,38.211876 581.588928,34.006401 575.515076,35.076859 
	C571.167786,35.843029 567.958862,38.636971 567.322388,42.840893 
	C566.973938,45.142410 568.172241,49.053211 569.925598,50.062523 
	C578.012878,54.717983 584.823792,56.308384 588.953491,44.415310 
z"/>
<path fill="#CFA7F8" opacity="1.000000" stroke="none" 
	d="
M643.962830,119.812363 
	C643.942810,119.475822 644.077881,119.221794 644.838745,118.887367 
	C645.528259,118.433517 645.747131,118.142586 645.966064,117.851662 
	C645.966064,117.851662 645.970398,117.972313 646.155579,117.842972 
	C646.548401,117.415543 646.755981,117.117439 646.963562,116.819328 
	C647.600037,116.079247 648.236572,115.339165 649.197998,114.178513 
	C649.658447,113.453354 649.793945,113.148766 649.929382,112.844170 
	C649.929382,112.844170 649.943298,112.949371 650.144775,112.843018 
	C650.546509,112.437592 650.746704,112.138527 650.946899,111.839455 
	C650.946899,111.839447 650.958130,111.957092 651.151550,111.841507 
	C651.551636,111.426743 651.758240,111.127563 651.964844,110.828384 
	C651.964844,110.828377 651.985413,110.411407 652.282166,110.002686 
	C652.706604,108.999054 652.834290,108.404137 652.962036,107.809219 
	C652.962036,107.809227 652.968140,107.421463 653.248291,107.089272 
	C653.674377,106.445419 653.820374,106.133751 653.966370,105.822083 
	C653.966370,105.822083 653.990356,105.396309 654.278931,104.988991 
	C654.687744,104.013206 654.807983,103.444740 654.928223,102.876266 
	C654.928162,102.876259 654.945618,102.959541 655.150330,102.848320 
	C655.560852,102.446083 655.766663,102.155060 655.972412,101.864037 
	C660.040894,95.688148 663.516846,88.993912 668.340942,83.478981 
	C673.382812,77.715096 679.647827,72.999329 685.516052,67.986748 
	C690.580017,63.661137 695.781616,66.719612 700.682373,68.399651 
	C705.953674,70.206718 710.083130,73.788467 713.167297,78.530693 
	C713.840088,79.565071 715.002258,80.281158 716.201965,81.385971 
	C717.504089,78.206490 718.828735,75.491653 719.736511,72.643951 
	C721.456970,67.246658 723.257202,66.813492 729.117188,69.085114 
	C733.772949,70.889969 730.011414,74.104843 729.252808,76.111702 
	C724.998413,87.367256 721.435547,98.896271 721.199158,110.872147 
	C720.943237,123.834747 725.670227,135.840759 731.707031,147.220932 
	C732.994873,149.648529 738.947937,148.682068 741.597961,145.815704 
	C744.724548,142.433731 745.587708,138.812820 744.047791,134.279221 
	C739.372925,120.516327 740.923462,106.425751 741.884644,92.285194 
	C743.253845,72.140472 750.744507,53.973904 759.117432,36.095161 
	C761.756531,30.459740 765.684937,25.382265 769.403809,20.329533 
	C770.370667,19.015795 772.732361,18.227491 774.518066,18.099094 
	C785.882385,17.281996 793.447449,24.238611 793.978760,35.818653 
	C794.991089,57.883022 790.436279,78.831833 780.741882,98.598656 
	C774.239746,111.856583 767.218079,124.859222 760.526001,138.025452 
	C759.973450,139.112701 759.799866,140.663269 760.073853,141.855209 
	C761.633362,148.639236 768.127075,152.116699 774.882202,149.970947 
	C784.668335,146.862411 793.002319,140.657440 794.481262,130.824677 
	C796.012695,120.642456 798.322876,110.724808 801.272827,101.061440 
	C804.057007,91.940804 808.745422,83.341904 813.256897,74.865158 
	C814.035034,73.403152 818.109375,73.695457 820.661133,73.177422 
	C820.532898,74.926620 820.870972,76.882187 820.202637,78.392342 
	C814.896423,90.382233 810.909363,102.776382 809.051514,115.748711 
	C807.709900,125.116661 806.569641,134.558960 806.242371,143.999390 
	C806.142212,146.888275 808.318176,150.971497 810.732239,152.552338 
	C813.812927,154.569748 817.353027,152.231018 820.461975,150.041183 
	C829.110046,143.949875 830.997742,135.825348 831.582581,125.482262 
	C832.381226,111.356453 833.178406,96.666275 841.926941,84.162369 
	C850.118164,72.454903 866.736572,65.719490 881.184021,70.442192 
	C885.271179,71.778214 886.673889,74.369446 886.852600,77.762245 
	C887.048401,81.479546 886.695618,85.344765 885.800415,88.951569 
	C885.335449,90.825226 883.388000,93.351883 881.746033,93.663338 
	C879.514404,94.086632 876.951782,88.615494 877.453918,86.020172 
	C877.999939,83.197899 878.222656,80.313080 878.621155,77.181511 
	C867.666077,76.161987 860.607910,81.617233 855.263062,88.722824 
	C849.166382,96.827927 846.126343,106.476555 846.014282,116.803123 
	C845.938232,123.812912 845.826355,130.829269 846.038818,137.833328 
	C846.262939,145.222717 853.041931,148.977478 860.262878,146.290695 
	C871.132629,142.246338 878.444763,134.305573 883.904602,124.606148 
	C885.540955,121.699173 885.260132,117.733330 885.953613,114.271820 
	C888.793518,100.097443 895.641846,87.689423 905.441345,77.552559 
	C912.084656,70.680504 919.405396,62.683502 930.812561,64.107979 
	C935.234436,64.660149 940.574463,65.059113 943.560791,67.708977 
	C946.108215,69.969429 945.964539,75.337143 946.817078,79.371361 
	C946.991333,80.195663 946.138367,81.184921 946.036255,82.128166 
	C945.372437,88.261734 944.485474,88.788078 938.834900,86.350166 
	C938.087952,86.027901 937.231445,85.959373 936.008667,85.677025 
	C936.008667,81.647682 936.026794,77.482201 936.002625,73.316971 
	C935.985535,70.380951 934.856873,69.523354 932.018250,70.925064 
	C922.866333,75.444321 914.442078,80.722305 909.373657,90.094604 
	C904.919495,98.331100 900.555542,106.611504 899.450134,116.070862 
	C898.435181,124.756500 898.325256,133.485794 901.089905,141.917175 
	C902.618347,146.578781 907.816162,147.878448 913.852539,146.747391 
	C925.948669,144.480896 930.379761,134.997650 934.974060,125.507446 
	C936.025635,123.335342 936.943665,121.098602 938.176941,118.319664 
	C934.914124,117.473610 931.650452,116.894722 928.581787,115.779449 
	C920.705994,112.917023 918.568176,107.317810 922.602844,99.954857 
	C924.817139,95.913795 926.508362,91.110130 932.884399,91.953941 
	C940.797058,93.001099 945.437012,96.238312 947.804321,104.201530 
	C951.876099,99.321877 955.763306,95.262146 958.929688,90.701897 
	C962.142151,86.075150 965.061523,81.138535 967.327637,75.993393 
	C969.262512,71.600090 971.849243,70.886032 975.873718,72.416435 
	C977.071960,72.872078 978.371033,73.062584 980.843994,73.678421 
	C977.412598,80.204376 974.388977,86.658287 970.734314,92.732513 
	C965.825500,100.891342 958.967346,107.297554 951.525085,113.233025 
	C949.243958,115.052277 948.138550,118.617851 947.028748,121.583549 
	C943.367920,131.366211 938.599670,140.468140 931.408997,148.130325 
	C927.670044,152.114456 922.855835,153.414536 917.463867,154.142334 
	C909.380615,155.233414 902.127869,152.981201 895.340210,149.464172 
	C892.590149,148.039261 890.968933,144.285095 889.076111,141.430344 
	C888.316040,140.283997 888.206604,138.706268 887.562866,136.514191 
	C881.213745,145.511139 873.162659,151.739532 863.296021,155.115128 
	C852.848022,158.689621 843.356567,156.128357 834.889832,148.982513 
	C828.598083,153.668427 824.475830,163.524796 814.729370,160.562790 
	C807.797119,158.456055 798.892334,158.203369 795.604919,149.317993 
	C778.827087,163.172592 766.010010,163.763214 751.519165,151.303207 
	C747.630127,156.833954 734.150391,160.259109 727.020569,157.507874 
	C718.232971,154.116989 712.138428,148.006195 708.719421,138.543503 
	C701.194092,150.710327 693.163391,162.209717 677.103699,158.355347 
	C663.593689,155.112900 652.803528,147.807571 652.029907,131.062881 
	C645.036316,138.569992 639.252747,145.483078 632.710388,151.582321 
	C627.294067,156.631790 620.558411,160.690628 612.846924,158.765091 
	C607.242004,157.365585 602.174072,153.850021 596.819275,151.380783 
	C595.877075,150.946274 594.700806,151.019302 593.350220,150.632507 
	C592.035095,145.998901 591.002319,141.590744 589.969482,137.182602 
	C591.162170,130.427155 591.714111,123.478767 593.678406,116.955650 
	C598.036804,102.481903 604.824768,89.123375 614.896851,77.694862 
	C623.708008,67.697144 634.065430,65.173271 646.146851,70.131683 
	C653.194641,73.024208 657.008606,83.621658 651.806213,89.718910 
	C651.087585,90.561195 650.640381,91.635063 650.038635,92.650383 
	C648.783813,92.362137 647.503723,92.293907 646.436646,91.781937 
	C642.793274,90.033852 637.493591,89.478065 641.658264,82.873833 
	C642.664246,81.278587 640.235291,77.227448 638.780945,74.646523 
	C638.528931,74.199310 635.057861,75.108681 633.391174,75.991142 
	C623.468628,81.244873 618.363342,90.736656 614.247375,100.304344 
	C610.271790,109.545746 607.604675,119.480682 605.514160,129.354721 
	C604.206360,135.532120 603.117432,142.613846 609.228638,147.616272 
	C610.128723,148.353027 611.921875,148.717545 613.023682,148.370728 
	C619.433167,146.353043 624.882874,142.842270 629.031677,137.415619 
	C632.687134,132.634216 636.483582,127.960541 640.777161,122.984329 
	C641.543213,122.433479 641.749878,122.137596 641.956543,121.841721 
	C641.956543,121.841721 641.961853,121.963806 642.147766,121.844307 
	C642.543640,121.434143 642.753601,121.143486 642.963562,120.852829 
	C642.963562,120.852844 642.969299,120.972160 643.156067,120.842751 
	C643.549500,120.413010 643.756165,120.112686 643.962830,119.812363 
M700.511719,77.038467 
	C698.891113,76.675941 696.669800,75.441429 695.740173,76.081879 
	C682.160583,85.436989 672.182861,97.171417 667.324646,113.640228 
	C664.149658,124.403168 665.809753,133.704010 670.117188,143.060410 
	C673.206848,149.771622 678.369629,150.604248 684.822449,146.719971 
	C692.926025,141.842041 696.137939,133.146271 701.425049,126.074051 
	C702.466309,124.681252 703.739197,123.079201 703.898987,121.473503 
	C704.773987,112.680946 705.288208,103.853249 706.020325,95.045433 
	C706.558167,88.574326 703.974365,83.049606 700.511719,77.038467 
M776.053284,74.583313 
	C779.218628,59.253468 783.457153,43.962933 778.250244,27.908333 
	C762.534729,40.427929 747.004761,104.610260 755.268127,122.275078 
	C763.921875,107.249878 771.081543,91.838455 776.053284,74.583313 
M934.333374,99.051811 
	C931.223083,101.666794 929.978271,105.144035 931.624878,108.708420 
	C932.059509,109.649269 935.682068,109.117485 939.216125,109.353928 
	C937.435730,105.198822 936.213440,102.346298 934.333374,99.051811 
z"/>
<path fill="#B677F7" opacity="1.000000" stroke="none" 
	d="
M589.629639,137.216187 
	C591.002319,141.590744 592.035095,145.998901 593.027954,150.781387 
	C591.516968,152.400391 589.971619,153.568024 588.588135,154.903381 
	C583.193237,160.110672 578.731750,160.395447 570.549255,155.845718 
	C561.404724,150.761093 553.254944,144.927841 554.109314,131.810577 
	C547.609131,136.776764 541.671021,141.309570 535.737183,145.847855 
	C526.752869,152.719223 517.425110,158.808151 506.466278,162.368820 
	C497.878876,165.158997 491.151947,161.316101 484.903778,157.087845 
	C479.314606,153.305496 474.845703,147.867722 469.902802,143.179565 
	C460.433990,154.159225 448.410034,162.123566 431.791901,159.972031 
	C422.717743,158.797226 405.967194,146.492081 402.629395,140.251389 
	C397.668304,144.459610 391.978577,148.766434 386.915344,153.714325 
	C380.810638,159.679947 374.010651,164.734131 365.382812,163.796356 
	C355.867218,162.762100 345.799377,160.718857 339.878204,152.125290 
	C334.600739,144.465881 334.176331,135.269836 335.381836,126.139183 
	C335.759430,123.279068 336.307800,120.441490 336.939270,116.617088 
	C330.008942,119.354050 323.213135,121.343430 317.223511,124.750160 
	C314.875977,126.085365 313.920105,130.484909 313.052795,133.684647 
	C310.814941,141.940506 310.007385,150.732590 306.764343,158.535706 
	C300.538330,173.516144 293.143188,188.020203 285.945618,202.579788 
	C284.392578,205.721359 281.915955,208.578705 279.319275,210.976212 
	C277.325378,212.817200 274.614960,214.367371 271.980865,214.948654 
	C257.961761,218.042358 245.620224,208.199753 246.110046,193.853958 
	C246.711731,176.231857 251.814224,159.679245 260.367950,144.286224 
	C262.946838,139.645370 265.965332,135.106049 269.541290,131.218185 
	C271.529785,129.056244 274.976074,128.010452 277.952209,127.027176 
	C284.692535,124.800278 291.552948,122.938164 298.355591,120.897972 
	C301.093109,120.076965 303.302368,119.058746 303.382874,115.403992 
	C303.449432,112.381828 304.554413,109.382538 305.834991,105.918404 
	C306.647400,103.894760 306.824097,102.325829 307.000824,100.756897 
	C307.000824,100.756897 306.980377,100.376678 307.309448,99.868614 
	C307.478394,91.230965 307.318268,83.101379 307.158142,74.971794 
	C306.777252,69.740463 306.379700,64.510269 306.018707,59.277561 
	C305.141388,46.559868 295.790466,39.361614 283.121216,39.005447 
	C281.793213,38.968109 280.463654,38.981384 279.134796,38.980682 
	C268.397125,38.975018 261.982910,45.532349 261.997253,56.491829 
	C262.002686,60.644428 261.997314,64.797043 262.041199,69.723770 
	C262.432526,70.986397 262.779541,71.474907 263.126556,71.963417 
	C263.468414,71.987312 263.729431,72.145027 263.991455,72.974930 
	C264.412445,74.000191 264.751617,74.487068 265.090759,74.973938 
	C265.090759,74.973938 265.020081,74.983391 265.141724,75.182625 
	C265.544434,75.577904 265.825439,75.773949 266.106476,75.969994 
	C266.106476,75.969994 266.571564,76.034492 267.041992,76.323517 
	C268.368591,76.723946 269.224731,76.835358 270.080902,76.946762 
	C270.080902,76.946762 270.009094,76.988724 270.017212,77.342438 
	C270.013306,78.736244 270.001251,79.776344 269.989227,80.816437 
	C269.545929,80.864906 269.102600,80.913376 268.142212,80.623596 
	C264.056793,78.204979 260.488434,76.124619 256.920074,74.044258 
	C256.920074,74.044258 256.989136,74.008438 256.976044,73.631104 
	C256.848083,72.603195 256.773438,71.942482 256.612335,71.303558 
	C254.280121,62.053082 252.434662,52.822342 258.148254,44.039726 
	C260.369843,40.624805 262.695587,37.277649 264.973907,33.899624 
	C275.758850,34.390522 286.758118,32.520138 297.260376,36.169258 
	C309.441528,40.401737 317.047882,48.875835 318.952423,61.805264 
	C319.716553,66.992844 319.868256,72.298698 319.934021,77.555283 
	C320.074524,88.783852 319.977020,100.015388 319.977020,110.948334 
	C324.523682,109.555725 329.855469,107.556526 335.361633,106.359512 
	C339.305939,105.502045 340.630981,103.100723 342.103058,99.796333 
	C346.826355,89.193886 351.756775,78.667999 357.069550,68.350594 
	C359.670807,63.298866 367.409424,61.174980 372.581879,63.233894 
	C384.787598,68.092453 387.574524,81.213165 379.593262,92.167778 
	C373.215057,100.922127 365.668762,107.312317 355.129669,110.112602 
	C353.921173,110.433708 352.397278,111.864044 352.120117,113.039536 
	C349.306152,124.975349 348.110748,136.958115 353.010468,148.686646 
	C355.252441,154.053284 357.790680,154.843216 363.411438,153.214981 
	C376.444519,149.439499 384.729919,140.165192 391.995544,129.438156 
	C395.807648,123.809952 400.597321,118.828117 404.236511,113.103638 
	C407.056244,108.668137 409.160767,103.667030 410.896027,98.678329 
	C413.697479,90.624405 415.852417,82.404510 421.599304,75.657288 
	C423.622223,73.282242 425.027740,70.093971 425.833984,67.044083 
	C426.802155,63.381744 428.645386,63.553799 431.262238,64.742317 
	C441.139465,69.228302 450.257599,74.934006 457.426514,83.125198 
	C459.996887,86.062057 461.753265,90.012497 462.942474,93.795425 
	C465.566833,102.143440 469.092102,110.383377 468.052368,119.502457 
	C467.975983,120.172630 468.631104,120.926201 469.571442,123.059853 
	C473.686676,114.376671 477.279999,106.715042 480.942108,99.086433 
	C486.298706,87.927940 491.653168,76.767746 497.123871,65.665115 
	C498.597076,62.675224 501.177032,61.395302 504.321045,63.106068 
	C511.698669,67.120453 518.246521,72.084106 522.013733,79.928658 
	C526.199829,88.645569 531.360840,97.057587 534.225098,106.189613 
	C536.185791,112.441055 534.947876,119.696701 535.130981,126.503654 
	C535.157654,127.495834 535.134705,128.489349 535.134705,129.595825 
	C542.377014,125.483101 546.740723,119.003212 551.565552,112.428139 
	C560.197632,100.664711 563.286377,86.755051 569.127686,73.942810 
	C570.070557,71.874847 568.577026,67.271194 572.766663,68.261314 
	C575.861755,68.992767 579.024963,71.368141 581.139648,73.871254 
	C584.452087,77.792107 582.901123,82.681450 581.434265,86.905884 
	C578.367126,95.738754 575.288208,104.633690 571.272095,113.053841 
	C566.462097,123.138824 567.511597,133.194565 569.910645,143.330612 
	C570.346069,145.170471 573.401062,147.848602 574.928345,147.653076 
	C577.683350,147.300323 580.389954,145.325470 582.759094,143.550613 
	C585.161255,141.751068 587.130798,139.373947 589.629639,137.216187 
M434.069092,144.560577 
	C436.532593,144.695938 439.300293,145.605896 441.388489,144.785721 
	C444.546661,143.545303 449.603271,145.875854 450.737915,140.518799 
	C451.944519,134.821960 453.198792,129.113632 453.956787,123.347832 
	C455.521118,111.448227 450.959076,100.500603 447.524139,89.572693 
	C445.824066,84.164017 441.486542,79.584343 437.859772,73.869240 
	C434.697205,79.459038 432.017761,83.489227 430.039520,87.838364 
	C425.922241,96.890175 422.479095,106.257652 418.145996,115.198364 
	C416.072876,119.475945 412.601990,123.076080 409.885132,126.816513 
	C411.143768,128.619003 412.161377,130.078751 413.181427,131.536850 
	C418.110016,138.582184 423.336090,145.149796 434.069092,144.560577 
M508.596130,81.098938 
	C507.876892,80.461769 507.157654,79.824600 506.478149,79.222664 
	C503.594360,84.794586 500.443604,90.075981 498.047241,95.679970 
	C493.035980,107.399162 488.727509,119.431030 480.907166,129.746628 
	C480.134613,130.765671 479.772308,132.637634 480.108398,133.871628 
	C483.561737,146.550247 493.947693,149.948563 505.610443,148.079788 
	C515.125671,146.555099 517.802734,137.861588 519.462463,131.071793 
	C522.735107,117.683594 522.666077,103.855293 514.213135,91.528854 
	C512.131714,88.493599 510.711090,85.005211 508.596130,81.098938 
M287.042969,171.636932 
	C293.077179,158.753998 296.490112,145.137909 299.016998,130.545853 
	C297.723419,131.186325 297.184113,131.545975 296.590363,131.721832 
	C295.970490,131.905457 295.291412,131.877167 294.649780,132.001297 
	C283.565216,134.145386 274.946594,138.812943 269.676178,149.981369 
	C265.187073,159.494110 262.317902,169.221848 259.950012,179.293991 
	C258.254181,186.507355 256.583374,193.700409 259.492950,200.905899 
	C260.262756,202.812302 262.222595,205.806213 263.352234,205.683701 
	C265.972656,205.399536 269.543304,204.187729 270.746460,202.169968 
	C276.529480,192.471466 281.654205,182.380402 287.042969,171.636932 
M360.979828,86.562210 
	C359.849823,89.835457 358.719818,93.108704 357.387268,96.968666 
	C368.100555,92.315216 374.130615,79.081917 369.126282,69.603622 
	C366.154663,75.536285 363.592346,80.651863 360.979828,86.562210 
z"/>
<path fill="#CFA3FC" opacity="1.000000" stroke="none" 
	d="
M31.205929,190.114120 
	C25.259331,181.574341 20.120878,172.439514 18.793888,162.113464 
	C17.574600,152.625504 17.903645,142.909653 17.956570,133.296448 
	C17.997259,125.905945 19.952755,118.305290 18.767300,111.178940 
	C16.850912,99.658600 12.021732,88.602875 10.325990,77.071060 
	C8.437396,64.227783 10.356215,51.377281 16.811157,39.642010 
	C17.500160,38.389389 17.987450,37.024429 18.693579,35.782829 
	C23.479391,27.367828 25.187210,25.687344 38.305061,29.395496 
	C48.979149,32.412849 59.042778,37.632984 69.286346,42.085144 
	C70.889503,42.781925 72.009445,44.590500 73.949783,46.312363 
	C74.866379,51.479904 76.274124,56.471680 75.249855,60.901066 
	C73.725372,67.493614 70.482933,73.688896 67.564835,80.040512 
	C59.773319,77.827927 52.510731,77.980843 45.238647,80.733482 
	C39.756657,82.808533 36.310673,86.339081 35.906075,92.321922 
	C35.514057,98.118607 34.744507,103.966461 35.151653,109.720314 
	C35.619446,116.331253 37.701283,122.437057 42.142288,127.940392 
	C47.006104,133.967682 53.297539,137.186462 60.039104,140.459778 
	C61.710850,145.238419 63.543091,149.585556 65.013641,154.051804 
	C68.057251,163.295593 67.266716,172.606384 64.607956,181.917725 
	C62.153889,181.953217 60.126396,181.706818 58.188206,182.017517 
	C48.843349,183.515427 39.177925,184.021393 31.205929,190.114120 
z"/>
<path fill="#E5CAFE" opacity="1.000000" stroke="none" 
	d="
M177.997101,45.728821 
	C181.442490,43.877972 185.017426,42.230995 188.309616,40.139069 
	C199.344116,33.127529 210.618118,26.852987 223.877594,24.977274 
	C229.824295,24.136042 232.117676,24.573917 234.000839,30.577682 
	C236.530640,38.643131 238.499588,46.950890 239.876740,55.292088 
	C241.152817,63.021206 241.699051,70.921387 241.908310,78.763809 
	C242.196777,89.573891 240.254562,99.983101 234.319321,109.346550 
	C233.845657,110.093803 234.062134,111.278534 233.492172,112.629028 
	C218.474579,114.090973 208.673416,132.644089 211.238846,142.710846 
	C213.461136,151.431046 211.400696,158.378983 204.502029,163.968735 
	C199.103729,168.342834 196.432068,173.912308 196.459717,180.965759 
	C194.983856,181.975388 193.758850,182.826065 192.699142,183.848160 
	C183.959595,192.277542 173.818710,194.309601 162.511871,190.235901 
	C159.847610,189.276016 157.499084,187.439804 155.387238,185.977661 
	C167.814621,183.639740 174.722275,175.352539 178.894150,164.784271 
	C183.814316,152.320419 186.225266,139.376816 182.425079,126.017632 
	C187.423538,123.276840 192.657227,121.232071 196.549026,117.706169 
	C205.776337,109.346321 214.367157,100.283928 223.599396,91.124405 
	C217.526260,78.355614 207.691895,68.021454 196.168808,59.146732 
	C190.204605,54.553288 184.060120,50.193935 177.997101,45.728821 
z"/>
<path fill="#CFA3FC" opacity="1.000000" stroke="none" 
	d="
M155.005325,186.006729 
	C157.499084,187.439804 159.847610,189.276016 162.511871,190.235901 
	C173.818710,194.309601 183.959595,192.277542 192.699142,183.848160 
	C193.758850,182.826065 194.983856,181.975388 196.575012,181.337402 
	C198.111069,184.571930 198.695709,187.859314 200.407043,190.382523 
	C203.640411,195.149811 207.521622,199.477692 211.133575,203.988190 
	C208.956818,205.955719 207.027359,208.332825 204.561584,209.821716 
	C192.254196,217.253174 179.417618,222.918518 164.884857,225.228958 
	C149.332123,227.701569 133.835526,226.491730 118.319870,227.004028 
	C115.485176,227.097610 112.644264,227.003204 109.725174,226.661255 
	C111.793144,226.217941 113.941010,226.063904 116.091408,226.008865 
	C121.379341,225.873520 122.410080,224.950226 119.979103,220.127930 
	C117.746674,215.699509 114.051300,212.008575 111.142174,207.666214 
	C115.927917,194.698486 126.094147,188.696793 138.580139,184.970062 
	C144.332916,185.306763 149.669113,185.656738 155.005325,186.006729 
z"/>
<path fill="#CFA2FD" opacity="1.000000" stroke="none" 
	d="
M177.841156,45.417202 
	C184.060120,50.193935 190.204605,54.553288 196.168808,59.146732 
	C207.691895,68.021454 217.526260,78.355614 223.599396,91.124405 
	C214.367157,100.283928 205.776337,109.346321 196.549026,117.706169 
	C192.657227,121.232071 187.423538,123.276840 182.420898,125.773697 
	C182.041977,125.552505 182.053085,125.065277 182.336899,124.877151 
	C185.552277,118.827217 188.587341,113.014442 191.392151,107.092606 
	C196.102768,97.147026 196.574890,86.632263 194.925583,75.974548 
	C193.989868,69.928009 189.374527,65.529800 183.224548,64.889984 
	C167.785385,63.283745 152.842590,65.390785 138.621872,71.757133 
	C135.470932,73.167747 131.796021,74.434929 129.673996,76.898132 
	C125.546814,81.688843 120.685158,82.626595 115.279861,81.699135 
	C117.165047,81.148048 118.752579,80.853790 120.581566,80.514786 
	C121.036095,71.922569 121.486427,63.409771 122.119080,54.607590 
	C127.945221,50.306171 134.391495,46.728783 141.086670,48.358345 
	C151.273849,50.837837 155.898666,46.135670 161.892761,36.180874 
	C167.156921,39.155777 172.421066,42.130680 177.841156,45.417202 
z"/>
<path fill="#B674FB" opacity="1.000000" stroke="none" 
	d="
M211.439209,203.869141 
	C207.521622,199.477692 203.640411,195.149811 200.407043,190.382523 
	C198.695709,187.859314 198.111069,184.571930 196.902481,181.257874 
	C196.432068,173.912308 199.103729,168.342834 204.502029,163.968735 
	C211.400696,158.378983 213.461136,151.431046 211.238846,142.710846 
	C208.673416,132.644089 218.474579,114.090973 233.411209,113.023254 
	C236.298569,125.725700 238.884293,138.420486 237.932816,151.439209 
	C237.136963,162.328384 234.281723,172.666687 228.443008,182.040100 
	C225.715378,186.419022 223.319061,191.041199 220.234222,195.148819 
	C217.837006,198.340790 214.605530,200.906189 211.439209,203.869141 
z"/>
<path fill="#B674FC" opacity="1.000000" stroke="none" 
	d="
M111.000458,207.992722 
	C114.051300,212.008575 117.746674,215.699509 119.979103,220.127930 
	C122.410080,224.950226 121.379341,225.873520 116.091408,226.008865 
	C113.941010,226.063904 111.793144,226.217941 109.319565,226.580948 
	C95.025360,226.179886 81.096275,225.715408 68.455872,218.290649 
	C61.731770,214.341003 53.834259,212.165878 47.642040,207.596573 
	C41.440563,203.020447 36.702850,196.460663 31.264736,190.442230 
	C39.177925,184.021393 48.843349,183.515427 58.188206,182.017517 
	C60.126396,181.706818 62.153889,181.953217 64.969955,182.014893 
	C73.901772,183.556519 80.135956,187.943726 84.869171,194.525314 
	C91.309074,203.480072 100.638443,206.709885 111.000458,207.992722 
z"/>
<path fill="#B674FC" opacity="1.000000" stroke="none" 
	d="
M161.513275,36.098396 
	C155.898666,46.135670 151.273849,50.837837 141.086670,48.358345 
	C134.391495,46.728783 127.945221,50.306171 121.831657,54.779289 
	C119.117340,57.438480 117.230759,60.368771 114.551857,61.678600 
	C109.360840,64.216713 103.709724,67.523766 98.275055,67.477577 
	C88.634857,67.395660 77.938416,53.142376 78.366219,43.104263 
	C87.231758,39.757320 95.899406,35.662605 105.012436,33.250801 
	C116.668091,30.166084 128.746704,29.929283 140.718597,31.981995 
	C147.553284,33.153877 154.330612,34.660187 161.513275,36.098396 
z"/>
<path fill="#E5C7FE" opacity="1.000000" stroke="none" 
	d="
M77.979935,43.056320 
	C77.938416,53.142376 88.634857,67.395660 98.275055,67.477577 
	C103.709724,67.523766 109.360840,64.216713 114.551857,61.678600 
	C117.230759,60.368771 119.117340,57.438480 121.649338,55.068672 
	C121.486427,63.409771 121.036095,71.922569 120.581566,80.514786 
	C118.752579,80.853790 117.165047,81.148048 114.907654,81.762924 
	C107.173149,85.100006 100.077835,87.629524 92.361031,84.210808 
	C91.505081,83.831612 90.381065,84.109077 89.407433,83.935677 
	C82.258415,82.662476 75.116035,81.351982 67.971565,80.053238 
	C70.482933,73.688896 73.725372,67.493614 75.249855,60.901066 
	C76.274124,56.471680 74.866379,51.479904 74.280762,46.467674 
	C75.207748,45.133194 76.400696,44.070786 77.979935,43.056320 
z"/>
<path fill="#CEA6F7" opacity="1.000000" stroke="none" 
	d="
M834.996704,40.082970 
	C833.895996,43.264553 833.491150,47.601604 831.555908,48.450691 
	C826.869812,50.506725 821.493164,50.692593 816.813721,47.325096 
	C810.756226,42.965950 809.711609,33.752056 815.955200,30.241201 
	C819.250427,28.388256 824.938110,29.974388 829.286316,31.052860 
	C833.165344,32.014938 835.375427,35.262966 834.996704,40.082970 
z"/>
<path fill="#B579F4" opacity="1.000000" stroke="none" 
	d="
M588.939209,44.813900 
	C584.823792,56.308384 578.012878,54.717983 569.925598,50.062523 
	C568.172241,49.053211 566.973938,45.142410 567.322388,42.840893 
	C567.958862,38.636971 571.167786,35.843029 575.515076,35.076859 
	C581.588928,34.006401 587.485229,38.211876 588.939209,44.813900 
z"/>
<path fill="#B382EA" opacity="1.000000" stroke="none" 
	d="
M264.617493,33.933800 
	C262.695587,37.277649 260.369843,40.624805 258.148254,44.039726 
	C252.434662,52.822342 254.280121,62.053082 256.612335,71.303558 
	C256.773438,71.942482 256.848083,72.603195 256.957886,73.665497 
	C255.962204,72.048500 254.759338,70.090385 254.052994,67.967094 
	C253.552750,66.463356 253.990555,64.660355 253.552368,63.121109 
	C250.583359,52.691818 254.984177,40.571606 264.617493,33.933800 
z"/>
<path fill="#B382EA" opacity="1.000000" stroke="none" 
	d="
M256.957092,74.402893 
	C260.488434,76.124619 264.056793,78.204979 267.811157,80.564438 
	C263.184845,80.886993 259.362213,79.139938 256.957092,74.402893 
z"/>
<path fill="#D5AEFA" opacity="1.000000" stroke="none" 
	d="
M307.076843,75.438461 
	C307.318268,83.101379 307.478394,91.230965 307.388916,99.695610 
	C307.091370,91.988823 307.043457,83.946983 307.076843,75.438461 
z"/>
<path fill="#B382EA" opacity="1.000000" stroke="none" 
	d="
M270.311157,80.820206 
	C270.001251,79.776344 270.013306,78.736244 270.037628,77.306213 
	C270.989685,77.286102 271.929443,77.655945 273.136444,78.130951 
	C272.091705,79.254868 271.362396,80.039421 270.311157,80.820206 
z"/>
<path fill="#D5AEFA" opacity="1.000000" stroke="none" 
	d="
M306.639740,100.953079 
	C306.824097,102.325829 306.647400,103.894760 306.187927,105.732712 
	C306.029694,104.384247 306.154175,102.766754 306.639740,100.953079 
z"/>
<path fill="#B382EA" opacity="1.000000" stroke="none" 
	d="
M269.926941,76.629333 
	C269.224731,76.835358 268.368591,76.723946 267.264221,76.399139 
	C267.935028,76.227806 268.853973,76.269859 269.926941,76.629333 
z"/>
<path fill="#DCC3F5" opacity="1.000000" stroke="none" 
	d="
M652.651733,107.948891 
	C652.834290,108.404137 652.706604,108.999054 652.352905,109.806297 
	C652.198425,109.375267 652.269958,108.731918 652.651733,107.948891 
z"/>
<path fill="#B382EA" opacity="1.000000" stroke="none" 
	d="
M265.051086,74.653770 
	C264.751617,74.487068 264.412445,74.000191 264.053711,73.202690 
	C264.359894,73.372574 264.685669,73.853088 265.051086,74.653770 
z"/>
<path fill="#DCC3F5" opacity="1.000000" stroke="none" 
	d="
M654.637817,103.016068 
	C654.807983,103.444740 654.687744,104.013206 654.357849,104.790901 
	C654.214600,104.385376 654.281006,103.770622 654.637817,103.016068 
z"/>
<path fill="#B382EA" opacity="1.000000" stroke="none" 
	d="
M263.081177,71.641373 
	C262.779541,71.474907 262.432526,70.986397 262.063507,70.183411 
	C262.372955,70.352402 262.704376,70.835861 263.081177,71.641373 
z"/>
<path fill="#DCC3F5" opacity="1.000000" stroke="none" 
	d="
M650.678894,111.926498 
	C650.746704,112.138527 650.546509,112.437592 650.091736,112.842651 
	C650.028381,112.636940 650.219604,112.325241 650.678894,111.926498 
z"/>
<path fill="#DCC3F5" opacity="1.000000" stroke="none" 
	d="
M649.656677,112.941414 
	C649.793945,113.148766 649.658447,113.453354 649.315918,113.903549 
	C649.200623,113.712326 649.292297,113.375488 649.656677,112.941414 
z"/>
<path fill="#DCC3F5" opacity="1.000000" stroke="none" 
	d="
M646.700684,116.925156 
	C646.755981,117.117439 646.548401,117.415543 646.095215,117.841278 
	C646.045776,117.656258 646.241760,117.343613 646.700684,116.925156 
z"/>
<path fill="#DCC3F5" opacity="1.000000" stroke="none" 
	d="
M645.697632,117.945679 
	C645.747131,118.142586 645.528259,118.433517 645.060486,118.845963 
	C645.017517,118.658218 645.223328,118.348961 645.697632,117.945679 
z"/>
<path fill="#DCC3F5" opacity="1.000000" stroke="none" 
	d="
M643.699707,119.920013 
	C643.756165,120.112686 643.549500,120.413010 643.096313,120.841560 
	C643.045410,120.655746 643.241028,120.341705 643.699707,119.920013 
z"/>
<path fill="#DCC3F5" opacity="1.000000" stroke="none" 
	d="
M642.697510,120.943329 
	C642.753601,121.143486 642.543640,121.434143 642.086731,121.841888 
	C642.036987,121.650589 642.234253,121.342209 642.697510,120.943329 
z"/>
<path fill="#DCC3F5" opacity="1.000000" stroke="none" 
	d="
M641.690308,121.937576 
	C641.749878,122.137596 641.543213,122.433479 641.089722,122.849663 
	C641.036621,122.657784 641.230347,122.345612 641.690308,121.937576 
z"/>
<path fill="#DCC3F5" opacity="1.000000" stroke="none" 
	d="
M651.695984,110.921570 
	C651.758240,111.127563 651.551636,111.426743 651.092407,111.841316 
	C651.035645,111.642723 651.231384,111.328735 651.695984,110.921570 
z"/>
<path fill="#B382EA" opacity="1.000000" stroke="none" 
	d="
M266.021790,75.712044 
	C265.825439,75.773949 265.544434,75.577904 265.148071,75.147545 
	C265.334229,75.093513 265.635681,75.273804 266.021790,75.712044 
z"/>
<path fill="#DCC3F5" opacity="1.000000" stroke="none" 
	d="
M653.685608,105.921478 
	C653.820374,106.133751 653.674377,106.445419 653.315063,106.907242 
	C653.202820,106.711884 653.303833,106.366371 653.685608,105.921478 
z"/>
<path fill="#DCC3F5" opacity="1.000000" stroke="none" 
	d="
M655.701416,101.944328 
	C655.766663,102.155060 655.560852,102.446083 655.107788,102.850571 
	C655.050537,102.650902 655.240417,102.337753 655.701416,101.944328 
z"/>
<path fill="#000000" opacity="1.000000" stroke="none" 
	d="
M700.763855,77.323402 
	C703.974365,83.049606 706.558167,88.574326 706.020325,95.045433 
	C705.288208,103.853249 704.773987,112.680946 703.898987,121.473503 
	C703.739197,123.079201 702.466309,124.681252 701.425049,126.074051 
	C696.137939,133.146271 692.926025,141.842041 684.822449,146.719971 
	C678.369629,150.604248 673.206848,149.771622 670.117188,143.060410 
	C665.809753,133.704010 664.149658,124.403168 667.324646,113.640228 
	C672.182861,97.171417 682.160583,85.436989 695.740173,76.081879 
	C696.669800,75.441429 698.891113,76.675941 700.763855,77.323402 
z"/>
<path fill="#000000" opacity="1.000000" stroke="none" 
	d="
M776.026001,75.001175 
	C771.081543,91.838455 763.921875,107.249878 755.268127,122.275078 
	C747.004761,104.610260 762.534729,40.427929 778.250244,27.908333 
	C783.457153,43.962933 779.218628,59.253468 776.026001,75.001175 
z"/>
<path fill="#000000" opacity="1.000000" stroke="none" 
	d="
M934.662292,99.272797 
	C936.213440,102.346298 937.435730,105.198822 939.216125,109.353928 
	C935.682068,109.117485 932.059509,109.649269 931.624878,108.708420 
	C929.978271,105.144035 931.223083,101.666794 934.662292,99.272797 
z"/>
<path fill="#000000" opacity="1.000000" stroke="none" 
	d="
M433.695862,144.311157 
	C423.336090,145.149796 418.110016,138.582184 413.181427,131.536850 
	C412.161377,130.078751 411.143768,128.619003 409.885132,126.816513 
	C412.601990,123.076080 416.072876,119.475945 418.145996,115.198364 
	C422.479095,106.257652 425.922241,96.890175 430.039520,87.838364 
	C432.017761,83.489227 434.697205,79.459038 437.859772,73.869240 
	C441.486542,79.584343 445.824066,84.164017 447.524139,89.572693 
	C450.959076,100.500603 455.521118,111.448227 453.956787,123.347832 
	C453.198792,129.113632 451.944519,134.821960 450.737915,140.518799 
	C449.603271,145.875854 444.546661,143.545303 441.388489,144.785721 
	C439.300293,145.605896 436.532593,144.695938 433.695862,144.311157 
z"/>
<path fill="#000000" opacity="1.000000" stroke="none" 
	d="
M508.791382,81.412048 
	C510.711090,85.005211 512.131714,88.493599 514.213135,91.528854 
	C522.666077,103.855293 522.735107,117.683594 519.462463,131.071793 
	C517.802734,137.861588 515.125671,146.555099 505.610443,148.079788 
	C493.947693,149.948563 483.561737,146.550247 480.108398,133.871628 
	C479.772308,132.637634 480.134613,130.765671 480.907166,129.746628 
	C488.727509,119.431030 493.035980,107.399162 498.047241,95.679970 
	C500.443604,90.075981 503.594360,84.794586 506.478149,79.222664 
	C507.157654,79.824600 507.876892,80.461769 508.791382,81.412048 
z"/>
<path fill="#000000" opacity="1.000000" stroke="none" 
	d="
M287.027802,172.032822 
	C281.654205,182.380402 276.529480,192.471466 270.746460,202.169968 
	C269.543304,204.187729 265.972656,205.399536 263.352234,205.683701 
	C262.222595,205.806213 260.262756,202.812302 259.492950,200.905899 
	C256.583374,193.700409 258.254181,186.507355 259.950012,179.293991 
	C262.317902,169.221848 265.187073,159.494110 269.676178,149.981369 
	C274.946594,138.812943 283.565216,134.145386 294.649780,132.001297 
	C295.291412,131.877167 295.970490,131.905457 296.590363,131.721832 
	C297.184113,131.545975 297.723419,131.186325 299.016998,130.545853 
	C296.490112,145.137909 293.077179,158.753998 287.027802,172.032822 
z"/>
<path fill="#000000" opacity="1.000000" stroke="none" 
	d="
M361.004913,86.164825 
	C363.592346,80.651863 366.154663,75.536285 369.126282,69.603622 
	C374.130615,79.081917 368.100555,92.315216 357.387268,96.968666 
	C358.719818,93.108704 359.849823,89.835457 361.004913,86.164825 
z"/>
<path fill="#9E48FA" opacity="1.000000" stroke="none" 
	d="
M67.564835,80.040512 
	C75.116035,81.351982 82.258415,82.662476 89.407433,83.935677 
	C90.381065,84.109077 91.505081,83.831612 92.361031,84.210808 
	C100.077835,87.629524 107.173149,85.100006 114.610008,82.019760 
	C120.685158,82.626595 125.546814,81.688843 129.673996,76.898132 
	C131.796021,74.434929 135.470932,73.167747 138.621872,71.757133 
	C152.842590,65.390785 167.785385,63.283745 183.224548,64.889984 
	C189.374527,65.529800 193.989868,69.928009 194.925583,75.974548 
	C196.574890,86.632263 196.102768,97.147026 191.392151,107.092606 
	C188.587341,113.014442 185.552277,118.827217 181.988373,124.823120 
	C178.263931,121.670570 175.171860,118.383934 172.353317,114.901222 
	C174.761688,111.678146 177.573471,108.910973 178.860214,105.558464 
	C180.474289,101.353134 180.837936,96.667877 181.820175,91.740669 
	C181.837067,89.796722 181.775009,88.301849 181.703598,86.434006 
	C180.962204,82.684418 180.753174,79.060112 179.312866,76.018929 
	C178.364517,74.016502 175.591919,71.464653 173.722244,71.532433 
	C156.631866,72.152039 142.094147,79.098404 130.094589,91.080574 
	C127.930016,93.242027 127.365372,97.005745 126.036949,100.480286 
	C125.088478,107.469810 127.440880,113.149742 130.377899,118.796036 
	C134.608109,126.928398 137.851715,128.798538 146.809372,128.029343 
	C146.463699,131.410858 146.229996,134.373779 145.579147,137.282135 
	C137.623367,134.368454 128.314590,133.363129 122.943321,128.234222 
	C113.926491,119.624229 111.905212,107.084129 112.466110,93.937202 
	C110.391426,95.019150 108.526375,96.367233 108.287697,97.959152 
	C107.261673,104.802444 107.235542,111.822922 105.869133,118.581520 
	C103.813293,128.750168 98.049194,136.345917 88.005768,139.895020 
	C86.622536,140.441208 85.263351,141.272583 83.496841,142.147903 
	C75.121758,144.583298 67.615799,141.928360 60.035831,140.082214 
	C53.297539,137.186462 47.006104,133.967682 42.142288,127.940392 
	C37.701283,122.437057 35.619446,116.331253 35.151653,109.720314 
	C34.744507,103.966461 35.514057,98.118607 35.906075,92.321922 
	C36.310673,86.339081 39.756657,82.808533 45.238647,80.733482 
	C52.510731,77.980843 59.773319,77.827927 67.564835,80.040512 
M54.260078,123.660995 
	C55.285400,124.939796 56.074852,126.570442 57.373726,127.441200 
	C66.909721,133.834045 84.341682,131.430710 90.949203,122.021614 
	C93.920441,117.790550 95.129623,112.110512 96.336502,106.902145 
	C98.098045,99.300087 95.651573,95.402908 88.048073,93.873840 
	C78.817802,92.017647 69.450691,90.841919 59.216900,89.123978 
	C56.247021,89.069885 53.202583,88.601906 50.335495,89.118401 
	C48.641365,89.423607 46.405739,90.971893 45.821266,92.499680 
	C41.970970,102.564194 45.661247,115.782021 54.260078,123.660995 
z"/>
<path fill="#E5C7FE" opacity="1.000000" stroke="none" 
	d="
M60.039104,140.459778 
	C67.615799,141.928360 75.121758,144.583298 83.458374,142.505707 
	C82.250053,151.231628 80.079956,159.594986 79.383316,168.079346 
	C79.098915,171.542999 81.098007,176.201843 83.647591,178.685165 
	C89.327393,184.217407 96.821922,187.013062 104.731400,187.765564 
	C106.852997,187.967407 109.681442,186.607758 111.295311,185.045471 
	C114.565285,181.880005 117.226707,178.085922 120.233406,174.436432 
	C126.036400,177.849869 132.099991,181.416611 138.163589,184.983368 
	C126.094147,188.696793 115.927917,194.698486 111.142166,207.666214 
	C100.638443,206.709885 91.309074,203.480072 84.869171,194.525314 
	C80.135956,187.943726 73.901772,183.556519 65.437683,181.989746 
	C67.266716,172.606384 68.057251,163.295593 65.013641,154.051804 
	C63.543091,149.585556 61.710850,145.238419 60.039104,140.459778 
z"/>
<path fill="#B675FB" opacity="1.000000" stroke="none" 
	d="
M138.580139,184.970062 
	C132.099991,181.416611 126.036400,177.849869 120.233406,174.436432 
	C117.226707,178.085922 114.565285,181.880005 111.295311,185.045471 
	C109.681442,186.607758 106.852997,187.967407 104.731400,187.765564 
	C96.821922,187.013062 89.327393,184.217407 83.647591,178.685165 
	C81.098007,176.201843 79.098915,171.542999 79.383316,168.079346 
	C80.079956,159.594986 82.250053,151.231628 83.865707,142.461777 
	C85.263351,141.272583 86.622536,140.441208 88.026596,140.334045 
	C87.880394,144.037567 87.851051,147.037888 87.467812,149.992279 
	C86.334465,158.729233 88.121941,166.961273 92.488205,174.407623 
	C93.893875,176.804886 97.405655,179.516647 99.767075,179.354980 
	C101.993263,179.202591 104.804619,175.804062 105.880737,173.218475 
	C107.834129,168.525055 108.348709,163.246338 110.147766,158.469498 
	C111.059914,156.047577 114.258476,152.117889 115.057648,152.424927 
	C118.888412,153.896545 123.443901,154.005951 125.563110,159.377899 
	C128.211807,166.092102 132.315536,172.618088 139.709106,175.308136 
	C148.206299,178.399719 159.016098,173.414948 163.428223,165.335251 
	C168.388412,156.251831 168.814865,146.302963 169.447205,136.384674 
	C169.494675,135.639847 167.852615,134.787277 167.142288,133.670502 
	C166.254745,130.815735 165.636017,127.958336 164.030060,125.854553 
	C163.078506,124.608032 160.109512,123.596725 158.871872,124.192329 
	C157.194977,124.999321 155.297882,127.460800 155.319550,129.189697 
	C155.351944,131.775421 156.972443,134.341248 157.918976,137.303925 
	C159.984528,139.633957 162.048523,141.575592 164.633591,144.007416 
	C164.503586,144.264282 164.215637,145.723373 163.328354,146.431427 
	C159.596466,149.409470 149.321213,146.450714 147.544571,141.992554 
	C146.940125,140.475800 146.507462,138.890610 145.996292,137.336685 
	C146.229996,134.373779 146.463699,131.410858 146.812866,127.690529 
	C148.303574,124.305695 149.678833,121.678291 151.350525,118.882599 
	C154.427200,115.682175 157.556778,113.416550 161.984299,113.939957 
	C165.348053,114.337624 168.714508,114.712357 172.079773,115.097290 
	C175.171860,118.383934 178.263931,121.670570 181.704559,125.011246 
	C182.053085,125.065277 182.041977,125.552505 182.046143,125.796448 
	C186.225266,139.376816 183.814316,152.320419 178.894150,164.784271 
	C174.722275,175.352539 167.814621,183.639740 155.387238,185.977661 
	C149.669113,185.656738 144.332916,185.306763 138.580139,184.970062 
z"/>
<path fill="#E5C7FE" opacity="1.000000" stroke="none" 
	d="
M145.579147,137.282135 
	C146.507462,138.890610 146.940125,140.475800 147.544571,141.992554 
	C149.321213,146.450714 159.596466,149.409470 163.328354,146.431427 
	C164.215637,145.723373 164.503586,144.264282 164.633591,144.007416 
	C162.048523,141.575592 159.984528,139.633957 158.299683,137.284943 
	C161.451202,135.913300 164.223572,134.949051 166.995941,133.984802 
	C167.852615,134.787277 169.494675,135.639847 169.447205,136.384674 
	C168.814865,146.302963 168.388412,156.251831 163.428223,165.335251 
	C159.016098,173.414948 148.206299,178.399719 139.709106,175.308136 
	C132.315536,172.618088 128.211807,166.092102 125.563110,159.377899 
	C123.443901,154.005951 118.888412,153.896545 115.057648,152.424927 
	C114.258476,152.117889 111.059914,156.047577 110.147766,158.469498 
	C108.348709,163.246338 107.834129,168.525055 105.880737,173.218475 
	C104.804619,175.804062 101.993263,179.202591 99.767075,179.354980 
	C97.405655,179.516647 93.893875,176.804886 92.488205,174.407623 
	C88.121941,166.961273 86.334465,158.729233 87.467812,149.992279 
	C87.851051,147.037888 87.880394,144.037567 88.050644,140.619232 
	C98.049194,136.345917 103.813293,128.750168 105.869133,118.581520 
	C107.235542,111.822922 107.261673,104.802444 108.287697,97.959152 
	C108.526375,96.367233 110.391426,95.019150 112.466110,93.937202 
	C111.905212,107.084129 113.926491,119.624229 122.943321,128.234222 
	C128.314590,133.363129 137.623367,134.368454 145.579147,137.282135 
z"/>
<path fill="#E5C5FE" opacity="1.000000" stroke="none" 
	d="
M60.142788,89.371780 
	C69.450691,90.841919 78.817802,92.017647 88.048073,93.873840 
	C95.651573,95.402908 98.098045,99.300087 96.336502,106.902145 
	C95.129623,112.110512 93.920441,117.790550 90.949203,122.021614 
	C84.341682,131.430710 66.909721,133.834045 57.373726,127.441200 
	C56.074852,126.570442 55.285400,124.939796 54.137184,122.880524 
	C54.019627,117.411606 54.024960,112.723160 54.371193,107.856621 
	C66.594780,103.322411 76.798691,106.504349 86.041451,114.479050 
	C87.210037,115.487320 89.003754,115.771057 90.507843,116.390472 
	C90.651711,114.262314 91.250008,112.027580 90.784409,110.042366 
	C90.457848,108.649994 88.769394,107.496933 87.536530,106.410126 
	C79.075333,98.951378 68.961716,96.628761 58.040997,96.667099 
	C58.773678,93.991547 59.458233,91.681664 60.142788,89.371780 
z"/>
<path fill="#CFA1FD" opacity="1.000000" stroke="none" 
	d="
M172.353317,114.901222 
	C168.714508,114.712357 165.348053,114.337624 161.984299,113.939957 
	C157.556778,113.416550 154.427200,115.682175 151.298325,118.532440 
	C147.498383,113.513809 143.599396,109.345154 137.211823,108.755592 
	C146.308853,97.917122 156.881226,90.757553 171.546219,91.977730 
	C174.927032,92.259018 178.341995,92.129967 181.741241,92.189751 
	C180.837936,96.667877 180.474289,101.353134 178.860214,105.558464 
	C177.573471,108.910973 174.761688,111.678146 172.353317,114.901222 
z"/>
<path fill="#B674FC" opacity="1.000000" stroke="none" 
	d="
M181.820190,91.740669 
	C178.341995,92.129967 174.927032,92.259018 171.546219,91.977730 
	C156.881226,90.757553 146.308853,97.917122 137.044189,109.045593 
	C135.435593,110.169205 133.352753,111.475937 132.931656,111.067863 
	C131.659546,109.835106 130.687454,108.019218 130.268448,106.270126 
	C129.958588,104.976662 130.696548,103.432198 131.270233,101.849136 
	C139.065384,91.974007 148.029037,84.063225 160.471146,81.968292 
	C166.968597,80.874298 174.634521,77.442520 179.536392,85.852783 
	C179.858749,86.405823 180.969116,86.499588 181.712936,86.806984 
	C181.775009,88.301849 181.837067,89.796722 181.820190,91.740669 
z"/>
<path fill="#CE9DFE" opacity="1.000000" stroke="none" 
	d="
M181.703598,86.434006 
	C180.969116,86.499588 179.858749,86.405823 179.536392,85.852783 
	C174.634521,77.442520 166.968597,80.874298 160.471146,81.968292 
	C148.029037,84.063225 139.065384,91.974007 130.935013,101.809250 
	C128.885498,101.289772 127.473785,100.659752 126.062065,100.029724 
	C127.365372,97.005745 127.930016,93.242027 130.094589,91.080574 
	C142.094147,79.098404 156.631866,72.152039 173.722244,71.532433 
	C175.591919,71.464653 178.364517,74.016502 179.312866,76.018929 
	C180.753174,79.060112 180.962204,82.684418 181.703598,86.434006 
z"/>
<path fill="#E5C5FD" opacity="1.000000" stroke="none" 
	d="
M126.036949,100.480286 
	C127.473785,100.659752 128.885498,101.289772 130.632446,101.959671 
	C130.696548,103.432198 129.958588,104.976662 130.268448,106.270126 
	C130.687454,108.019218 131.659546,109.835106 132.931656,111.067863 
	C133.352753,111.475937 135.435593,110.169205 136.926300,109.356499 
	C143.599396,109.345154 147.498383,113.513809 151.001892,118.700729 
	C149.678833,121.678291 148.303574,124.305695 146.924835,127.271912 
	C137.851715,128.798538 134.608109,126.928398 130.377899,118.796036 
	C127.440880,113.149742 125.088478,107.469810 126.036949,100.480286 
z"/>
<path fill="#CF9EFD" opacity="1.000000" stroke="none" 
	d="
M59.679844,89.247879 
	C59.458233,91.681664 58.773678,93.991547 57.778938,96.914207 
	C51.329960,97.765800 50.013756,102.546547 47.763210,107.708939 
	C50.284805,107.840019 52.157547,107.937370 54.030289,108.034721 
	C54.024960,112.723160 54.019627,117.411606 53.991928,122.569290 
	C45.661247,115.782021 41.970970,102.564194 45.821266,92.499680 
	C46.405739,90.971893 48.641365,89.423607 50.335495,89.118401 
	C53.202583,88.601906 56.247021,89.069885 59.679844,89.247879 
z"/>
<path fill="#9D48F9" opacity="1.000000" stroke="none" 
	d="
M167.142288,133.670502 
	C164.223572,134.949051 161.451202,135.913300 158.298126,136.896545 
	C156.972443,134.341248 155.351944,131.775421 155.319550,129.189697 
	C155.297882,127.460800 157.194977,124.999321 158.871872,124.192329 
	C160.109512,123.596725 163.078506,124.608032 164.030060,125.854553 
	C165.636017,127.958336 166.254745,130.815735 167.142288,133.670502 
z"/>
<path fill="#B677F9" opacity="1.000000" stroke="none" 
	d="
M54.371193,107.856621 
	C52.157547,107.937370 50.284805,107.840019 47.763210,107.708939 
	C50.013756,102.546547 51.329960,97.765800 57.730812,97.279869 
	C68.961716,96.628761 79.075333,98.951378 87.536530,106.410126 
	C88.769394,107.496933 90.457848,108.649994 90.784409,110.042366 
	C91.250008,112.027580 90.651711,114.262314 90.507843,116.390472 
	C89.003754,115.771057 87.210037,115.487320 86.041451,114.479050 
	C76.798691,106.504349 66.594780,103.322411 54.371193,107.856621 
z"/>
</svg>