<svg version="1.1" id="Layer_1" xmlns="http://www.w3.org/2000/svg" xmlns:xlink="http://www.w3.org/1999/xlink" x="0px" y="0px"
	 width="100%" viewBox="0 0 785 318" enable-background="new 0 0 785 318" xml:space="preserve">
<path fill="#000000" opacity="1.000000" stroke="none" 
	d="
M587.000000,319.000000 
	C391.377533,319.000000 196.255081,319.000000 1.066307,319.000000 
	C1.066307,213.068253 1.066307,107.136444 1.066307,1.102320 
	C262.666656,1.102320 524.333313,1.102320 785.977295,1.102320 
	C785.977295,107.078300 785.977295,213.039154 785.977295,319.000000 
	C719.803040,319.000000 653.651550,319.000000 587.000000,319.000000 
M289.029877,232.031906 
	C289.029877,232.031906 289.044678,232.121643 289.600800,231.946350 
	C289.681427,231.607407 289.762054,231.268448 289.964935,230.546387 
	C289.964935,230.546387 290.012817,230.147095 290.674408,229.905228 
	C291.052002,228.909119 291.429596,227.912994 291.950775,226.538864 
	C291.950775,226.538864 292.001648,226.137711 292.675385,225.855377 
	C293.384430,223.911850 294.093506,221.968323 294.969818,219.265503 
	C300.041077,208.715515 302.373657,197.539688 301.919434,185.894714 
	C301.574371,177.048538 300.974884,168.181244 299.834106,159.408463 
	C299.116669,153.891510 297.190521,148.531738 295.976166,142.341080 
	C296.069641,141.694611 295.955750,140.906143 296.286987,140.422501 
	C303.944183,129.241852 306.865723,116.489632 306.796967,103.360809 
	C306.726929,89.982483 305.469818,76.557167 303.860870,63.257874 
	C302.692474,53.600117 300.339203,43.986633 294.999359,35.600361 
	C293.711731,33.578117 290.837555,31.125017 288.861664,31.264210 
	C283.824921,31.619032 278.931030,33.621029 273.894409,34.433388 
	C261.597900,36.416679 252.136963,44.185005 241.669098,49.873940 
	C236.656998,52.597839 231.934601,55.854801 227.061249,58.936920 
	C227.061249,58.936920 227.129150,58.924656 226.880386,58.325394 
	C226.264603,58.276989 225.648834,58.228584 224.388412,57.899151 
	C218.231583,53.993973 212.074768,50.088795 205.255707,45.798080 
	C194.939606,42.227287 184.280807,40.895935 173.434753,39.768909 
	C158.724258,38.240322 144.430328,39.272110 130.265900,43.060585 
	C119.324661,45.986965 108.082588,48.275490 98.364754,56.157742 
	C96.893616,56.819736 95.422478,57.481731 93.219055,57.997246 
	C87.466393,54.126698 81.988159,49.728210 75.875252,46.550709 
	C70.880630,43.954491 65.105965,42.880375 59.720112,41.007820 
	C56.159058,39.769714 52.674011,38.313004 48.714287,36.179020 
	C45.283047,36.128197 41.829773,35.817612 38.427319,36.106197 
	C35.545776,36.350597 32.723019,37.288074 29.955191,37.935139 
	C29.955191,37.935139 29.956356,37.852577 29.429602,38.039021 
	C29.245344,38.349968 29.061085,38.660915 28.974632,38.973721 
	C28.974632,38.973721 28.969423,38.876034 28.442291,39.051304 
	C28.252480,39.358028 28.062666,39.664753 27.951563,39.969948 
	C27.951563,39.969948 27.939154,39.892212 27.283974,40.147724 
	C26.480728,41.745285 25.677483,43.342846 24.951818,44.955215 
	C24.951818,44.955215 24.954094,44.876266 24.403507,45.039742 
	C24.315067,45.371441 24.226627,45.703144 24.010609,46.438305 
	C24.010609,46.438305 23.974043,46.859867 23.426285,47.033741 
	C23.333248,47.364231 23.240210,47.694721 22.851292,48.689629 
	C21.233372,52.006641 19.412916,55.241795 18.033291,58.655125 
	C12.632401,72.017464 11.563038,85.799309 13.952546,99.996414 
	C16.175961,113.206718 18.541073,126.323296 23.834272,138.767014 
	C25.110641,141.767609 25.836954,145.339096 25.621645,148.568420 
	C25.146618,155.693130 23.910891,162.767136 22.190496,170.275726 
	C22.124733,178.406250 22.018730,186.536880 22.038456,194.667206 
	C22.041275,195.829224 22.652411,196.989746 23.000917,198.998795 
	C23.867619,203.399185 23.967978,208.141632 25.749702,212.133621 
	C30.443806,222.650864 35.868347,232.842102 40.973984,243.871597 
	C45.570896,248.679184 49.754013,253.994415 54.870285,258.164856 
	C61.153408,263.286438 68.215996,267.451752 75.249718,272.681854 
	C78.148918,273.823395 81.048126,274.964935 83.974480,276.036743 
	C83.974480,276.036743 83.899658,276.035583 84.041489,276.606415 
	C84.383232,276.694244 84.724983,276.782043 85.443108,276.989441 
	C85.443108,276.989441 85.836464,277.024567 86.080444,277.651367 
	C86.716888,277.800812 87.353325,277.950226 88.213669,278.662445 
	C88.795708,278.793152 89.377747,278.923859 90.255379,279.691925 
	C91.173470,279.731415 92.091568,279.770905 93.412254,279.968079 
	C93.412254,279.968079 93.841156,280.022736 94.136223,280.712219 
	C95.773132,281.087769 97.410049,281.463287 99.432747,281.974792 
	C99.432747,281.974792 99.838882,282.023560 100.181015,282.749237 
	C105.451134,283.772980 110.721245,284.796753 116.509529,285.951782 
	C116.681007,285.903320 116.852478,285.854889 117.680237,285.945251 
	C118.122833,285.896759 118.565430,285.848297 119.399384,285.961578 
	C119.399384,285.961578 119.822052,285.987335 120.209656,286.772888 
	C123.147163,286.884521 126.084679,286.996124 128.966064,287.009552 
	C128.966064,287.009552 128.869644,287.068695 129.297714,287.847198 
	C138.864029,287.838165 148.430344,287.829132 158.924683,287.963135 
	C169.343781,287.980194 179.763092,288.032501 190.181717,287.970459 
	C191.508545,287.962585 192.831818,287.357300 194.591293,286.981842 
	C194.591293,286.981842 194.998657,286.823425 195.881607,286.972595 
	C199.580292,286.592072 203.278992,286.211548 207.820557,285.976349 
	C229.041519,283.052460 247.870544,274.454834 265.672211,261.883820 
	C267.156769,260.283234 268.641327,258.682648 270.037720,257.037994 
	C270.037720,257.037994 270.082153,257.126007 270.690704,256.899872 
	C271.833649,255.623840 272.976562,254.347794 274.041595,253.051270 
	C274.041595,253.051270 274.033661,253.131409 274.577789,252.975006 
	C274.757812,252.658188 274.937836,252.341370 275.021423,252.024094 
	C275.021423,252.024094 275.027191,252.120392 275.553589,251.943909 
	C275.734619,251.634399 275.915680,251.324905 276.014557,251.013412 
	C276.014557,251.013412 276.016388,251.095627 276.544769,250.936325 
	C276.725433,250.629364 276.906097,250.322403 277.016296,250.013779 
	C277.016296,250.013779 277.031219,250.082672 277.755219,250.014740 
	C278.207123,249.359589 278.658997,248.704453 279.038422,248.021103 
	C279.038422,248.021103 279.053497,248.097427 279.712250,247.868561 
	C280.846405,245.928818 281.980591,243.989090 283.040161,242.032089 
	C283.040161,242.032089 283.032318,242.108261 283.600830,241.953583 
	C283.695068,241.610031 283.789337,241.266479 284.011230,240.571548 
	C284.011230,240.571548 284.028259,240.198074 284.645416,239.932098 
	C285.138947,238.975388 285.632507,238.018692 286.050171,237.043945 
	C286.050171,237.043945 286.044525,237.121765 286.622131,236.958450 
	C286.707397,236.607498 286.792633,236.256531 286.995331,235.551575 
	C286.995331,235.551575 287.021210,235.179520 287.594025,234.976730 
	C287.681915,234.624023 287.769775,234.271332 287.969757,233.538406 
	C287.969757,233.538406 288.015137,233.144623 288.552429,232.966217 
	C288.741791,232.652603 288.931183,232.339005 289.029877,232.031906 
M578.045837,197.042725 
	C578.045837,197.042725 578.042236,197.129288 578.583191,196.973816 
	C578.761108,196.658417 578.939026,196.343018 579.036743,196.038086 
	C579.036743,196.038086 579.057068,196.116425 579.740540,196.030273 
	C580.884827,195.030228 582.029053,194.030167 583.566406,193.003662 
	C583.566406,193.003662 583.938782,192.874710 584.513245,192.977859 
	C584.717224,192.665070 584.921204,192.352295 585.028381,192.031204 
	C585.028381,192.031204 585.028198,192.128326 585.550903,191.942307 
	C585.729370,191.632187 585.907837,191.322067 586.015320,191.014130 
	C586.015320,191.014130 586.029175,191.083786 586.698425,191.005203 
	C587.504333,190.361450 588.310242,189.717682 589.042358,189.050354 
	C589.042358,189.050354 589.031128,189.126968 589.570679,188.966644 
	C589.754089,188.653030 589.937500,188.339432 590.022888,188.022156 
	C590.022888,188.022156 590.025452,188.120224 590.570435,187.956161 
	C590.765198,187.641968 590.960022,187.327774 591.572571,186.981354 
	C591.572571,186.981354 591.962219,186.827148 592.507751,186.911819 
	C592.611511,186.600815 592.715271,186.289810 593.036011,185.468094 
	C593.365601,185.038452 593.695129,184.608810 594.566223,183.991776 
	C594.756714,183.674088 594.947205,183.356384 595.061523,183.063049 
	C595.061523,183.063049 595.100159,183.133041 595.693604,182.918564 
	C596.785889,182.025253 597.878235,181.131943 599.256775,180.856354 
	C605.491699,192.714691 615.807678,199.923645 627.672485,205.041565 
	C631.113586,206.525879 635.572937,207.606857 639.034729,206.743851 
	C653.263916,203.196609 665.870178,196.141754 677.416382,187.099075 
	C686.210999,180.211349 695.207520,173.581284 704.704529,166.389557 
	C704.850708,167.957794 704.975220,168.710007 704.982544,169.463348 
	C705.055054,176.944260 706.928345,183.731079 713.108215,188.516068 
	C717.187195,191.674347 721.506897,194.534622 725.819519,197.375458 
	C736.936523,204.698349 743.908752,200.728088 751.849915,193.514053 
	C752.938232,192.525391 753.836182,190.714264 753.847900,189.275955 
	C753.875732,185.873642 753.591431,182.406555 752.866028,179.089706 
	C752.558716,177.684341 751.033997,176.147522 749.670227,175.510880 
	C748.763367,175.087494 746.784302,175.774887 745.940491,176.619629 
	C743.156494,179.406662 740.830872,182.653107 738.034241,185.425552 
	C733.358765,190.060471 726.661865,188.924194 724.485657,182.920212 
	C720.683655,172.430695 720.138855,161.290649 723.220154,150.860947 
	C727.181519,137.452591 733.182007,124.655685 738.082275,111.512703 
	C741.756775,101.657333 740.775696,89.758987 728.753540,86.312790 
	C725.258667,86.765633 723.621155,88.388428 725.018982,92.411018 
	C725.018982,92.411018 724.985718,92.832245 724.304504,93.121887 
	C724.157715,94.083023 724.010986,95.044159 723.963257,95.988113 
	C723.963257,95.988113 723.939026,95.890572 723.260681,96.160187 
	C723.230469,97.110344 723.200317,98.060493 723.023499,99.407021 
	C723.023499,99.407021 722.988770,99.828232 722.344482,100.076767 
	C722.287231,100.728355 722.229980,101.379944 721.833252,102.672745 
	C718.781433,109.364670 715.749268,116.065620 712.670959,122.745308 
	C710.587280,127.266739 708.599304,131.843872 706.259949,136.231583 
	C704.821350,138.929672 702.432617,141.139557 701.109680,143.877518 
	C696.589355,153.232681 689.345215,159.765442 679.965149,165.151978 
	C679.965149,159.149109 680.010864,153.541428 679.935730,147.935364 
	C679.914795,146.374008 679.501099,144.821320 679.328918,143.257904 
	C678.896851,139.335052 678.890442,135.318726 678.014099,131.500336 
	C675.596558,120.966042 669.362915,112.201012 663.956848,103.118065 
	C660.655273,97.570923 656.898560,92.188637 652.628723,87.367920 
	C650.447937,84.905746 646.462830,84.145638 643.684937,82.087509 
	C637.249451,77.319450 634.401184,78.108871 631.972290,85.740837 
	C631.735962,86.483223 631.181702,87.128578 630.752869,87.804932 
	C622.683350,100.533302 616.328674,114.057175 610.805786,128.094620 
	C606.969299,137.845581 601.637024,147.008057 596.567749,157.252518 
	C594.180908,145.360168 592.378662,134.921844 589.930054,124.637413 
	C587.934204,116.254730 584.526550,108.385010 577.876770,102.439621 
	C569.218567,94.698456 560.990967,86.446960 549.453186,82.670784 
	C544.412292,81.020950 542.924438,81.081085 541.058899,85.753822 
	C540.107056,88.138023 539.051453,90.513336 537.749756,92.719795 
	C531.705994,102.963913 526.241028,113.354424 522.727661,124.896233 
	C520.430847,132.441650 516.323853,139.609619 512.063416,146.335846 
	C507.639008,153.320801 501.100861,159.051682 497.180664,166.252930 
	C489.848785,179.721146 478.442963,188.171295 465.140625,194.107880 
	C455.889496,198.236496 450.732605,197.437149 447.034332,186.347794 
	C446.074066,183.468414 445.467957,180.455566 444.888214,177.467346 
	C442.654846,165.956055 444.487244,154.650467 447.153381,143.489304 
	C447.574249,141.727448 449.940826,139.666779 451.803986,139.136551 
	C464.227905,135.600754 473.990540,128.595047 480.746307,117.627098 
	C482.957245,114.037628 484.675262,110.095055 486.225739,106.159164 
	C488.948944,99.246178 490.005585,90.016357 481.782166,84.662903 
	C477.319946,81.757996 471.201630,81.223633 465.727753,80.136635 
	C463.712524,79.736458 460.617981,80.071625 459.375427,81.371292 
	C455.804169,85.106781 452.155090,89.131798 449.931152,93.719139 
	C444.530212,104.859550 439.996429,116.417580 434.922241,127.721596 
	C433.929779,129.932602 432.481750,132.851761 430.548096,133.569244 
	C422.295990,136.631241 413.782928,138.989960 405.232391,141.646515 
	C405.232391,139.326340 405.066772,136.866730 405.265350,134.436874 
	C405.744232,128.577148 406.822815,122.734924 406.871521,116.879074 
	C406.941559,108.460716 406.591095,100.013313 405.893890,91.622032 
	C405.316895,84.676918 404.805115,77.540047 402.772308,70.948303 
	C400.093750,62.262539 395.325287,55.152782 386.523712,50.269630 
	C379.764038,46.519329 372.656738,44.248726 365.600555,42.353458 
	C358.590790,40.470646 350.838959,41.398125 343.418945,40.979164 
	C338.064636,40.676838 334.423706,43.521919 331.338562,47.345436 
	C329.921326,49.101860 328.794067,51.096664 327.579529,53.011421 
	C323.516022,59.417599 320.072723,66.065201 321.058563,73.992157 
	C321.415802,76.864876 323.094147,79.734062 322.849426,82.487511 
	C322.335083,88.274323 324.447662,93.053253 328.417267,96.434196 
	C331.858551,99.365166 336.408051,101.191841 340.738617,102.757278 
	C341.976440,103.204750 344.157654,101.042511 345.906281,100.076935 
	C344.545807,99.043877 343.332611,97.576401 341.798279,97.056206 
	C336.397858,95.225304 333.837067,91.298119 332.972046,85.128242 
	C332.714844,77.074226 330.186432,68.906975 334.773804,60.806522 
	C336.100464,54.207905 340.442078,50.421947 346.698547,49.096405 
	C349.882812,48.421768 353.329865,49.074230 356.650574,48.940311 
	C365.974304,48.564320 374.625580,50.392578 381.534668,57.081638 
	C388.508392,63.833252 390.605194,72.824112 390.850586,81.952484 
	C391.161621,93.522743 390.747833,105.152634 389.902008,116.702278 
	C389.095520,127.714500 387.386566,138.664093 385.887482,149.615631 
	C385.766357,150.500412 384.322662,151.567551 383.283783,151.905914 
	C374.742493,154.687912 366.049927,157.037140 357.612488,160.094910 
	C352.283447,162.026199 346.481201,164.019196 342.405914,167.673660 
	C337.966675,171.654495 334.713928,177.301407 331.953156,182.734802 
	C327.215912,192.058228 321.774689,201.424515 319.383881,211.431015 
	C316.808472,222.210251 313.016418,232.899841 313.611206,244.579773 
	C313.920471,250.652512 314.337036,256.354370 317.122620,261.516479 
	C321.070007,268.831512 328.718475,270.916443 336.031219,272.933746 
	C342.417114,274.695374 348.593903,273.858643 353.479462,268.922516 
	C355.919922,266.456818 358.214294,263.698303 359.949921,260.709412 
	C366.610260,249.239700 373.561676,237.887589 379.351196,225.979523 
	C384.184540,216.038193 387.984344,205.524094 391.415192,194.994308 
	C393.957947,187.190125 394.931183,178.888092 397.078491,170.936081 
	C398.241089,166.630630 399.239258,160.720627 402.335266,158.804840 
	C410.048859,154.031738 418.921326,151.131424 427.328552,147.479263 
	C427.762207,147.888962 428.195892,148.298645 428.629547,148.708344 
	C427.885071,153.174103 427.047577,157.626709 426.414490,162.108200 
	C424.855652,173.142838 427.165039,183.455811 432.616669,193.079086 
	C435.692841,198.509201 441.224701,200.726089 446.585327,202.931030 
	C460.922821,208.828262 474.775665,209.274338 487.191895,198.321091 
	C495.109100,191.336746 502.852295,184.155121 510.673523,177.061951 
	C510.114197,176.157486 510.561676,176.150589 510.708008,176.357101 
	C517.384766,185.778351 526.953552,191.796631 536.469849,197.726120 
	C539.855957,199.835999 544.143311,200.499634 548.738708,202.187012 
	C555.218079,201.801666 561.697449,201.416321 568.584229,200.992310 
	C568.584229,200.992310 568.972839,200.863861 569.644836,201.026642 
	C570.158691,200.693008 570.672485,200.359375 571.561035,199.987427 
	C571.561035,199.987427 571.911987,199.850845 572.633362,200.012833 
	C573.812317,199.350327 574.991272,198.687820 576.558472,197.977081 
	C576.558472,197.977081 576.930664,197.856506 577.500854,197.987137 
	C577.710876,197.677505 577.920959,197.367874 578.045837,197.042725 
M721.531799,57.024117 
	C723.581055,64.063278 732.814514,69.036652 739.632080,66.773315 
	C743.627075,65.447037 748.430847,59.361523 747.928894,55.596233 
	C747.242493,50.446934 746.746460,47.509937 739.028503,46.083206 
	C735.882568,45.501640 732.525635,44.701569 729.479248,45.232388 
	C723.592529,46.258106 722.585571,51.664425 721.531799,57.024117 
z"/>
<path fill="#B675FA" opacity="1.000000" stroke="none" 
	d="
M548.019226,201.823456 
	C544.143311,200.499634 539.855957,199.835999 536.469849,197.726120 
	C526.953552,191.796631 517.384766,185.778351 510.708008,176.357101 
	C510.561676,176.150589 510.114197,176.157486 510.673523,177.061951 
	C502.852295,184.155121 495.109100,191.336746 487.191895,198.321091 
	C474.775665,209.274338 460.922821,208.828262 446.585327,202.931030 
	C441.224701,200.726089 435.692841,198.509201 432.616669,193.079086 
	C427.165039,183.455811 424.855652,173.142838 426.414490,162.108200 
	C427.047577,157.626709 427.885071,153.174103 428.629547,148.708344 
	C428.195892,148.298645 427.762207,147.888962 427.328552,147.479263 
	C418.921326,151.131424 410.048859,154.031738 402.335266,158.804840 
	C399.239258,160.720627 398.241089,166.630630 397.078491,170.936081 
	C394.931183,178.888092 393.957947,187.190125 391.415192,194.994308 
	C387.984344,205.524094 384.184540,216.038193 379.351196,225.979523 
	C373.561676,237.887589 366.610260,249.239700 359.949921,260.709412 
	C358.214294,263.698303 355.919922,266.456818 353.479462,268.922516 
	C348.593903,273.858643 342.417114,274.695374 336.031219,272.933746 
	C328.718475,270.916443 321.070007,268.831512 317.122620,261.516479 
	C314.337036,256.354370 313.920471,250.652512 313.611206,244.579773 
	C313.016418,232.899841 316.808472,222.210251 319.383881,211.431015 
	C321.774689,201.424515 327.215912,192.058228 331.953156,182.734802 
	C334.713928,177.301407 337.966675,171.654495 342.405914,167.673660 
	C346.481201,164.019196 352.283447,162.026199 357.612488,160.094910 
	C366.049927,157.037140 374.742493,154.687912 383.283783,151.905914 
	C384.322662,151.567551 385.766357,150.500412 385.887482,149.615631 
	C387.386566,138.664093 389.095520,127.714500 389.902008,116.702278 
	C390.747833,105.152634 391.161621,93.522743 390.850586,81.952484 
	C390.605194,72.824112 388.508392,63.833252 381.534668,57.081638 
	C374.625580,50.392578 365.974304,48.564320 356.650574,48.940311 
	C353.329865,49.074230 349.882812,48.421768 346.698547,49.096405 
	C340.442078,50.421947 336.100464,54.207905 334.104858,60.983253 
	C328.971741,66.347878 329.671509,72.500641 330.447052,78.536125 
	C330.774933,81.087746 332.003815,83.523582 332.823151,86.012039 
	C333.837067,91.298119 336.397858,95.225304 341.798279,97.056206 
	C343.332611,97.576401 344.545807,99.043877 345.906281,100.076935 
	C344.157654,101.042511 341.976440,103.204750 340.738617,102.757278 
	C336.408051,101.191841 331.858551,99.365166 328.417267,96.434196 
	C324.447662,93.053253 322.335083,88.274323 322.849426,82.487511 
	C323.094147,79.734062 321.415802,76.864876 321.058563,73.992157 
	C320.072723,66.065201 323.516022,59.417599 327.579529,53.011421 
	C328.794067,51.096664 329.921326,49.101860 331.338562,47.345436 
	C334.423706,43.521919 338.064636,40.676838 343.418945,40.979164 
	C350.838959,41.398125 358.590790,40.470646 365.600555,42.353458 
	C372.656738,44.248726 379.764038,46.519329 386.523712,50.269630 
	C395.325287,55.152782 400.093750,62.262539 402.772308,70.948303 
	C404.805115,77.540047 405.316895,84.676918 405.893890,91.622032 
	C406.591095,100.013313 406.941559,108.460716 406.871521,116.879074 
	C406.822815,122.734924 405.744232,128.577148 405.265350,134.436874 
	C405.066772,136.866730 405.232391,139.326340 405.232391,141.646515 
	C413.782928,138.989960 422.295990,136.631241 430.548096,133.569244 
	C432.481750,132.851761 433.929779,129.932602 434.922241,127.721596 
	C439.996429,116.417580 444.530212,104.859550 449.931152,93.719139 
	C452.155090,89.131798 455.804169,85.106781 459.375427,81.371292 
	C460.617981,80.071625 463.712524,79.736458 465.727753,80.136635 
	C471.201630,81.223633 477.319946,81.757996 481.782166,84.662903 
	C490.005585,90.016357 488.948944,99.246178 486.225739,106.159164 
	C484.675262,110.095055 482.957245,114.037628 480.746307,117.627098 
	C473.990540,128.595047 464.227905,135.600754 451.803986,139.136551 
	C449.940826,139.666779 447.574249,141.727448 447.153381,143.489304 
	C444.487244,154.650467 442.654846,165.956055 444.888214,177.467346 
	C445.467957,180.455566 446.074066,183.468414 447.034332,186.347794 
	C450.732605,197.437149 455.889496,198.236496 465.140625,194.107880 
	C478.442963,188.171295 489.848785,179.721146 497.180664,166.252930 
	C501.100861,159.051682 507.639008,153.320801 512.063416,146.335846 
	C516.323853,139.609619 520.430847,132.441650 522.727661,124.896233 
	C526.241028,113.354424 531.705994,102.963913 537.749756,92.719795 
	C539.051453,90.513336 540.107056,88.138023 541.058899,85.753822 
	C542.924438,81.081085 544.412292,81.020950 549.453186,82.670784 
	C560.990967,86.446960 569.218567,94.698456 577.876770,102.439621 
	C584.526550,108.385010 587.934204,116.254730 589.930054,124.637413 
	C592.378662,134.921844 594.180908,145.360168 596.567749,157.252518 
	C601.637024,147.008057 606.969299,137.845581 610.805786,128.094620 
	C616.328674,114.057175 622.683350,100.533302 630.752869,87.804932 
	C631.181702,87.128578 631.735962,86.483223 631.972290,85.740837 
	C634.401184,78.108871 637.249451,77.319450 643.684937,82.087509 
	C646.462830,84.145638 650.447937,84.905746 652.628723,87.367920 
	C656.898560,92.188637 660.655273,97.570923 663.956848,103.118065 
	C669.362915,112.201012 675.596558,120.966042 678.014099,131.500336 
	C678.890442,135.318726 678.896851,139.335052 679.328918,143.257904 
	C679.501099,144.821320 679.914795,146.374008 679.935730,147.935364 
	C680.010864,153.541428 679.965149,159.149109 679.965149,165.151978 
	C689.345215,159.765442 696.589355,153.232681 701.109680,143.877518 
	C702.432617,141.139557 704.821350,138.929672 706.259949,136.231583 
	C708.599304,131.843872 710.587280,127.266739 712.670959,122.745308 
	C715.749268,116.065620 718.781433,109.364670 722.217651,102.132126 
	C722.730957,101.003754 722.859863,100.415985 722.988770,99.828232 
	C722.988770,99.828232 723.023499,99.407021 723.318481,98.957230 
	C723.722046,97.635147 723.830505,96.762856 723.938965,95.890564 
	C723.939026,95.890572 723.963257,95.988113 724.191101,95.773483 
	C724.607849,94.649986 724.796753,93.741112 724.985718,92.832245 
	C724.985718,92.832245 725.018982,92.411018 725.321472,91.986938 
	C726.758362,90.022835 727.892822,88.482811 729.027222,86.942772 
	C740.775696,89.758987 741.756775,101.657333 738.082275,111.512703 
	C733.182007,124.655685 727.181519,137.452591 723.220154,150.860947 
	C720.138855,161.290649 720.683655,172.430695 724.485657,182.920212 
	C726.661865,188.924194 733.358765,190.060471 738.034241,185.425552 
	C740.830872,182.653107 743.156494,179.406662 745.940491,176.619629 
	C746.784302,175.774887 748.763367,175.087494 749.670227,175.510880 
	C751.033997,176.147522 752.558716,177.684341 752.866028,179.089706 
	C753.591431,182.406555 753.875732,185.873642 753.847900,189.275955 
	C753.836182,190.714264 752.938232,192.525391 751.849915,193.514053 
	C743.908752,200.728088 736.936523,204.698349 725.819519,197.375458 
	C721.506897,194.534622 717.187195,191.674347 713.108215,188.516068 
	C706.928345,183.731079 705.055054,176.944260 704.982544,169.463348 
	C704.975220,168.710007 704.850708,167.957794 704.704529,166.389557 
	C695.207520,173.581284 686.210999,180.211349 677.416382,187.099075 
	C665.870178,196.141754 653.263916,203.196609 639.034729,206.743851 
	C635.572937,207.606857 631.113586,206.525879 627.672485,205.041565 
	C615.807678,199.923645 605.491699,192.714691 598.936462,180.245743 
	C595.233032,178.578552 595.060364,180.749039 595.100159,183.133041 
	C595.100159,183.133041 595.061523,183.063049 594.846680,183.166107 
	C594.429504,183.572510 594.227051,183.875839 594.024658,184.179169 
	C593.695129,184.608810 593.365601,185.038452 592.753723,185.831299 
	C592.253296,186.366455 592.083557,186.577332 591.962219,186.827148 
	C591.962219,186.827148 591.572571,186.981354 591.114075,187.112061 
	C590.445557,187.535248 590.235474,187.827728 590.025452,188.120224 
	C590.025452,188.120224 590.022888,188.022156 589.827759,188.138092 
	C589.432068,188.544998 589.231628,188.835983 589.031128,189.126968 
	C589.031128,189.126968 589.042358,189.050354 588.718689,189.043732 
	C587.606445,189.719330 586.817810,190.401566 586.029175,191.083801 
	C586.029175,191.083786 586.015320,191.014130 585.816528,191.138153 
	C585.421265,191.550888 585.224731,191.839615 585.028198,192.128326 
	C585.028198,192.128326 585.028381,192.031204 584.839233,192.112335 
	C584.338440,192.342773 584.101379,192.569839 583.938782,192.874710 
	C583.938782,192.874710 583.566406,193.003662 582.991333,193.011993 
	C581.296509,194.052368 580.176758,195.084396 579.057068,196.116425 
	C579.057068,196.116425 579.036743,196.038086 578.834045,196.146973 
	C578.434937,196.546982 578.238586,196.838120 578.042236,197.129272 
	C578.042236,197.129288 578.045837,197.042725 577.848877,197.116730 
	C577.340820,197.336060 577.100403,197.557983 576.930664,197.856506 
	C576.930664,197.856506 576.558472,197.977081 575.986328,197.986237 
	C574.246826,198.613876 573.079407,199.232361 571.911987,199.850845 
	C571.911987,199.850845 571.561035,199.987427 571.062988,200.008255 
	C570.034180,200.307343 569.503540,200.585602 568.972839,200.863861 
	C568.972839,200.863861 568.584229,200.992310 567.899902,200.992371 
	C560.816833,201.269440 554.418030,201.546448 548.019226,201.823456 
M528.191040,171.334229 
	C528.332397,171.639557 528.551453,171.871338 529.198425,172.676453 
	C530.138123,173.662888 531.037781,174.691650 532.025757,175.627167 
	C534.261169,177.744034 536.280090,181.149902 538.850891,181.650742 
	C546.166870,183.076004 553.739685,184.003601 561.162048,183.739334 
	C565.309875,183.591660 571.664856,184.608078 573.249817,178.953018 
	C575.349548,171.461929 576.659058,163.621277 577.210510,155.852936 
	C578.145935,142.674911 575.099121,129.941650 570.973267,117.498932 
	C568.019470,108.590828 563.619324,100.599861 555.352234,94.537582 
	C550.487854,104.419678 543.136475,112.361580 540.896484,123.464447 
	C539.445496,130.656998 535.833496,137.590836 532.244446,144.121017 
	C529.144531,149.761307 524.710083,154.668198 520.455750,160.214890 
	C520.322632,160.528152 520.189514,160.841431 520.049927,161.038940 
	C520.049927,161.038940 520.165710,161.044708 519.804871,161.196320 
	C519.926392,161.447678 520.047974,161.699036 520.031555,161.962509 
	C520.031555,161.962509 520.028870,161.823990 520.321228,162.393677 
	C520.908508,162.581406 521.495728,162.769135 522.016479,162.981598 
	C522.016479,162.981598 522.011719,162.910782 522.240479,163.387878 
	C522.525696,163.586136 522.810852,163.784378 523.016479,163.970398 
	C523.016479,163.970398 523.034546,163.891922 523.169250,164.383713 
	C523.400391,164.626968 523.631531,164.870224 523.978516,165.477600 
	C523.978516,165.477600 523.998413,165.859207 524.008423,166.610092 
	C525.044128,167.725586 526.079773,168.841080 527.025024,169.974182 
	C527.025024,169.974182 527.014099,169.882660 527.258545,170.363739 
	C527.547607,170.570145 527.836731,170.776535 528.021362,170.980835 
	C528.021362,170.980835 528.029114,170.876694 528.191040,171.334229 
M357.623230,172.176422 
	C357.378510,172.409348 357.133789,172.642258 356.539917,172.988846 
	C356.539917,172.988846 356.173065,173.004745 355.449371,172.986786 
	C354.641174,173.381439 353.832977,173.776108 352.777802,174.800522 
	C346.493225,182.881851 339.571838,190.985016 336.667542,200.690796 
	C332.003174,216.278625 326.799683,232.006653 327.987152,248.748215 
	C328.388428,254.405685 329.727661,259.613525 334.843079,262.973969 
	C339.573822,260.896271 343.563629,258.877075 346.904236,254.069717 
	C359.334839,236.181229 366.879852,216.198349 373.971924,195.956726 
	C376.127045,189.805832 377.287872,183.306549 379.469635,176.482559 
	C379.984436,174.610641 380.679413,172.765411 380.961700,170.859070 
	C381.226562,169.070648 381.054932,167.217575 381.075378,165.392960 
	C378.706024,165.872879 376.336639,166.352814 373.591522,166.984238 
	C373.591522,166.984238 373.187775,167.017670 372.446869,166.973724 
	C371.292664,167.253220 370.138428,167.532715 368.587921,167.980087 
	C368.587921,167.980087 368.159271,168.018555 367.544678,168.029739 
	C367.013519,168.300644 366.482391,168.571548 365.592102,168.992950 
	C365.592102,168.992950 365.203247,169.013657 364.581818,169.009033 
	C364.044342,169.279251 363.506836,169.549469 362.550049,169.963318 
	C362.550049,169.963318 362.110046,170.016663 361.338562,170.005249 
	C360.247284,170.713501 359.156036,171.421753 358.042267,172.055344 
	C358.042267,172.055344 358.119568,172.045197 357.623230,172.176422 
M661.821228,133.252029 
	C657.966187,121.230499 652.660767,109.981384 643.846069,99.171570 
	C640.516724,105.176003 637.056519,110.257622 634.738892,115.815674 
	C628.032410,131.898895 621.925476,148.297058 611.907288,162.684753 
	C608.370056,167.764801 609.539917,172.162033 611.993713,176.293152 
	C616.246094,183.452454 621.927734,189.038696 631.391052,188.071686 
	C632.641052,187.943954 633.976135,188.354919 635.235779,188.663254 
	C642.117065,190.347626 650.712585,186.786438 654.001465,180.440933 
	C656.954163,174.744293 659.475342,168.824036 662.926880,162.743378 
	C663.257568,162.210831 663.871277,161.681015 663.876404,161.145340 
	C663.955383,152.932205 664.008667,144.717529 663.893738,136.505646 
	C663.881653,135.641846 662.769836,134.793442 661.821228,133.252029 
M467.082855,113.518410 
	C473.371063,105.627281 474.750061,94.712090 469.755157,88.615700 
	C459.412048,98.226257 458.855499,112.109657 453.158020,123.586266 
	C453.606628,123.946220 454.055237,124.306168 454.503815,124.666115 
	C458.660522,121.197159 462.817230,117.728195 467.082855,113.518410 
z"/>
<path fill="#CFA2FC" opacity="1.000000" stroke="none" 
	d="
M49.154934,36.954163 
	C52.674011,38.313004 56.159058,39.769714 59.720112,41.007820 
	C65.105965,42.880375 70.880630,43.954491 75.875252,46.550709 
	C81.988159,49.728210 87.466393,54.126698 93.690475,58.434414 
	C94.780418,60.347324 95.761330,61.775787 95.961021,63.306183 
	C97.811394,77.487183 92.670479,89.658096 84.459915,101.023407 
	C77.327171,100.709122 70.308289,99.039673 63.931351,100.393669 
	C54.024548,102.497139 45.122158,105.754791 44.949936,120.894691 
	C44.893696,125.838844 45.029629,130.798874 44.680187,135.723419 
	C43.625320,150.589157 50.435112,161.640900 61.645611,170.304764 
	C65.647911,173.397858 70.526230,175.357437 75.123413,178.074417 
	C75.514183,178.537781 75.786247,178.761139 76.028061,178.975754 
	C75.997818,178.967026 76.043175,178.923370 76.082581,179.297852 
	C80.869415,191.467072 85.993286,203.200226 84.934608,216.352753 
	C84.537804,221.282578 83.608109,226.169479 82.459740,231.063461 
	C70.620415,229.515884 60.044106,233.462555 49.370163,236.208069 
	C46.005524,237.073486 41.047211,237.603409 41.002014,243.163162 
	C35.868347,232.842102 30.443806,222.650864 25.749702,212.133621 
	C23.967978,208.141632 23.867619,203.399185 23.010609,198.095886 
	C23.008715,188.082581 22.997128,178.972214 22.985540,169.861832 
	C23.910891,162.767136 25.146618,155.693130 25.621645,148.568420 
	C25.836954,145.339096 25.110641,141.767609 23.834272,138.767014 
	C18.541073,126.323296 16.175961,113.206718 13.952546,99.996414 
	C11.563038,85.799309 12.632401,72.017464 18.033291,58.655125 
	C19.412916,55.241795 21.233372,52.006641 23.192448,48.206886 
	C23.756180,47.474659 23.902992,47.186569 23.974043,46.859867 
	C23.974043,46.859867 24.010609,46.438305 24.267979,46.088715 
	C24.748907,45.491577 24.891821,45.203957 24.954094,44.876266 
	C24.954094,44.876266 24.951818,44.955215 25.270512,44.900902 
	C26.372520,43.195129 27.155836,41.543671 27.939154,39.892212 
	C27.939154,39.892212 27.951563,39.969948 28.151844,39.851013 
	C28.557892,39.446728 28.763657,39.161381 28.969421,38.876034 
	C28.969423,38.876034 28.974632,38.973721 29.166061,38.851021 
	C29.557114,38.436409 29.756735,38.144493 29.956356,37.852577 
	C29.956356,37.852577 29.955191,37.935139 30.350220,37.956177 
	C36.881813,37.636200 43.018372,37.295181 49.154934,36.954163 
z"/>
<path fill="#E5CAFE" opacity="1.000000" stroke="none" 
	d="
M227.081009,58.870342 
	C231.934601,55.854801 236.656998,52.597839 241.669098,49.873940 
	C252.136963,44.185005 261.597900,36.416679 273.894409,34.433388 
	C278.931030,33.621029 283.824921,31.619032 288.861664,31.264210 
	C290.837555,31.125017 293.711731,33.578117 294.999359,35.600361 
	C300.339203,43.986633 302.692474,53.600117 303.860870,63.257874 
	C305.469818,76.557167 306.726929,89.982483 306.796967,103.360809 
	C306.865723,116.489632 303.944183,129.241852 296.286987,140.422501 
	C295.955750,140.906143 296.069641,141.694611 295.536621,142.740509 
	C280.456512,146.714676 272.439240,156.784943 268.766602,170.689850 
	C267.841400,174.192688 267.512054,178.427078 268.595551,181.780304 
	C272.055573,192.488434 268.444214,200.850281 260.627045,207.562622 
	C253.302124,213.852249 249.381439,221.242752 249.472260,230.961746 
	C247.240234,232.358047 245.204498,233.525620 243.469330,235.038040 
	C230.973099,245.930099 217.021988,246.115204 202.416458,240.497284 
	C200.637650,239.813080 199.466537,237.548981 198.402771,235.998322 
	C203.787994,233.555649 209.497040,231.992813 213.652481,228.553116 
	C228.618637,216.164673 232.169495,198.439194 233.680710,180.417709 
	C234.240768,173.738861 231.993195,166.824570 231.403152,160.004059 
	C235.970291,158.060532 240.895386,156.964722 244.211136,154.042694 
	C253.779556,145.610428 262.674072,136.415695 271.888550,127.578117 
	C274.841461,124.745972 277.831879,121.919724 281.057861,119.416519 
	C283.475708,117.540405 284.537872,116.254692 282.715912,112.949806 
	C273.687256,96.572533 260.847168,83.828827 245.914246,72.933998 
	C239.585190,68.316414 233.355728,63.562366 227.081009,58.870342 
z"/>
<path fill="#CFA3FC" opacity="1.000000" stroke="none" 
	d="
M198.013794,236.017090 
	C199.466537,237.548981 200.637650,239.813080 202.416458,240.497284 
	C217.021988,246.115204 230.973099,245.930099 243.469330,235.038040 
	C245.204498,233.525620 247.240234,232.358047 249.584564,231.324677 
	C253.207962,237.500671 256.319244,243.418869 259.585968,249.250015 
	C261.262299,252.242325 263.216156,255.079178 265.136780,258.256348 
	C265.157959,259.638916 265.087006,260.751343 265.016022,261.863800 
	C247.870544,274.454834 229.041519,283.052460 207.095764,285.671082 
	C202.580185,285.851654 198.789429,286.337555 194.998657,286.823425 
	C194.998657,286.823425 194.591293,286.981842 193.894653,286.988007 
	C181.468597,286.995697 169.739182,286.997253 157.616745,286.998047 
	C156.181488,286.996429 155.139252,286.995514 154.073990,286.586578 
	C152.768112,278.422302 151.028702,270.943451 143.311264,266.694458 
	C142.361328,266.171417 141.752121,265.029572 141.001404,263.783264 
	C143.105881,256.041016 147.849731,250.459595 153.839203,246.229782 
	C160.283585,241.678711 167.325958,237.974411 174.497467,233.930298 
	C182.433807,236.471970 190.156860,236.997101 198.013794,236.017090 
z"/>
<path fill="#CFA1FD" opacity="1.000000" stroke="none" 
	d="
M227.071136,58.903633 
	C233.355728,63.562366 239.585190,68.316414 245.914246,72.933998 
	C260.847168,83.828827 273.687256,96.572533 282.715912,112.949806 
	C284.537872,116.254692 283.475708,117.540405 281.057861,119.416519 
	C277.831879,121.919724 274.841461,124.745972 271.888550,127.578117 
	C262.674072,136.415695 253.779556,145.610428 244.211136,154.042694 
	C240.895386,156.964722 235.970291,158.060532 231.400787,159.758362 
	C231.021301,159.526245 231.029114,159.035126 231.314514,158.857513 
	C233.216324,156.808548 235.370239,155.184769 236.364182,153.026733 
	C244.354843,135.677673 250.489899,117.936089 248.059677,98.277000 
	C246.981339,89.553703 240.275467,82.504143 231.610611,81.950447 
	C214.154633,80.834984 197.085205,82.600868 180.699127,89.011551 
	C173.128143,91.973534 165.689651,95.136711 159.950668,101.416336 
	C158.483917,103.021263 155.323761,103.078613 153.143097,103.488838 
	C153.562851,102.014679 153.956696,100.901085 153.972092,99.782280 
	C154.118332,89.151337 152.962402,78.405693 157.211929,67.946053 
	C165.254410,62.326481 173.553940,59.730824 183.156952,61.737339 
	C192.639389,63.718666 198.135757,57.807678 205.917953,46.183613 
	C212.074768,50.088795 218.231583,53.993973 224.919281,58.245102 
	C226.009827,58.702251 226.569489,58.813454 227.129150,58.924656 
	C227.129150,58.924656 227.061249,58.936920 227.071136,58.903633 
z"/>
<path fill="#B673FD" opacity="1.000000" stroke="none" 
	d="
M265.044617,257.986267 
	C263.216156,255.079178 261.262299,252.242325 259.585968,249.250015 
	C256.319244,243.418869 253.207962,237.500671 249.919983,231.255585 
	C249.381439,221.242752 253.302124,213.852249 260.627045,207.562622 
	C268.444214,200.850281 272.055573,192.488434 268.595551,181.780304 
	C267.512054,178.427078 267.841400,174.192688 268.766602,170.689850 
	C272.439240,156.784943 280.456512,146.714676 295.451843,143.120697 
	C297.190521,148.531738 299.116669,153.891510 299.834106,159.408463 
	C300.974884,168.181244 301.574371,177.048538 301.919434,185.894714 
	C302.373657,197.539688 300.041077,208.715515 294.546570,219.730927 
	C293.416107,222.176788 292.708893,224.157257 292.001648,226.137711 
	C292.001648,226.137711 291.950775,226.538864 291.554382,226.838654 
	C290.776276,228.141312 290.394562,229.144211 290.012817,230.147095 
	C290.012817,230.147095 289.964935,230.546387 289.710938,230.892609 
	C289.228790,231.490768 289.091400,231.785034 289.044678,232.121643 
	C289.044678,232.121643 289.029877,232.031906 288.829285,232.147156 
	C288.424164,232.556473 288.219666,232.850555 288.015137,233.144623 
	C288.015137,233.144623 287.969757,233.538406 287.712158,233.893112 
	C287.310150,234.558395 287.165680,234.868958 287.021210,235.179520 
	C287.021210,235.179520 286.995331,235.551575 286.734497,235.883667 
	C286.330627,236.517746 286.187561,236.819763 286.044525,237.121765 
	C286.044525,237.121765 286.050171,237.043945 285.727600,237.101791 
	C284.946106,238.172455 284.487183,239.185272 284.028259,240.198074 
	C284.028259,240.198074 284.011230,240.571548 283.747284,240.898987 
	C283.333008,241.520355 283.182648,241.814316 283.032318,242.108261 
	C283.032318,242.108261 283.040161,242.032089 282.727600,242.087402 
	C281.294495,244.127625 280.174011,246.112518 279.053497,248.097427 
	C279.053497,248.097427 279.038422,248.021103 278.745605,248.072968 
	C277.978912,248.777451 277.505066,249.430069 277.031219,250.082672 
	C277.031219,250.082672 277.016296,250.013779 276.818115,250.134369 
	C276.418762,250.535172 276.217590,250.815399 276.016388,251.095642 
	C276.016388,251.095627 276.014557,251.013412 275.817139,251.133469 
	C275.422211,251.542480 275.224701,251.831436 275.027191,252.120392 
	C275.027191,252.120392 275.021423,252.024094 274.825500,252.139114 
	C274.430969,252.546555 274.232300,252.838989 274.033661,253.131409 
	C274.033661,253.131409 274.041595,253.051270 273.694763,253.046082 
	C272.259308,254.402603 271.170746,255.764297 270.082153,257.126007 
	C270.082153,257.126007 270.037720,257.037994 269.707214,257.037231 
	C267.932709,257.353088 266.488647,257.669678 265.044617,257.986267 
z"/>
<path fill="#B673FD" opacity="1.000000" stroke="none" 
	d="
M140.985016,264.174469 
	C141.752121,265.029572 142.361328,266.171417 143.311264,266.694458 
	C151.028702,270.943451 152.768112,278.422302 153.594604,286.593536 
	C145.048721,287.028564 136.959183,287.048615 128.869644,287.068665 
	C128.869644,287.068695 128.966064,287.009552 128.701477,286.775146 
	C125.565285,286.356262 122.693672,286.171783 119.822052,285.987335 
	C119.822052,285.987335 119.399384,285.961578 119.034760,285.708679 
	C118.121407,285.572693 117.572678,285.689575 117.023941,285.806488 
	C116.852478,285.854889 116.681007,285.903320 116.132751,285.528015 
	C110.450287,284.077332 105.144585,283.050446 99.838882,282.023560 
	C99.838882,282.023560 99.432747,281.974792 99.119652,281.556183 
	C97.151421,280.765961 95.496292,280.394348 93.841156,280.022736 
	C93.841156,280.022736 93.412254,279.968079 93.048813,279.647339 
	C91.776848,279.235931 90.868317,279.145264 89.959785,279.054565 
	C89.377747,278.923859 88.795708,278.793152 87.919884,278.117676 
	C87.029556,277.390106 86.433006,277.207336 85.836464,277.024567 
	C85.836464,277.024567 85.443108,276.989441 85.106552,276.731934 
	C84.524376,276.239838 84.234261,276.093567 83.899658,276.035583 
	C83.899658,276.035583 83.974480,276.036743 83.907852,275.715729 
	C80.874687,274.273315 77.908165,273.151886 74.941643,272.030457 
	C68.215996,267.451752 61.153408,263.286438 54.870285,258.164856 
	C49.754013,253.994415 45.570896,248.679184 40.987999,243.517380 
	C41.047211,237.603409 46.005524,237.073486 49.370163,236.208069 
	C60.044106,233.462555 70.620415,229.515884 82.764801,231.286346 
	C91.986732,233.014206 99.044357,236.501297 104.414276,243.698029 
	C113.472839,255.838348 125.394524,263.425232 140.985016,264.174469 
z"/>
<path fill="#B673FD" opacity="1.000000" stroke="none" 
	d="
M205.586823,45.990845 
	C198.135757,57.807678 192.639389,63.718666 183.156952,61.737339 
	C173.553940,59.730824 165.254410,62.326481 156.896866,68.001953 
	C153.770020,70.398682 150.813553,72.215462 148.842728,74.787491 
	C144.651749,80.256966 138.774841,82.686874 132.703979,84.961334 
	C126.796303,87.174667 120.873642,86.531425 116.067284,82.846527 
	C107.178909,76.032066 100.434280,67.527840 99.019203,55.835949 
	C108.082588,48.275490 119.324661,45.986965 130.265900,43.060585 
	C144.430328,39.272110 158.724258,38.240322 173.434753,39.768909 
	C184.280807,40.895935 194.939606,42.227287 205.586823,45.990845 
z"/>
<path fill="#E5C7FE" opacity="1.000000" stroke="none" 
	d="
M98.691978,55.996845 
	C100.434280,67.527840 107.178909,76.032066 116.067284,82.846527 
	C120.873642,86.531425 126.796303,87.174667 132.703979,84.961334 
	C138.774841,82.686874 144.651749,80.256966 148.842728,74.787491 
	C150.813553,72.215462 153.770020,70.398682 156.594879,68.183762 
	C152.962402,78.405693 154.118332,89.151337 153.972092,99.782280 
	C153.956696,100.901085 153.562851,102.014679 152.705246,103.519424 
	C147.868179,104.705383 143.661041,105.456543 139.475174,106.311905 
	C134.586121,107.310982 130.284637,110.603485 124.669693,108.816704 
	C119.837578,107.279022 114.618271,106.987228 109.596207,106.010643 
	C101.340225,104.405190 93.105301,102.691437 84.861504,101.023346 
	C92.670479,89.658096 97.811394,77.487183 95.961021,63.306183 
	C95.761330,61.775787 94.780418,60.347324 94.056610,58.507652 
	C95.422478,57.481731 96.893616,56.819736 98.691978,55.996845 
z"/>
<path fill="#B575F8" opacity="1.000000" stroke="none" 
	d="
M721.302734,56.702396 
	C722.585571,51.664425 723.592529,46.258106 729.479248,45.232388 
	C732.525635,44.701569 735.882568,45.501640 739.028503,46.083206 
	C746.746460,47.509937 747.242493,50.446934 747.928894,55.596233 
	C748.430847,59.361523 743.627075,65.447037 739.632080,66.773315 
	C732.814514,69.036652 723.581055,64.063278 721.302734,56.702396 
z"/>
<path fill="#AF79E8" opacity="1.000000" stroke="none" 
	d="
M332.897583,85.570145 
	C332.003815,83.523582 330.774933,81.087746 330.447052,78.536125 
	C329.671509,72.500641 328.971741,66.347878 333.803894,61.112244 
	C330.186432,68.906975 332.714844,77.074226 332.897583,85.570145 
z"/>
<path fill="#D7BBF1" opacity="1.000000" stroke="none" 
	d="
M158.009766,286.998779 
	C169.739182,286.997253 181.468597,286.995697 193.677368,287.011475 
	C192.831818,287.357300 191.508545,287.962585 190.181717,287.970459 
	C179.763092,288.032501 169.343781,287.980194 158.464600,287.686279 
	C158.004517,287.409454 158.009766,286.998779 158.009766,286.998779 
z"/>
<path fill="#C9A3F3" opacity="1.000000" stroke="none" 
	d="
M157.616745,286.998047 
	C158.009766,286.998779 158.004517,287.409454 158.000580,287.614746 
	C148.430344,287.829132 138.864029,287.838165 129.083679,287.457947 
	C136.959183,287.048615 145.048721,287.028564 153.617645,287.001556 
	C155.139252,286.995514 156.181488,286.996429 157.616745,286.998047 
z"/>
<path fill="#BC8EEC" opacity="1.000000" stroke="none" 
	d="
M548.378967,202.005234 
	C554.418030,201.546448 560.816833,201.269440 567.696228,201.011703 
	C561.697449,201.416321 555.218079,201.801666 548.378967,202.005234 
z"/>
<path fill="#E2CDF7" opacity="1.000000" stroke="none" 
	d="
M22.588018,170.068787 
	C22.997128,178.972214 23.008715,188.082581 23.001156,197.671967 
	C22.652411,196.989746 22.041275,195.829224 22.038456,194.667206 
	C22.018730,186.536880 22.124733,178.406250 22.588018,170.068787 
z"/>
<path fill="#BB8BF2" opacity="1.000000" stroke="none" 
	d="
M100.009949,282.386414 
	C105.144585,283.050446 110.450287,284.077332 115.873672,285.462372 
	C110.721245,284.796753 105.451134,283.772980 100.009949,282.386414 
z"/>
<path fill="#D6BAF0" opacity="1.000000" stroke="none" 
	d="
M48.934608,36.566589 
	C43.018372,37.295181 36.881813,37.636200 30.309748,37.948029 
	C32.723019,37.288074 35.545776,36.350597 38.427319,36.106197 
	C41.829773,35.817612 45.283047,36.128197 48.934608,36.566589 
z"/>
<path fill="#BB8BF2" opacity="1.000000" stroke="none" 
	d="
M75.095680,272.356140 
	C77.908165,273.151886 80.874687,274.273315 83.894272,275.750610 
	C81.048126,274.964935 78.148918,273.823395 75.095680,272.356140 
z"/>
<path fill="#D7BBF1" opacity="1.000000" stroke="none" 
	d="
M195.440125,286.898010 
	C198.789429,286.337555 202.580185,285.851654 206.674316,285.598389 
	C203.278992,286.211548 199.580292,286.592072 195.440125,286.898010 
z"/>
<path fill="#BD90ED" opacity="1.000000" stroke="none" 
	d="
M279.382874,247.983002 
	C280.174011,246.112518 281.294495,244.127625 282.764893,242.096039 
	C281.980591,243.989090 280.846405,245.928818 279.382874,247.983002 
z"/>
<path fill="#C498F1" opacity="1.000000" stroke="none" 
	d="
M728.890381,86.627792 
	C727.892822,88.482811 726.758362,90.022835 725.393311,91.788246 
	C723.621155,88.388428 725.258667,86.765633 728.890381,86.627792 
z"/>
<path fill="#BD90ED" opacity="1.000000" stroke="none" 
	d="
M265.136780,258.256348 
	C266.488647,257.669678 267.932709,257.353088 269.751343,257.059265 
	C268.641327,258.682648 267.156769,260.283234 265.344116,261.873810 
	C265.087006,260.751343 265.157959,259.638916 265.136780,258.256348 
z"/>
<path fill="#BD90ED" opacity="1.000000" stroke="none" 
	d="
M292.338501,225.996552 
	C292.708893,224.157257 293.416107,222.176788 294.462952,220.110565 
	C294.093506,221.968323 293.384430,223.911850 292.338501,225.996552 
z"/>
<path fill="#C092EF" opacity="1.000000" stroke="none" 
	d="
M595.396851,183.025803 
	C595.060364,180.749039 595.233032,178.578552 598.793335,179.936874 
	C597.878235,181.131943 596.785889,182.025253 595.396851,183.025803 
z"/>
<path fill="#D6BAF0" opacity="1.000000" stroke="none" 
	d="
M27.611565,40.019966 
	C27.155836,41.543671 26.372520,43.195129 25.231720,44.893501 
	C25.677483,43.342846 26.480728,41.745285 27.611565,40.019966 
z"/>
<path fill="#C9A3F3" opacity="1.000000" stroke="none" 
	d="
M120.015854,286.380127 
	C122.693672,286.171783 125.565285,286.356262 128.729553,286.824249 
	C126.084679,286.996124 123.147163,286.884521 120.015854,286.380127 
z"/>
<path fill="#BD90ED" opacity="1.000000" stroke="none" 
	d="
M270.386414,257.012939 
	C271.170746,255.764297 272.259308,254.402603 273.733704,253.056320 
	C272.976562,254.347794 271.833649,255.623840 270.386414,257.012939 
z"/>
<path fill="#BC8EEC" opacity="1.000000" stroke="none" 
	d="
M579.398804,196.073349 
	C580.176758,195.084396 581.296509,194.052368 582.794800,193.025223 
	C582.029053,194.030167 580.884827,195.030228 579.398804,196.073349 
z"/>
<path fill="#BB8BF2" opacity="1.000000" stroke="none" 
	d="
M93.988693,280.367493 
	C95.496292,280.394348 97.151421,280.765961 98.926758,281.488190 
	C97.410049,281.463287 95.773132,281.087769 93.988693,280.367493 
z"/>
<path fill="#BC8EEC" opacity="1.000000" stroke="none" 
	d="
M572.272705,199.931839 
	C573.079407,199.232361 574.246826,198.613876 575.792236,198.010361 
	C574.991272,198.687820 573.812317,199.350327 572.272705,199.931839 
z"/>
<path fill="#C092EF" opacity="1.000000" stroke="none" 
	d="
M586.363770,191.044510 
	C586.817810,190.401566 587.606445,189.719330 588.755615,189.055511 
	C588.310242,189.717682 587.504333,190.361450 586.363770,191.044510 
z"/>
<path fill="#BD90ED" opacity="1.000000" stroke="none" 
	d="
M284.336853,240.065094 
	C284.487183,239.185272 284.946106,238.172455 285.765564,237.110809 
	C285.632507,238.018692 285.138947,238.975388 284.336853,240.065094 
z"/>
<path fill="#BB8BF2" opacity="1.000000" stroke="none" 
	d="
M90.107582,279.373230 
	C90.868317,279.145264 91.776848,279.235931 92.847519,279.568481 
	C92.091568,279.770905 91.173470,279.731415 90.107582,279.373230 
z"/>
<path fill="#BD90ED" opacity="1.000000" stroke="none" 
	d="
M290.343628,230.026154 
	C290.394562,229.144211 290.776276,228.141312 291.482605,227.027649 
	C291.429596,227.912994 291.052002,228.909119 290.343628,230.026154 
z"/>
<path fill="#BD90ED" opacity="1.000000" stroke="none" 
	d="
M277.393219,250.048706 
	C277.505066,249.430069 277.978912,248.777451 278.781830,248.087067 
	C278.658997,248.704453 278.207123,249.359589 277.393219,250.048706 
z"/>
<path fill="#C498F1" opacity="1.000000" stroke="none" 
	d="
M723.599854,96.025375 
	C723.830505,96.762856 723.722046,97.635147 723.391846,98.759041 
	C723.200317,98.060493 723.230469,97.110344 723.599854,96.025375 
z"/>
<path fill="#C498F1" opacity="1.000000" stroke="none" 
	d="
M724.645142,92.977066 
	C724.796753,93.741112 724.607849,94.649986 724.141602,95.782074 
	C724.010986,95.044159 724.157715,94.083023 724.645142,92.977066 
z"/>
<path fill="#BC8EEC" opacity="1.000000" stroke="none" 
	d="
M569.308838,200.945251 
	C569.503540,200.585602 570.034180,200.307343 570.875610,200.027420 
	C570.672485,200.359375 570.158691,200.693008 569.308838,200.945251 
z"/>
<path fill="#E5CAFE" opacity="1.000000" stroke="none" 
	d="
M227.004761,58.625023 
	C226.569489,58.813454 226.009827,58.702251 225.241608,58.385616 
	C225.648834,58.228584 226.264603,58.276989 227.004761,58.625023 
z"/>
<path fill="#BB8BF2" opacity="1.000000" stroke="none" 
	d="
M85.958450,277.337952 
	C86.433006,277.207336 87.029556,277.390106 87.807938,277.836273 
	C87.353325,277.950226 86.716888,277.800812 85.958450,277.337952 
z"/>
<path fill="#C498F1" opacity="1.000000" stroke="none" 
	d="
M722.666626,99.952499 
	C722.859863,100.415985 722.730957,101.003754 722.387390,101.811523 
	C722.229980,101.379944 722.287231,100.728355 722.666626,99.952499 
z"/>
<path fill="#C9A3F3" opacity="1.000000" stroke="none" 
	d="
M117.352089,285.875854 
	C117.572678,285.689575 118.121407,285.572693 118.839081,285.627808 
	C118.565430,285.848297 118.122833,285.896759 117.352089,285.875854 
z"/>
<path fill="#BD90ED" opacity="1.000000" stroke="none" 
	d="
M276.280579,251.015991 
	C276.217590,250.815399 276.418762,250.535172 276.853333,250.135193 
	C276.906097,250.322403 276.725433,250.629364 276.280579,251.015991 
z"/>
<path fill="#BD90ED" opacity="1.000000" stroke="none" 
	d="
M275.290405,252.032150 
	C275.224701,251.831436 275.422211,251.542480 275.858215,251.134460 
	C275.915680,251.324905 275.734619,251.634399 275.290405,252.032150 
z"/>
<path fill="#BD90ED" opacity="1.000000" stroke="none" 
	d="
M274.305725,253.053207 
	C274.232300,252.838989 274.430969,252.546555 274.873749,252.139343 
	C274.937836,252.341370 274.757812,252.658188 274.305725,253.053207 
z"/>
<path fill="#BB8BF2" opacity="1.000000" stroke="none" 
	d="
M83.970573,276.320984 
	C84.234261,276.093567 84.524376,276.239838 84.918365,276.672119 
	C84.724983,276.782043 84.383232,276.694244 83.970573,276.320984 
z"/>
<path fill="#D6BAF0" opacity="1.000000" stroke="none" 
	d="
M23.700165,46.946804 
	C23.902992,47.186569 23.756180,47.474659 23.340389,47.874672 
	C23.240210,47.694721 23.333248,47.364231 23.700165,46.946804 
z"/>
<path fill="#D6BAF0" opacity="1.000000" stroke="none" 
	d="
M24.678801,44.958004 
	C24.891821,45.203957 24.748907,45.491577 24.331768,45.886986 
	C24.226627,45.703144 24.315067,45.371441 24.678801,44.958004 
z"/>
<path fill="#BD90ED" opacity="1.000000" stroke="none" 
	d="
M283.316589,242.030914 
	C283.182648,241.814316 283.333008,241.520355 283.683472,241.074677 
	C283.789337,241.266479 283.695068,241.610031 283.316589,242.030914 
z"/>
<path fill="#D6BAF0" opacity="1.000000" stroke="none" 
	d="
M28.705856,38.963669 
	C28.763657,39.161381 28.557892,39.446728 28.112492,39.851780 
	C28.062666,39.664753 28.252480,39.358028 28.705856,38.963669 
z"/>
<path fill="#BD90ED" opacity="1.000000" stroke="none" 
	d="
M286.333313,237.040100 
	C286.187561,236.819763 286.330627,236.517746 286.675781,236.060669 
	C286.792633,236.256531 286.707397,236.607498 286.333313,237.040100 
z"/>
<path fill="#D6BAF0" opacity="1.000000" stroke="none" 
	d="
M29.692980,37.945801 
	C29.756735,38.144493 29.557114,38.436409 29.117159,38.850094 
	C29.061085,38.660915 29.245344,38.349968 29.692980,37.945801 
z"/>
<path fill="#BD90ED" opacity="1.000000" stroke="none" 
	d="
M287.307617,235.078125 
	C287.165680,234.868958 287.310150,234.558395 287.656128,234.083221 
	C287.769775,234.271332 287.681915,234.624023 287.307617,235.078125 
z"/>
<path fill="#C092EF" opacity="1.000000" stroke="none" 
	d="
M594.295410,184.085480 
	C594.227051,183.875839 594.429504,183.572510 594.884766,183.153931 
	C594.947205,183.356384 594.756714,183.674088 594.295410,184.085480 
z"/>
<path fill="#C092EF" opacity="1.000000" stroke="none" 
	d="
M592.234985,186.869476 
	C592.083557,186.577332 592.253296,186.366455 592.645264,186.086670 
	C592.715271,186.289810 592.611511,186.600815 592.234985,186.869476 
z"/>
<path fill="#C092EF" opacity="1.000000" stroke="none" 
	d="
M590.297974,188.038193 
	C590.235474,187.827728 590.445557,187.535248 590.905151,187.128174 
	C590.960022,187.327774 590.765198,187.641968 590.297974,188.038193 
z"/>
<path fill="#C092EF" opacity="1.000000" stroke="none" 
	d="
M589.300903,189.046814 
	C589.231628,188.835983 589.432068,188.544998 589.876709,188.139923 
	C589.937500,188.339432 589.754089,188.653030 589.300903,189.046814 
z"/>
<path fill="#C092EF" opacity="1.000000" stroke="none" 
	d="
M585.289551,192.035324 
	C585.224731,191.839615 585.421265,191.550888 585.852051,191.137054 
	C585.907837,191.322067 585.729370,191.632187 585.289551,192.035324 
z"/>
<path fill="#C092EF" opacity="1.000000" stroke="none" 
	d="
M584.226013,192.926285 
	C584.101379,192.569839 584.338440,192.342773 584.887573,192.116486 
	C584.921204,192.352295 584.717224,192.665070 584.226013,192.926285 
z"/>
<path fill="#BC8EEC" opacity="1.000000" stroke="none" 
	d="
M578.312744,197.051544 
	C578.238586,196.838120 578.434937,196.546982 578.874146,196.141724 
	C578.939026,196.343018 578.761108,196.658417 578.312744,197.051544 
z"/>
<path fill="#BC8EEC" opacity="1.000000" stroke="none" 
	d="
M577.215759,197.921814 
	C577.100403,197.557983 577.340820,197.336060 577.891479,197.124481 
	C577.920959,197.367874 577.710876,197.677505 577.215759,197.921814 
z"/>
<path fill="#BD90ED" opacity="1.000000" stroke="none" 
	d="
M289.322754,232.033997 
	C289.091400,231.785034 289.228790,231.490768 289.649780,231.084167 
	C289.762054,231.268448 289.681427,231.607407 289.322754,232.033997 
z"/>
<path fill="#BD90ED" opacity="1.000000" stroke="none" 
	d="
M288.283783,233.055420 
	C288.219666,232.850555 288.424164,232.556473 288.874634,232.143890 
	C288.931183,232.339005 288.741791,232.652603 288.283783,233.055420 
z"/>
<path fill="#000000" opacity="1.000000" stroke="none" 
	d="
M520.865662,159.899307 
	C524.710083,154.668198 529.144531,149.761307 532.244446,144.121017 
	C535.833496,137.590836 539.445496,130.656998 540.896484,123.464447 
	C543.136475,112.361580 550.487854,104.419678 555.352234,94.537582 
	C563.619324,100.599861 568.019470,108.590828 570.973267,117.498932 
	C575.099121,129.941650 578.145935,142.674911 577.210510,155.852936 
	C576.659058,163.621277 575.349548,171.461929 573.249817,178.953018 
	C571.664856,184.608078 565.309875,183.591660 561.162048,183.739334 
	C553.739685,184.003601 546.166870,183.076004 538.850891,181.650742 
	C536.280090,181.149902 534.261169,177.744034 532.025757,175.627167 
	C531.037781,174.691650 530.138123,173.662888 529.073364,172.073303 
	C528.641968,171.272324 528.335510,171.074509 528.029114,170.876694 
	C528.029114,170.876694 528.021362,170.980835 527.986389,170.713425 
	C527.638977,170.258224 527.326538,170.070435 527.014099,169.882660 
	C527.014099,169.882660 527.025024,169.974182 527.030518,169.622498 
	C526.023438,168.133606 525.010925,166.996414 523.998413,165.859207 
	C523.998413,165.859207 523.978516,165.477600 523.990723,164.998108 
	C523.680115,164.309723 523.357300,164.100830 523.034546,163.891922 
	C523.034546,163.891922 523.016479,163.970398 522.983032,163.706512 
	C522.637024,163.265335 522.324341,163.088074 522.011719,162.910797 
	C522.011719,162.910782 522.016479,162.981598 521.939758,162.665497 
	C521.251648,162.174255 520.640259,161.999130 520.028870,161.823990 
	C520.028870,161.823990 520.031555,161.962509 520.052673,161.729767 
	C520.073792,161.497009 520.165710,161.044708 520.165710,161.044708 
	C520.165710,161.044708 520.049927,161.038940 520.335999,160.996231 
	C520.703308,160.602127 520.784485,160.250717 520.865662,159.899307 
z"/>
<path fill="#000000" opacity="1.000000" stroke="none" 
	d="
M662.186951,163.002441 
	C659.475342,168.824036 656.954163,174.744293 654.001465,180.440933 
	C650.712585,186.786438 642.117065,190.347626 635.235779,188.663254 
	C633.976135,188.354919 632.641052,187.943954 631.391052,188.071686 
	C621.927734,189.038696 616.246094,183.452454 611.993713,176.293152 
	C609.539917,172.162033 608.370056,167.764801 611.907288,162.684753 
	C621.925476,148.297058 628.032410,131.898895 634.738892,115.815674 
	C637.056519,110.257622 640.516724,105.176003 643.846069,99.171570 
	C652.660767,109.981384 657.966187,121.230499 661.909119,133.993256 
	C662.320129,136.135559 662.944214,137.542572 662.916748,138.936783 
	C662.758911,146.960342 662.446777,154.980881 662.186951,163.002441 
z"/>
<path fill="#000000" opacity="1.000000" stroke="none" 
	d="
M356.173065,173.004730 
	C356.173065,173.004745 356.539917,172.988846 357.012482,173.000397 
	C357.696564,172.689713 357.908051,172.367462 358.119568,172.045197 
	C358.119568,172.045197 358.042267,172.055344 358.399902,172.042023 
	C359.875031,171.358032 360.992554,170.687347 362.110046,170.016663 
	C362.110046,170.016663 362.550049,169.963318 363.096405,169.977768 
	C364.162933,169.666031 364.683075,169.339844 365.203247,169.013657 
	C365.203247,169.013657 365.592102,168.992950 366.107208,168.988861 
	C367.134644,168.662704 367.646942,168.340622 368.159271,168.018555 
	C368.159271,168.018555 368.587921,167.980087 369.174255,167.965469 
	C370.902954,167.639786 372.045380,167.328735 373.187775,167.017670 
	C373.187775,167.017670 373.591522,166.984238 374.178009,166.985031 
	C376.713562,166.631149 378.662659,166.276459 380.260559,165.985687 
	C379.767670,169.975830 379.335876,173.471329 378.904083,176.966827 
	C377.287872,183.306549 376.127045,189.805832 373.971924,195.956726 
	C366.879852,216.198349 359.334839,236.181229 346.904236,254.069717 
	C343.563629,258.877075 339.573822,260.896271 334.843079,262.973969 
	C329.727661,259.613525 328.388428,254.405685 327.987152,248.748215 
	C326.799683,232.006653 332.003174,216.278625 336.667542,200.690796 
	C339.571838,190.985016 346.493225,182.881851 353.259796,174.405121 
	C354.552216,173.674744 355.362640,173.339737 356.173065,173.004730 
z"/>
<path fill="#000000" opacity="1.000000" stroke="none" 
	d="
M467.028381,113.888824 
	C462.817230,117.728195 458.660522,121.197159 454.503815,124.666115 
	C454.055237,124.306168 453.606628,123.946220 453.158020,123.586266 
	C458.855499,112.109657 459.412048,98.226257 469.755157,88.615700 
	C474.750061,94.712090 473.371063,105.627281 467.028381,113.888824 
z"/>
<path fill="#B888EE" opacity="1.000000" stroke="none" 
	d="
M662.556885,162.872910 
	C662.446777,154.980881 662.758911,146.960342 662.916748,138.936783 
	C662.944214,137.542572 662.320129,136.135559 662.082642,134.336182 
	C662.769836,134.793442 663.881653,135.641846 663.893738,136.505646 
	C664.008667,144.717529 663.955383,152.932205 663.876404,161.145340 
	C663.871277,161.681015 663.257568,162.210831 662.556885,162.872910 
z"/>
<path fill="#C197EE" opacity="1.000000" stroke="none" 
	d="
M379.186859,176.724701 
	C379.335876,173.471329 379.767670,169.975830 380.260559,165.985687 
	C378.662659,166.276459 376.713562,166.631149 374.365906,166.909286 
	C376.336639,166.352814 378.706024,165.872879 381.075378,165.392960 
	C381.054932,167.217575 381.226562,169.070648 380.961700,170.859070 
	C380.679413,172.765411 379.984436,174.610641 379.186859,176.724701 
z"/>
<path fill="#C79AEE" opacity="1.000000" stroke="none" 
	d="
M524.003418,166.234650 
	C525.010925,166.996414 526.023438,168.133606 527.075684,169.613678 
	C526.079773,168.841080 525.044128,167.725586 524.003418,166.234650 
z"/>
<path fill="#C197EE" opacity="1.000000" stroke="none" 
	d="
M361.724304,170.010956 
	C360.992554,170.687347 359.875031,171.358032 358.411133,172.079346 
	C359.156036,171.421753 360.247284,170.713501 361.724304,170.010956 
z"/>
<path fill="#C197EE" opacity="1.000000" stroke="none" 
	d="
M372.817322,166.995697 
	C372.045380,167.328735 370.902954,167.639786 369.372375,167.881531 
	C370.138428,167.532715 371.292664,167.253220 372.817322,166.995697 
z"/>
<path fill="#C197EE" opacity="1.000000" stroke="none" 
	d="
M355.811218,172.995758 
	C355.362640,173.339737 354.552216,173.674744 353.383301,174.090240 
	C353.832977,173.776108 354.641174,173.381439 355.811218,172.995758 
z"/>
<path fill="#C79AEE" opacity="1.000000" stroke="none" 
	d="
M520.175049,162.108826 
	C520.640259,161.999130 521.251648,162.174255 521.973022,162.653137 
	C521.495728,162.769135 520.908508,162.581406 520.175049,162.108826 
z"/>
<path fill="#C197EE" opacity="1.000000" stroke="none" 
	d="
M364.892517,169.011353 
	C364.683075,169.339844 364.162933,169.666031 363.306061,169.905960 
	C363.506836,169.549469 364.044342,169.279251 364.892517,169.011353 
z"/>
<path fill="#C197EE" opacity="1.000000" stroke="none" 
	d="
M367.851990,168.024139 
	C367.646942,168.340622 367.134644,168.662704 366.286774,168.913605 
	C366.482391,168.571548 367.013519,168.300644 367.851990,168.024139 
z"/>
<path fill="#C79AEE" opacity="1.000000" stroke="none" 
	d="
M522.126099,163.149338 
	C522.324341,163.088074 522.637024,163.265335 523.022827,163.712616 
	C522.810852,163.784378 522.525696,163.586136 522.126099,163.149338 
z"/>
<path fill="#C79AEE" opacity="1.000000" stroke="none" 
	d="
M523.101929,164.137817 
	C523.357300,164.100830 523.680115,164.309723 523.932800,164.816040 
	C523.631531,164.870224 523.400391,164.626968 523.101929,164.137817 
z"/>
<path fill="#C79AEE" opacity="1.000000" stroke="none" 
	d="
M519.985291,161.120514 
	C520.165710,161.044708 520.073792,161.497009 520.121704,161.723694 
	C520.047974,161.699036 519.926392,161.447678 519.985291,161.120514 
z"/>
<path fill="#C79AEE" opacity="1.000000" stroke="none" 
	d="
M520.660706,160.057098 
	C520.784485,160.250717 520.703308,160.602127 520.339233,161.054108 
	C520.189514,160.841431 520.322632,160.528152 520.660706,160.057098 
z"/>
<path fill="#C79AEE" opacity="1.000000" stroke="none" 
	d="
M527.136353,170.123199 
	C527.326538,170.070435 527.638977,170.258224 528.038574,170.714478 
	C527.836731,170.776535 527.547607,170.570145 527.136353,170.123199 
z"/>
<path fill="#C79AEE" opacity="1.000000" stroke="none" 
	d="
M528.110107,171.105469 
	C528.335510,171.074509 528.641968,171.272324 528.898315,171.749863 
	C528.551453,171.871338 528.332397,171.639557 528.110107,171.105469 
z"/>
<path fill="#C197EE" opacity="1.000000" stroke="none" 
	d="
M357.871399,172.110809 
	C357.908051,172.367462 357.696564,172.689713 357.187073,172.943573 
	C357.133789,172.642258 357.378510,172.409348 357.871399,172.110809 
z"/>
<path fill="#9E47FB" opacity="1.000000" stroke="none" 
	d="
M84.459915,101.023407 
	C93.105301,102.691437 101.340225,104.405190 109.596207,106.010643 
	C114.618271,106.987228 119.837578,107.279022 124.669693,108.816704 
	C130.284637,110.603485 134.586121,107.310982 139.475174,106.311905 
	C143.661041,105.456543 147.868179,104.705383 152.503784,103.877563 
	C155.323761,103.078613 158.483917,103.021263 159.950668,101.416336 
	C165.689651,95.136711 173.128143,91.973534 180.699127,89.011551 
	C197.085205,82.600868 214.154633,80.834984 231.610611,81.950447 
	C240.275467,82.504143 246.981339,89.553703 248.059677,98.277000 
	C250.489899,117.936089 244.354843,135.677673 236.364182,153.026733 
	C235.370239,155.184769 233.216324,156.808548 230.967499,158.807114 
	C226.552612,154.618912 222.770096,150.303513 219.206390,145.736328 
	C221.591553,142.862991 224.753387,140.562607 225.723679,137.555145 
	C227.962875,130.614777 229.138733,123.331329 230.822479,115.776978 
	C230.643066,113.581589 230.387115,111.796288 230.117203,109.559685 
	C229.179764,104.290306 228.738998,99.297775 227.092163,94.741135 
	C226.445175,92.951004 223.107422,91.095390 220.982437,91.080574 
	C215.561356,91.042778 209.879150,91.191681 204.755508,92.754555 
	C189.443329,97.425232 175.087692,104.194206 164.233047,116.466064 
	C162.038895,118.946678 161.434113,122.833122 160.034714,126.523026 
	C158.889435,136.519608 162.259537,144.951233 166.669418,153.059570 
	C171.218063,161.423019 177.146347,164.059448 185.990479,162.367096 
	C185.994980,166.830826 186.000473,170.881744 185.625641,174.874832 
	C181.218750,173.820328 177.044815,173.210220 173.197372,171.743622 
	C165.994675,168.998032 157.671768,167.652634 153.334488,160.307678 
	C148.111588,151.463013 143.123657,142.407318 143.933655,131.476639 
	C144.224228,127.555412 143.980270,123.594589 143.980270,119.322182 
	C140.432526,119.985840 136.728500,119.276161 137.241058,124.331444 
	C138.511627,136.862885 136.049088,148.970734 130.992676,160.201523 
	C127.320557,168.357635 120.882416,174.807907 111.969833,177.740540 
	C109.775482,176.571945 109.775482,176.571945 105.656937,180.706024 
	C97.830734,182.516113 90.572289,181.583221 83.313034,179.848709 
	C80.950905,179.284286 78.469841,179.217667 76.043175,178.923370 
	C76.043175,178.923370 75.997818,178.967026 75.992409,178.689453 
	C75.659561,178.219391 75.332130,178.026886 75.004692,177.834396 
	C70.526230,175.357437 65.647911,173.397858 61.645611,170.304764 
	C50.435112,161.640900 43.625320,150.589157 44.680187,135.723419 
	C45.029629,130.798874 44.893696,125.838844 44.949936,120.894691 
	C45.122158,105.754791 54.024548,102.497139 63.931351,100.393669 
	C70.308289,99.039673 77.327171,100.709122 84.459915,101.023407 
M76.301559,113.175827 
	C74.008598,112.846153 71.721779,112.463432 69.421463,112.197357 
	C63.860878,111.554161 58.963673,113.745491 57.751297,117.359734 
	C53.164333,131.034058 57.870361,147.768188 69.114380,157.748352 
	C70.153481,159.021744 70.976761,160.595673 72.265617,161.521286 
	C83.162910,169.347183 101.625214,167.893143 111.710693,158.921341 
	C118.507721,152.874863 121.189667,145.327042 122.242050,136.561951 
	C123.639816,124.920174 122.016617,121.345444 110.530907,118.853241 
	C99.535759,116.467484 88.296188,115.208214 76.301559,113.175827 
z"/>
<path fill="#E5C8FE" opacity="1.000000" stroke="none" 
	d="
M76.082581,179.297852 
	C78.469841,179.217667 80.950905,179.284286 83.313034,179.848709 
	C90.572289,181.583221 97.830734,182.516113 105.639099,181.127518 
	C101.938095,191.969238 100.444496,202.871643 100.873322,214.121399 
	C101.146698,221.293396 103.577553,227.231216 110.249763,230.456909 
	C116.359444,233.410660 122.652847,236.052383 129.041962,238.337646 
	C133.762360,240.026031 138.280350,239.066452 141.642014,234.931458 
	C145.344467,230.377274 148.979904,225.768616 152.166672,221.781540 
	C158.887207,225.273010 165.598206,228.738174 172.278458,232.261612 
	C172.980881,232.632080 173.502121,233.346054 174.107422,233.900650 
	C167.325958,237.974411 160.283585,241.678711 153.839203,246.229782 
	C147.849731,250.459595 143.105881,256.041016 141.001404,263.783264 
	C125.394524,263.425232 113.472839,255.838348 104.414276,243.698029 
	C99.044357,236.501297 91.986732,233.014206 83.226433,231.298843 
	C83.608109,226.169479 84.537804,221.282578 84.934608,216.352753 
	C85.993286,203.200226 80.869415,191.467072 76.082581,179.297852 
z"/>
<path fill="#E5C8FE" opacity="1.000000" stroke="none" 
	d="
M75.123413,178.074417 
	C75.332130,178.026886 75.659561,178.219391 76.022652,178.698181 
	C75.786247,178.761139 75.514183,178.537781 75.123413,178.074417 
z"/>
<path fill="#B674FC" opacity="1.000000" stroke="none" 
	d="
M174.497467,233.930298 
	C173.502121,233.346054 172.980881,232.632080 172.278458,232.261612 
	C165.598206,228.738174 158.887207,225.273010 152.166672,221.781540 
	C148.979904,225.768616 145.344467,230.377274 141.642014,234.931458 
	C138.280350,239.066452 133.762360,240.026031 129.041962,238.337646 
	C122.652847,236.052383 116.359444,233.410660 110.249763,230.456909 
	C103.577553,227.231216 101.146698,221.293396 100.873322,214.121399 
	C100.444496,202.871643 101.938095,191.969238 106.072784,181.039978 
	C109.775482,176.571945 109.775482,176.571945 111.975822,178.189255 
	C111.942162,181.276138 112.152763,183.656509 111.732529,185.919724 
	C109.364754,198.671524 111.091408,210.889404 117.473961,222.058731 
	C119.079361,224.868118 123.294319,227.134308 126.619736,227.648956 
	C128.542679,227.946579 132.191833,224.680878 133.135345,222.265472 
	C135.758408,215.550400 137.122147,208.354019 139.499588,201.527542 
	C140.562286,198.476151 142.293106,195.087830 144.762848,193.262192 
	C147.061996,191.562637 156.614807,197.285492 158.130768,200.062073 
	C160.743591,204.847641 163.485733,209.579346 166.456482,214.149796 
	C177.458023,231.075363 199.529205,223.214264 206.298462,212.170074 
	C213.452209,200.498520 215.023987,187.288010 214.946320,173.869415 
	C214.939499,172.690628 213.576462,171.519714 212.956879,170.069733 
	C213.464890,166.695251 208.598816,157.749115 205.903702,156.634628 
	C205.604813,156.511032 205.285202,156.396011 204.967026,156.367096 
	C202.006561,156.097992 197.558670,159.646149 197.062805,162.655304 
	C196.263840,167.503769 198.528656,172.153839 201.986725,173.507492 
	C199.853943,176.424362 200.911179,178.968719 204.366867,179.802048 
	C206.007645,180.197678 207.713364,180.324081 209.308167,180.560364 
	C208.957047,188.956680 203.215744,186.970093 198.798203,186.997925 
	C189.968857,187.053543 186.771133,183.939117 186.005951,174.932678 
	C186.000473,170.881744 185.994980,166.830826 186.043411,162.008301 
	C188.075089,157.834915 190.052841,154.433105 192.241318,150.909424 
	C192.715195,150.574661 192.883514,150.303009 192.983795,149.732483 
	C193.010544,149.492371 193.056534,149.011337 193.408661,148.964691 
	C197.508759,147.584152 201.180527,145.501190 205.024399,145.110168 
	C209.601654,144.644562 214.326630,145.630859 218.987595,145.988098 
	C222.770096,150.303513 226.552612,154.618912 230.682114,158.984726 
	C231.029114,159.035126 231.021301,159.526245 231.023666,159.771942 
	C231.993195,166.824570 234.240768,173.738861 233.680710,180.417709 
	C232.169495,198.439194 228.618637,216.164673 213.652481,228.553116 
	C209.497040,231.992813 203.787994,233.555649 198.402771,235.998322 
	C190.156860,236.997101 182.433807,236.471970 174.497467,233.930298 
z"/>
<path fill="#E5C8FE" opacity="1.000000" stroke="none" 
	d="
M212.843338,170.345123 
	C213.576462,171.519714 214.939499,172.690628 214.946320,173.869415 
	C215.023987,187.288010 213.452209,200.498520 206.298462,212.170074 
	C199.529205,223.214264 177.458023,231.075363 166.456482,214.149796 
	C163.485733,209.579346 160.743591,204.847641 158.130768,200.062073 
	C156.614807,197.285492 147.061996,191.562637 144.762848,193.262192 
	C142.293106,195.087830 140.562286,198.476151 139.499588,201.527542 
	C137.122147,208.354019 135.758408,215.550400 133.135345,222.265472 
	C132.191833,224.680878 128.542679,227.946579 126.619736,227.648956 
	C123.294319,227.134308 119.079361,224.868118 117.473961,222.058731 
	C111.091408,210.889404 109.364754,198.671524 111.732529,185.919724 
	C112.152763,183.656509 111.942162,181.276138 112.016876,178.501160 
	C120.882416,174.807907 127.320557,168.357635 130.992676,160.201523 
	C136.049088,148.970734 138.511627,136.862885 137.241058,124.331444 
	C136.728500,119.276161 140.432526,119.985840 143.980270,119.322182 
	C143.980270,123.594589 144.224228,127.555412 143.933655,131.476639 
	C143.123657,142.407318 148.111588,151.463013 153.334488,160.307678 
	C157.671768,167.652634 165.994675,168.998032 173.197372,171.743622 
	C177.044815,173.210220 181.218750,173.820328 185.625641,174.874832 
	C186.771133,183.939117 189.968857,187.053543 198.798203,186.997925 
	C203.215744,186.970093 208.957047,188.956680 209.308167,180.560364 
	C207.713364,180.324081 206.007645,180.197678 204.366867,179.802048 
	C200.911179,178.968719 199.853943,176.424362 202.360443,173.464905 
	C205.328339,172.473679 207.673141,171.755569 210.276031,171.038940 
	C210.697891,170.987640 210.861679,170.934875 211.341812,170.844757 
	C212.053207,170.653320 212.448273,170.499222 212.843338,170.345123 
z"/>
<path fill="#E4C6FE" opacity="1.000000" stroke="none" 
	d="
M77.164040,113.453842 
	C88.296188,115.208214 99.535759,116.467484 110.530907,118.853241 
	C122.016617,121.345444 123.639816,124.920174 122.242050,136.561951 
	C121.189667,145.327042 118.507721,152.874863 111.710693,158.921341 
	C101.625214,167.893143 83.162910,169.347183 72.265617,161.521286 
	C70.976761,160.595673 70.153481,159.021744 69.054321,156.966949 
	C68.695129,149.835129 68.396004,143.484680 68.421036,136.949280 
	C72.237724,135.843994 75.683586,134.426285 79.231239,134.093414 
	C91.559685,132.936661 101.356270,138.412674 110.111153,146.473297 
	C111.221725,147.495789 113.084274,147.701553 114.598434,148.285721 
	C115.221458,146.179016 116.336388,144.061783 116.291603,141.969376 
	C116.262581,140.613083 114.667854,139.174408 113.556236,137.975128 
	C102.588402,126.142273 88.972023,121.776421 73.163712,123.434898 
	C74.518280,119.878761 75.841164,116.666306 77.164040,113.453842 
z"/>
<path fill="#CFA1FD" opacity="1.000000" stroke="none" 
	d="
M219.206390,145.736328 
	C214.326630,145.630859 209.601654,144.644562 205.024399,145.110168 
	C201.180527,145.501190 197.508759,147.584152 193.099121,148.820816 
	C191.936066,148.305954 191.478912,147.814865 190.926376,147.482132 
	C185.595291,144.271820 180.248199,141.088150 175.061035,137.598999 
	C178.247528,134.030319 181.068253,130.528931 184.350998,127.533928 
	C192.688416,119.927330 202.962341,116.617485 213.938065,116.192566 
	C219.494431,115.977455 225.115097,118.580826 230.745941,116.187057 
	C229.138733,123.331329 227.962875,130.614777 225.723679,137.555145 
	C224.753387,140.562607 221.591553,142.862991 219.206390,145.736328 
z"/>
<path fill="#B674FC" opacity="1.000000" stroke="none" 
	d="
M230.822479,115.776978 
	C225.115097,118.580826 219.494431,115.977455 213.938065,116.192566 
	C202.962341,116.617485 192.688416,119.927330 184.350998,127.533928 
	C181.068253,130.528931 178.247528,134.030319 174.821411,137.840057 
	C172.830231,139.496918 170.752136,141.855392 169.742691,141.463226 
	C167.892563,140.744446 165.969086,138.614090 165.386780,136.678101 
	C164.792725,134.703064 165.774979,132.253891 166.358459,129.849762 
	C173.914627,120.118782 181.955170,111.278709 193.645874,107.266602 
	C206.048126,103.010300 218.895950,97.003922 230.131180,110.010986 
	C230.387115,111.796288 230.643066,113.581589 230.822479,115.776978 
z"/>
<path fill="#CF9EFE" opacity="1.000000" stroke="none" 
	d="
M230.117203,109.559685 
	C218.895950,97.003922 206.048126,103.010300 193.645874,107.266602 
	C181.955170,111.278709 173.914627,120.118782 166.049591,129.721466 
	C163.665115,128.527618 161.880859,127.299522 160.096588,126.071426 
	C161.434113,122.833122 162.038895,118.946678 164.233047,116.466064 
	C175.087692,104.194206 189.443329,97.425232 204.755508,92.754555 
	C209.879150,91.191681 215.561356,91.042778 220.982437,91.080574 
	C223.107422,91.095390 226.445175,92.951004 227.092163,94.741135 
	C228.738998,99.297775 229.179764,104.290306 230.117203,109.559685 
z"/>
<path fill="#E5C6FE" opacity="1.000000" stroke="none" 
	d="
M160.034714,126.523026 
	C161.880859,127.299522 163.665115,128.527618 165.758240,129.884003 
	C165.774979,132.253891 164.792725,134.703064 165.386780,136.678101 
	C165.969086,138.614090 167.892563,140.744446 169.742691,141.463226 
	C170.752136,141.855392 172.830231,139.496918 174.666031,138.137909 
	C180.248199,141.088150 185.595291,144.271820 190.926376,147.482132 
	C191.478912,147.814865 191.936066,148.305954 192.747009,148.867462 
	C193.056534,149.011337 193.010544,149.492371 192.779419,149.860504 
	C192.295853,150.444656 192.123291,150.712204 192.030579,151.031281 
	C190.052841,154.433105 188.075089,157.834915 186.044403,161.595505 
	C177.146347,164.059448 171.218063,161.423019 166.669418,153.059570 
	C162.259537,144.951233 158.889435,136.519608 160.034714,126.523026 
z"/>
<path fill="#CE9EFD" opacity="1.000000" stroke="none" 
	d="
M76.732803,113.314835 
	C75.841164,116.666306 74.518280,119.878761 72.765724,123.506668 
	C66.579849,124.881645 62.543648,129.124619 61.433842,135.615936 
	C63.641548,136.119003 65.869217,136.626617 68.096878,137.134247 
	C68.396004,143.484680 68.695129,149.835129 68.959290,156.637711 
	C57.870361,147.768188 53.164333,131.034058 57.751297,117.359734 
	C58.963673,113.745491 63.860878,111.554161 69.421463,112.197357 
	C71.721779,112.463432 74.008598,112.846153 76.732803,113.314835 
z"/>
<path fill="#9E48FB" opacity="1.000000" stroke="none" 
	d="
M212.956879,170.069717 
	C212.448273,170.499222 212.053207,170.653320 211.228256,170.711746 
	C210.538208,170.756546 210.278076,170.897003 210.017944,171.037476 
	C207.673141,171.755569 205.328339,172.473679 202.609802,173.234375 
	C198.528656,172.153839 196.263840,167.503769 197.062805,162.655304 
	C197.558670,159.646149 202.006561,156.097992 204.967026,156.367096 
	C205.285202,156.396011 205.604813,156.511032 205.903702,156.634628 
	C208.598816,157.749115 213.464890,166.695251 212.956879,170.069717 
z"/>
<path fill="#CFA1FD" opacity="1.000000" stroke="none" 
	d="
M192.241302,150.909424 
	C192.123291,150.712204 192.295853,150.444656 192.752655,150.100616 
	C192.883514,150.303009 192.715195,150.574661 192.241302,150.909424 
z"/>
<path fill="#B674FC" opacity="1.000000" stroke="none" 
	d="
M210.276031,171.038925 
	C210.278076,170.897003 210.538208,170.756546 210.911911,170.749115 
	C210.861679,170.934875 210.697891,170.987640 210.276031,171.038925 
z"/>
<path fill="#B676FA" opacity="1.000000" stroke="none" 
	d="
M68.421036,136.949280 
	C65.869217,136.626617 63.641548,136.119003 61.433842,135.615936 
	C62.543648,129.124619 66.579849,124.881645 72.734039,123.850342 
	C88.972023,121.776421 102.588402,126.142273 113.556236,137.975128 
	C114.667854,139.174408 116.262581,140.613083 116.291603,141.969376 
	C116.336388,144.061783 115.221458,146.179016 114.598434,148.285721 
	C113.084274,147.701553 111.221725,147.495789 110.111153,146.473297 
	C101.356270,138.412674 91.559685,132.936661 79.231239,134.093414 
	C75.683586,134.426285 72.237724,135.843994 68.421036,136.949280 
z"/>
</svg>